<svg
    xmlns="http://www.w3.org/2000/svg"
    viewBox="0 0 892.51 783.89"
>
    <clipPath id="a" transform="translate(-246.88 -136.33)">
        <path d="m205.96 36.24h975v667h-975z"></path>
    </clipPath>
    <g clip-path="url(#a)">
        <path
            d="m508 280.45c9.16-3.9 22.4 10.47 13.68 18.77l-17.85 17v.53l2.1-2.07c8.88-8.73 26 7.81 16.35 17l-18.46 17.56v.24l1.08-1.06c8.5-8.36 24.87 7.48 15.66 16.24l-16.75 15.93v31.06c0 10.12-7.56 10.64-18.62 10.61-13.74 0-31.27-3.9-36.22 12.51l-5.66 18.78 3.32.85-3.63 14.67 5.64 1.47-31.35 107.91-50.76 166.37-46-239.5 19.33-63 8 2.06 4-14.06 5.66 1.44 5.1-25.52c3-15-9.12-12-8.4-54l.78-44.24c0-2.91-.82-23.86 1.06-23.89h.69c4.26-8.91 16.66-4.51 21.2 11.73v-75.9c0-10.44 8.08-10.6 19.51-10.58h86.82c11.44 0 19.52.14 19.52 10.58v19.64l8.53-7.9c11-10.19 28.54 7.26 17.1 18.3l-25.64 24.76v7.26l4.16-1.5z"
            fill="#3481ad"
            fill-rule="evenodd"
            transform="translate(-246.88 -136.33)"
        ></path>
        <path
            d="m229.82 163.72-5.39-15.45 29.96-10.73z"
            fill="#ffa868"
            fill-rule="evenodd"
        ></path>
        <path
            d="m475.21 289.33-7.65-28.95 38.1-35.25c11-10.2 28.54 7.25 17.1 18.3z"
            fill="#ffa868"
            fill-rule="evenodd"
            transform="translate(-246.88 -136.33)"
        ></path>
        <path
            d="m431.07 465.17-84.07-20.55 9-45c3-15-9.12-12-8.4-54l1.05-60.9c.35-20.25 23.19-13.69 24.3 15.6l96.6 93.6c-8.1 23.13-23.16 20.49-27.3 34.2l-11.17 37.05z"
            fill="#ffa868"
            fill-rule="evenodd"
            transform="translate(-246.88 -136.33)"
        ></path>
        <path
            d="m349.41 277.54a14.66 14.66 0 0 1 8.67 2.93c.93 13.53-2.14 21.38-8.9 21-.23 0-.61 0-.83-.06 0-2.92-.82-23.87 1.06-23.9z"
            fill="#ffc097"
            fill-rule="evenodd"
            transform="translate(-246.88 -136.33)"
        ></path>
        <path
            d="m176.5 257.25 67.4-127.02v127.02z"
            fill="#fff"
            fill-rule="evenodd"
        ></path>
        <path
            d="m176.5 257.25 67.4-127.02v127.02z"
            fill="#edecea"
            fill-rule="evenodd"
            opacity=".5"
        ></path>
        <path
            d="m243.9 141.69-60.46 115.56h-54.64v-174.71h115.1z"
            fill="#fff"
            fill-rule="evenodd"
        ></path>
        <path
            d="m411.28 357.21h51.38a5 5 0 0 1 5 5v12.15a5 5 0 0 1 -5 4.95h-51.38a5 5 0 0 1 -4.95-4.95v-12.2a5 5 0 0 1 4.95-5z"
            fill="#2f41a0"
            fill-rule="evenodd"
            transform="translate(-246.88 -136.33)"
        ></path>
        <path
            d="m239.71 84.94 4.19 2.38v12.97l-88.93 156.96h-1.8l-8.39-4.76z"
            fill="#edecea"
            fill-rule="evenodd"
            opacity=".5"
        ></path>
        <path
            d="m228.12 82.54 3.44 1.99-96.97 167.74-5.79-3.35v-5.31l93.11-161.07z"
            fill="#edecea"
            fill-rule="evenodd"
            opacity=".5"
        ></path>
        <path
            d="m478.46 415.61c11.06 0 18.62-.49 18.62-10.61l.05-191.62c0-10.44-8.08-10.59-19.52-10.57h-86.82c-11.43 0-19.51.13-19.51 10.57v191.62c0 10.12 7.57 10.65 18.63 10.61zm7.92-192.54v81.51l.27 11.06-.5 70.67h-103.85l-.5-70.67.27-11.06v-81.51z"
            fill="#012e43"
            fill-rule="evenodd"
            transform="translate(-246.88 -136.33)"
        ></path>
        <path
            d="m413.55 372.36 1.95-.32a2.75 2.75 0 0 0 .92 1.8 3.17 3.17 0 0 0 2.1.63 3.08 3.08 0 0 0 2-.56 1.65 1.65 0 0 0 .66-1.3 1.21 1.21 0 0 0 -.59-1.05 9.69 9.69 0 0 0 -2-.67 17.83 17.83 0 0 1 -3-.94 3 3 0 0 1 -1.27-1.11 2.86 2.86 0 0 1 -.44-1.55 3 3 0 0 1 .36-1.44 3.12 3.12 0 0 1 1-1.1 3.94 3.94 0 0 1 1.25-.58 6.23 6.23 0 0 1 1.7-.23 6.8 6.8 0 0 1 2.41.39 3.41 3.41 0 0 1 1.53 1.07 4.33 4.33 0 0 1 .67 1.82l-1.93.26a2.12 2.12 0 0 0 -.76-1.42 2.74 2.74 0 0 0 -1.77-.51 3.22 3.22 0 0 0 -1.94.45 1.33 1.33 0 0 0 -.58 1.05 1.12 1.12 0 0 0 .24.7 1.73 1.73 0 0 0 .76.52c.2.08.77.24 1.74.51a23.45 23.45 0 0 1 2.91.91 2.94 2.94 0 0 1 1.31 1 2.9 2.9 0 0 1 .47 1.69 3.33 3.33 0 0 1 -.57 1.85 3.77 3.77 0 0 1 -1.67 1.35 6.15 6.15 0 0 1 -2.45.47 5.45 5.45 0 0 1 -3.46-.94 4.34 4.34 0 0 1 -1.52-2.78zm19.95-.3 2 .27a4.91 4.91 0 0 1 -1.78 2.77 5.36 5.36 0 0 1 -3.32 1 5.29 5.29 0 0 1 -4-1.57 6.1 6.1 0 0 1 -1.5-4.4 6.44 6.44 0 0 1 1.51-4.55 5.11 5.11 0 0 1 3.92-1.62 5 5 0 0 1 3.8 1.58 6.3 6.3 0 0 1 1.48 4.47v.52h-8.68a4.52 4.52 0 0 0 1.09 2.94 3.26 3.26 0 0 0 2.43 1 3 3 0 0 0 1.85-.58 3.79 3.79 0 0 0 1.21-1.83zm-6.5-3.16h6.48a3.87 3.87 0 0 0 -.74-2.2 3 3 0 0 0 -2.44-1.15 3.15 3.15 0 0 0 -2.28.91 3.57 3.57 0 0 0 -1 2.44zm11 6.93v-11.64h1.77v1.65a4.18 4.18 0 0 1 3.7-1.9 4.94 4.94 0 0 1 1.94.38 3.11 3.11 0 0 1 1.32 1 3.87 3.87 0 0 1 .61 1.45 11.72 11.72 0 0 1 .11 1.92v7.15h-2v-7.07a5.18 5.18 0 0 0 -.23-1.81 1.91 1.91 0 0 0 -.81-.95 2.57 2.57 0 0 0 -1.37-.36 3.2 3.2 0 0 0 -2.17.8 4 4 0 0 0 -.92 3v6.35zm20 0v-1.47a3.62 3.62 0 0 1 -3.25 1.72 4.5 4.5 0 0 1 -2.56-.77 5 5 0 0 1 -1.81-2.13 7.37 7.37 0 0 1 -.64-3.16 8.43 8.43 0 0 1 .58-3.16 4.54 4.54 0 0 1 4.34-2.92 3.94 3.94 0 0 1 1.87.44 4.08 4.08 0 0 1 1.34 1.16v-5.78h2v16.07zm-6.2-5.83a5 5 0 0 0 .95 3.34 2.8 2.8 0 0 0 4.43.05 4.87 4.87 0 0 0 .91-3.22 5.42 5.42 0 0 0 -.93-3.5 2.83 2.83 0 0 0 -2.27-1.11 2.75 2.75 0 0 0 -2.21 1.07 5.31 5.31 0 0 0 -.88 3.37z"
            fill="#fff"
            transform="translate(-246.88 -136.33)"
        ></path>
        <g fill-rule="evenodd">
            <path
                d="m419.24 210.7h29.93a2 2 0 0 1 2 2v1a2 2 0 0 1 -2 2h-29.93a2 2 0 0 1 -2-2v-1a2 2 0 0 1 2-2z"
                fill="#999"
                transform="translate(-246.88 -136.33)"
            ></path>
            <path
                d="m487.26 383.3c-8.58 8.16-22.36-8.8-14.8-16.24l25.72-25.29c8.5-8.36 24.87 7.48 15.66 16.24z"
                fill="#ffae73"
                transform="translate(-246.88 -136.33)"
            ></path>
            <path
                d="m483.47 381.91a14.81 14.81 0 0 1 -10.72-10.91c7-8.78 13.62-11.51 18.14-6.86 3.87 4 1.87 10.16-7.42 17.74z"
                fill="#ffc097"
                transform="translate(-246.88 -136.33)"
            ></path>
            <path
                d="m487.81 351.43c-9 8.52-23.35-9.19-15.45-16.95l26.85-26.4c8.88-8.74 26 7.8 16.35 16.95z"
                fill="#ffae73"
                transform="translate(-246.88 -136.33)"
            ></path>
            <path
                d="m483.86 350a15.46 15.46 0 0 1 -11.2-11.36c7.34-9.17 14.23-12 18.95-7.16 4 4.14 1.94 10.61-7.75 18.52z"
                fill="#ffc097"
                transform="translate(-246.88 -136.33)"
            ></path>
            <path
                d="m487.21 319c-9 8.52-23.35-9.19-15.45-16.95l26.85-26.4c8.88-8.74 26 7.8 16.35 16.95z"
                fill="#ffae73"
                transform="translate(-246.88 -136.33)"
            ></path>
            <path
                d="m483.26 317.58a15.46 15.46 0 0 1 -11.2-11.36c7.34-9.17 14.23-12 18.95-7.16 4 4.14 1.94 10.61-7.75 18.52z"
                fill="#ffc097"
                transform="translate(-246.88 -136.33)"
            ></path>
            <path
                d="m89.14 305.74 5.87-18.88 100.88 27.9-6.31 24.03z"
                fill="#60acb9"
            ></path>
            <path
                d="m144.85 300.62 51.23 14.17-6.31 24.02-51.86-17.06z"
                fill="#48aaad"
            ></path>
            <path
                d="m0 565.81 37.24-123.56 43.58-139.35 116.94 29.35-53.79 171.36-25.84 94.01z"
                fill="#522019"
            ></path>
            <path
                d="m139.33 317.58 58.63 14.64-79.83 265.4-59.07-15.9z"
                fill="#420d09"
            ></path>
            <path
                d="m528.75 630.22v-7.6c0-46.82 24.31 13.58 13.77-160-.89-14.78-24.79-15.27-24.79 0v19.38c0 2-4.42 2.07-4.42 0v-33.77c0-14.64-26.22-14.33-26.11.12l.24 31c0 1.56-3.34 1.57-3.34 0l.06-45.79c0-14.62-25.15-13.85-25.15 0v46.71c0 2.32-4.55 2.56-4.55 0v-57.72h-10.46v423.36h97.92v-200.45h-5.72v-15.24z"
                fill="#3481ad"
                transform="translate(-246.88 -136.33)"
            ></path>
            <path
                d="m434.29 648 86.26-1.43v-26.13c0-46.82 24.31 13.59 13.77-160-.89-14.78-24.79-15.28-24.79 0v19.4c0 2-4.42 2.08-4.42 0v-33.78c0-14.65-26.22-14.34-26.11.11l.24 31c0 1.56-3.33 1.57-3.33 0l.06-45.8c0-14.61-25.16-13.85-25.16 0v46.71c0 2.33-4.55 2.57-4.55 0v-83.08c0-14.73-24.67-16.22-24.67 0v127.7c0 2.37-3.42 1.89-4.55-.24l-25.63-48.15c-6.88-12.91-29.11-5.15-23.24 11 5.71 15.71 11.38 30.29 16.53 46.95 14.46 46.77 49.59 61.65 49.59 81.69v34z"
                fill="#ffae73"
                transform="translate(-246.88 -136.33)"
            ></path>
            <path
                d="m425.82 390.28a15.44 15.44 0 0 1 15.94-.13c1.47 11.66-1.28 18.58-8.05 18.59-5.79 0-9-6-7.89-18.46z"
                fill="#ffc097"
                transform="translate(-246.88 -136.33)"
            ></path>
            <path
                d="m385.24 470.73c13.4 20.86-8.79 32.3-16.82 8a19.76 19.76 0 0 1 16.82-8z"
                fill="#ffc097"
                transform="translate(-246.88 -136.33)"
            ></path>
            <path
                d="m178.15 491.71h102.91v21.24h-102.91z"
                fill="#48aaad"
            ></path>
            <path
                d="m177.63 491.71h51.46v21.24h-51.46z"
                fill="#60acb9"
            ></path>
            <path
                d="m171.87 506.96h114.91v200.45h-114.91z"
                fill="#420d09"
            ></path>
            <path
                d="m171.87 506.96h57.45v200.45h-57.45z"
                fill="#522019"
            ></path>
            <path
                d="m1072.59 178.06 13.12 15.94h-35.44v-11.54a101.39 101.39 0 0 0 -32.58 1.89v52.38l40.13.21c28.39.14 53.69 16.32 68.16 39.5l.35.56c.2.33.4.66.59 1l.33.56.65 1.12.27.49c.23.4.45.81.67 1.22v.05l.13.25.63 1.21.12.25.13.25c.21.41.41.82.61 1.24l.12.25c.22.46.44.93.65 1.4v.09l.12.25c.19.43.38.86.56 1.29l.11.26c.2.47.4.95.59 1.43l.16.38c.17.42.33.84.49 1.26l.23.62a81.66 81.66 0 0 1 4.54 18.69v.25c.06.59.13 1.17.18 1.76v.21q.09.93.15 1.86v.1c0 .65.08 1.3.1 1.95v.06 2l.69 166-186.25-.5v435.97h-60.35v-427.42h-219.08c-6.15 0-11.54-3.78-14.41-9.36l-.06-.12-.12-.24-.06-.12c-.05-.11-.11-.23-.16-.35l-.3-.71-.05-.13-.07-.18-.06-.17-.09-.23-.09-.19-.06-.16-.07-.24v-.15l-.09-.26v-.12l-.09-.3v-.11c0-.1-.05-.21-.08-.31v-.06c0-.12-.06-.24-.08-.37v-.06c0-.11 0-.23-.08-.35v-.05c0-.13 0-.25-.07-.37v-.09c0-.12-.05-.25-.07-.37 0-.13 0-.27-.07-.4 0-.29-.07-.57-.1-.86h50v-9h-26.2v-174h32.06a91.18 91.18 0 0 1 84.84-58.37 91.61 91.61 0 0 1 10.53.62l201.63 1.02v-88.12a3.83 3.83 0 0 1 3.82-3.82 3.82 3.82 0 0 1 3.81 3.82 66.69 66.69 0 0 1 44.88.1v12.08h22.9l-12.86 17.32z"
                fill="#3481ad"
                transform="translate(-246.88 -136.33)"
            ></path>
            <path
                d="m638.02 328.49 60.59 6v441.02h-60.59v-441.02z"
                fill="#2f41a0"
            ></path>
            <path
                d="m698.61 388.25-60.59-23.56v-51.25l60.59 23.56z"
                fill="#12227c"
            ></path>
            <path
                d="m790.19 226.59c50 0 90.84 40.88 90.84 90.84v158.22h-181.67v-158.22c0-50 40.88-90.84 90.83-90.84z"
                fill="#12227c"
                transform="translate(-246.88 -136.33)"
            ></path>
            <path
                d="m934.35 468c-.94 9.23-8 16.46-16.51 16.46h-252c-8.5 0-15.57-7.23-16.51-16.46z"
                fill="#2f41a0"
                transform="translate(-246.88 -136.33)"
            ></path>
            <path
                d="m426.28 148.64h210.84v173.95h-210.84z"
                fill="#fc0"
            ></path>
            <path
                d="m426.28 322.59 133.08-96.7 134.42 96.7z"
                fill="#fcc12d"
            ></path>
            <path
                d="m426.28 148.64 245.86.13v25.08l-112.77 89.66z"
                fill="#fa9e27"
            ></path>
            <path
                d="m426.28 148.64 245.86.13v25.08l-112.6 71.37z"
                fill="#fc0"
            ></path>
            <path
                d="m605.67 322.59-35.62-173.95h104.9v173.95z"
                fill="#e3ae28"
            ></path>
            <path
                d="m1131.74 476.48-251-.68v-158.13c0-47.25-36.56-86.37-82.79-90.47l252.19 1.31c43.78.23 80.23 38.55 80.91 82l.68 166zm-349.17-249.35h-.35z"
                fill="#2f41a0"
                transform="translate(-246.88 -136.33)"
            ></path>
            <path
                d="m879.42 302.24h251.08q.48 4.08.56 8.23v12.79h-250.31v-5.59a90.26 90.26 0 0 0 -1.33-15.43z"
                fill="#6876bd"
                transform="translate(-246.88 -136.33)"
            ></path>
            <path
                d="m865.81 267.92h252.44a86.17 86.17 0 0 1 7.88 16.11h-251.88a91.42 91.42 0 0 0 -8.44-16.11z"
                fill="#6876bd"
                transform="translate(-246.88 -136.33)"
            ></path>
            <path
                d="m934.35 468a19.73 19.73 0 0 1 -2.66 8.12h-279.69a19.73 19.73 0 0 1 -2.66-8.12z"
                fill="#12227c"
                transform="translate(-246.88 -136.33)"
            ></path>
            <path
                d="m818.06 33.36 13.13 15.88h-35.45l-.06-33.21h35.24z"
                fill="#b80f0a"
            ></path>
            <path
                d="m1042.63 185.57v-14.83l12.27 5.26-12.27 9.58z"
                fill="#900603"
                transform="translate(-246.88 -136.33)"
            ></path>
            <path
                d="m1009.75 176v-35.7a66.62 66.62 0 0 1 45.15 0v35.7a103.43 103.43 0 0 0 -45.15 0z"
                fill="#d21502"
                transform="translate(-246.88 -136.33)"
            ></path>
            <path
                d="m1006.21 136.33a3.83 3.83 0 0 1 3.82 3.82v211.75a3.83 3.83 0 0 1 -3.82 3.82 3.83 3.83 0 0 1 -3.82-3.82v-211.75a3.83 3.83 0 0 1 3.82-3.82z"
                fill="#12227c"
                transform="translate(-246.88 -136.33)"
            ></path>
            <path
                d="m1006.22 325.94a36.38 36.38 0 1 1 -36.38 36.38 36.38 36.38 0 0 1 36.38-36.38z"
                fill="#12227c"
                transform="translate(-246.88 -136.33)"
            ></path>
        </g>
        <path
            d="m1008.74 370.61a13.85 13.85 0 0 1 -3.69 3.06 7.89 7.89 0 0 1 -8.47-.17 9.42 9.42 0 0 1 -3.45-4.05 13.47 13.47 0 0 1 -1.33-6 17.64 17.64 0 0 1 2.06-8.06 15.45 15.45 0 0 1 5.12-6.06 10.82 10.82 0 0 1 5.94-2 8.31 8.31 0 0 1 4.21 1.15 9.88 9.88 0 0 1 3.43 3.51l.89-3.93h4.55l-3.64 17c-.51 2.37-.76 3.67-.76 3.93a1.57 1.57 0 0 0 .52 1.18 1.73 1.73 0 0 0 1.25.49 6.73 6.73 0 0 0 3.52-1.54 14 14 0 0 0 4.58-5.42 15.58 15.58 0 0 0 1.68-7 15.14 15.14 0 0 0 -2.17-7.88 15.46 15.46 0 0 0 -6.46-5.86 20.59 20.59 0 0 0 -9.49-2.2 21.69 21.69 0 0 0 -10.84 2.77 19 19 0 0 0 -7.61 7.93 23.64 23.64 0 0 0 -2.7 11.09 20.31 20.31 0 0 0 2.69 10.66 16.09 16.09 0 0 0 7.81 6.61 28.88 28.88 0 0 0 11.3 2.14 24.75 24.75 0 0 0 11.12-2.24 17.36 17.36 0 0 0 6.71-5.43h4.49a18 18 0 0 1 -4.43 5.42 23.5 23.5 0 0 1 -7.46 4.37 30 30 0 0 1 -10.42 1.61 35.49 35.49 0 0 1 -10.36-1.45 21.88 21.88 0 0 1 -8.09-4.32 19.36 19.36 0 0 1 -5-6.66 25.19 25.19 0 0 1 -2.12-10.31 28.16 28.16 0 0 1 2.53-11.75 23.67 23.67 0 0 1 8.78-10.48 25 25 0 0 1 13.79-3.63 24.4 24.4 0 0 1 11.29 2.56 18.82 18.82 0 0 1 7.88 7.64 19.25 19.25 0 0 1 -2.69 22.52q-4.62 5.1-10.07 5.1a6.29 6.29 0 0 1 -2.82-.54 3.4 3.4 0 0 1 -1.58-1.53 6.5 6.5 0 0 1 -.48-2.19zm-12.28-6.84a8 8 0 0 0 1.65 5.39 4.85 4.85 0 0 0 3.77 1.93 6.4 6.4 0 0 0 3-.85 10.77 10.77 0 0 0 3-2.52 13.29 13.29 0 0 0 2.34-4.24 15.26 15.26 0 0 0 .91-5.16 7.69 7.69 0 0 0 -1.71-5.33 5.38 5.38 0 0 0 -4.16-1.9 6.05 6.05 0 0 0 -3.06.82 9.48 9.48 0 0 0 -2.77 2.65 14.74 14.74 0 0 0 -2.15 4.43 16.17 16.17 0 0 0 -.81 4.78z"
            fill="#fff"
            transform="translate(-246.88 -136.33)"
        ></path>
        <path
            d="m546.53 333.74h76.47a6.16 6.16 0 0 1 6.15 6.15 6.16 6.16 0 0 1 -6.15 6.11h-76.5a6.16 6.16 0 0 1 -6.15-6.15 6.17 6.17 0 0 1 6.15-6.15z"
            fill="#fff"
            fill-rule="evenodd"
            transform="translate(-246.88 -136.33)"
        ></path>
        <path
            d="m572.93 367.34h76.5a6.16 6.16 0 0 1 6.15 6.15 6.16 6.16 0 0 1 -6.15 6.15h-76.5a6.16 6.16 0 0 1 -6.15-6.15 6.17 6.17 0 0 1 6.15-6.15z"
            fill="#fff"
            fill-rule="evenodd"
            transform="translate(-246.88 -136.33)"
        ></path>
        <path
            d="m546.53 413.38h76.47a6.16 6.16 0 0 0 6.15-6.15 6.16 6.16 0 0 0 -6.15-6.15h-76.5a6.16 6.16 0 0 0 -6.15 6.15 6.17 6.17 0 0 0 6.15 6.15z"
            fill="#fff"
            fill-rule="evenodd"
            transform="translate(-246.88 -136.33)"
        ></path>
    </g>
</svg>