<svg
    xmlns="http://www.w3.org/2000/svg"
    viewBox="0 0 744.22 589.61"
>
    <mask
        id="a"
        height="74.44"
        maskUnits="userSpaceOnUse"
        width="71.8"
        x="516.54"
        y="207.42"
    >
        <path
            d="m878.63 330.58a35.9 35.9 0 1 1 -35.9-35.9 35.9 35.9 0 0 1 35.9 35.9z"
            fill="#fff"
            transform="translate(-290.29 -87.26)"
        ></path>
    </mask>
    <mask
        id="b"
        height="82.81"
        maskUnits="userSpaceOnUse"
        width="81.8"
        x="462.29"
        y="310.67"
    >
        <path
            d="m834.38 438.83a40.9 40.9 0 1 1 -40.9-40.9 40.9 40.9 0 0 1 40.9 40.9z"
            fill="#fff"
            transform="translate(-290.29 -87.26)"
        ></path>
    </mask>
    <mask
        id="c"
        height="73.83"
        maskUnits="userSpaceOnUse"
        width="71.8"
        x="387.4"
        y="249.26"
    >
        <path
            d="m749.49 372.42a35.9 35.9 0 1 1 -35.9-35.9 35.9 35.9 0 0 1 35.9 35.9z"
            fill="#fff"
            transform="translate(-290.29 -87.26)"
        ></path>
    </mask>
    <linearGradient
        id="d"
        gradientUnits="userSpaceOnUse"
        x1="685.04"
        x2="742.15"
        y1="397.14"
        y2="397.14"
    >
        <stop offset="0" stop-color="#093057"></stop>
        <stop offset=".96" stop-color="#093e73"></stop>
    </linearGradient>
    <linearGradient
        id="e"
        gradientUnits="userSpaceOnUse"
        x1="434.63"
        x2="434.63"
        y1="211.9"
        y2="211.9"
    >
        <stop offset="0" stop-color="#23cdcf"></stop>
        <stop offset=".44" stop-color="#01c5db"></stop>
        <stop offset="1" stop-color="#2aa4cf"></stop>
    </linearGradient>
    <linearGradient
        id="f"
        x1="416.67"
        x2="452.59"
        y1="218.45"
        y2="218.45"
    ></linearGradient>
    <linearGradient
        id="g"
        x1="416.67"
        x2="452.59"
        y1="205.66"
        y2="205.66"
    ></linearGradient>
    <g transform="translate(-290.29 -87.26)">
        <path
            d="m395.76 425.5a292.49 292.49 0 0 1 275.17-336l1.84-2.24c-5.57.24-11.14.62-16.72 1.18a294.92 294.92 0 0 0 -264.27 322.69q.84 8.37 2.14 16.62z"
            fill="#fff"
        ></path>
        <path
            d="m915.45 200.78 1.36-1.66a298 298 0 0 0 -122.21-91.25l-1.42 1.74a293.27 293.27 0 0 1 122.27 91.17z"
            fill="#fff"
        ></path>
        <path
            d="m968 306c23.53 88 5.87 185.79-56.15 261.53-102.33 125-287.24 143.36-412.19 41a291.86 291.86 0 0 1 -60.11-67.12l-1.42 1.73a295.07 295.07 0 0 0 531.61-239.26z"
            fill="#fff"
        ></path>
        <path
            d="m458.39 295.48a242.45 242.45 0 0 1 26.3-50.34c73.87-108.33 220.58-138 330.5-68.28l1.09-1.61a244.68 244.68 0 0 0 -333.19 68.8 246 246 0 0 0 -27 51.75z"
            fill="#fff"
        ></path>
        <path
            d="m443.38 401.24-2.05.29a249.48 249.48 0 0 0 3.49 25.86 242.93 242.93 0 0 0 95.9 152l1.09-1.61a242.44 242.44 0 0 1 -98.43-176.54z"
            fill="#fff"
        ></path>
        <path
            d="m882.46 236.83q-4.59-6.22-9.58-12.16l-1.19 1.75q4.38 5.27 8.43 10.74z"
            fill="#fff"
        ></path>
        <path
            d="m925.34 334.58-2.05.29a242 242 0 0 1 -37.45 183.82c-62.45 91.58-176.94 126.92-277.26 93.56l-1.19 1.75a244.79 244.79 0 0 0 318.32-277.56c-.12-.62-.25-1.24-.37-1.86z"
            fill="#fff"
        ></path>
        <path
            d="m816.71 609.25c3.33-2 6.66-4 9.9-6.14l-1.06-1.62c-3.21 2.09-6.52 4.14-9.82 6.09z"
            fill="#fff"
        ></path>
        <path
            d="m496.23 565.78-1.38 1.36c2.72 2.76 5.53 5.49 8.35 8.11l1.32-1.42c-2.8-2.61-5.59-5.31-8.29-8.05z"
            fill="#fff"
        ></path>
        <path
            d="m480.78 548.64-1.5 1.23c2.45 3 5 5.94 7.59 8.81l1.44-1.3c-2.56-2.85-5.1-5.79-7.53-8.74z"
            fill="#fff"
        ></path>
        <path
            d="m444.28 489.88-1.76.8c1.58 3.53 3.27 7.07 5 10.52l1.73-.87c-1.72-3.43-3.39-6.94-4.97-10.45z"
            fill="#fff"
        ></path>
        <path
            d="m531.41 595.68-1.12 1.58c3.14 2.23 6.39 4.43 9.65 6.52l1-1.62c-3.19-2.08-6.41-4.26-9.53-6.48z"
            fill="#fff"
        ></path>
        <path
            d="m466.89 530.18-1.6 1.1c2.19 3.18 4.48 6.37 6.8 9.46l1.55-1.16c-2.31-3.07-4.58-6.23-6.75-9.4z"
            fill="#fff"
        ></path>
        <path
            d="m454.69 510.54-1.69.95c1.89 3.37 3.89 6.75 5.93 10l1.64-1c-2.02-3.25-4-6.6-5.88-9.95z"
            fill="#fff"
        ></path>
        <path
            d="m796.14 620.19c3.49-1.67 7-3.43 10.41-5.24l-.91-1.71c-3.39 1.8-6.87 3.55-10.34 5.2z"
            fill="#fff"
        ></path>
        <path
            d="m752 634.53.51 1.87c3.74-1 7.49-2.15 11.17-3.33l-.59-1.85c-3.67 1.18-7.4 2.29-11.09 3.31z"
            fill="#fff"
        ></path>
        <path
            d="m774 627.44.67 1.81c3.62-1.35 7.27-2.79 10.83-4.29l-.75-1.79c-3.53 1.49-7.14 2.93-10.75 4.27z"
            fill="#fff"
        ></path>
        <path
            d="m550.84 608.21-1 1.67c3.34 2 6.77 3.85 10.18 5.65l.91-1.71c-3.37-1.82-6.77-3.68-10.09-5.61z"
            fill="#fff"
        ></path>
        <path
            d="m571.31 619-.82 1.75c3.49 1.65 7.08 3.24 10.65 4.74l.74-1.79c-3.54-1.5-7.09-3.08-10.57-4.7z"
            fill="#fff"
        ></path>
        <path
            d="m622.3 636.85c-2.54-.61-5.08-1.24-7.58-1.92l-.51 1.87c2.86.78 5.77 1.49 8.67 2.17z"
            fill="#fff"
        ></path>
        <path
            d="m592.66 627.91-.67 1.82c3.63 1.34 7.34 2.61 11 3.78l.59-1.84c-3.58-1.17-7.32-2.43-10.92-3.76z"
            fill="#fff"
        ></path>
        <path
            d="m513.15 581.5-1.25 1.5c2.94 2.5 6 5 9 7.34l1.18-1.53c-2.99-2.37-6-4.81-8.93-7.31z"
            fill="#fff"
        ></path>
        <path
            d="m459.79 245.71-1.65-1c-2 3.3-4 6.69-5.87 10.06l1.69.94c1.86-3.36 3.82-6.71 5.83-10z"
            fill="#fff"
        ></path>
        <path
            d="m485.84 207.32c-2.56 2.89-5.1 5.87-7.53 8.88l1.5 1.22c2.42-3 4.94-5.95 7.48-8.81z"
            fill="#fff"
        ></path>
        <path
            d="m471.17 225.4c-2.3 3.1-4.56 6.29-6.73 9.5l1.61 1.09c2.15-3.19 4.39-6.36 6.67-9.44z"
            fill="#fff"
        ></path>
        <path
            d="m500.56 192.05c-2.3 2.21-4.59 4.46-6.8 6.74l1.39 1.35c2-2 4-4 6-6z"
            fill="#fff"
        ></path>
        <path
            d="m602 133.67-.6-1.84c-3.32 1.07-6.65 2.23-9.94 3.44l.52 1.87c3.35-1.22 6.71-2.39 10.02-3.47z"
            fill="#fff"
        ></path>
        <path
            d="m729.55 639.66.51 1.88c3.72-.69 7.47-1.46 11.15-2.3l-.43-1.89c-3.71.85-7.49 1.65-11.23 2.31z"
            fill="#fff"
        ></path>
        <path
            d="m446.85 265.08c-1.73 3.46-3.4 7-5 10.55l1.77.78c1.56-3.51 3.22-7 4.93-10.47z"
            fill="#fff"
        ></path>
        <path
            d="m437.38 286.38c-1.41 3.6-2.76 7.28-4 10.95l1.83.63c1.25-3.64 2.59-7.3 4-10.87z"
            fill="#fff"
        ></path>
        <path
            d="m420.72 354.18c-.41 3.85-.75 7.76-1 11.64l1.93.12c.25-3.85.58-7.73 1-11.55z"
            fill="#fff"
        ></path>
        <path
            d="m429.83 308.45c-1.09 3.71-2.11 7.5-3 11.26l1.88.46c.92-3.73 1.93-7.49 3-11.18z"
            fill="#fff"
        ></path>
        <path
            d="m424.26 331.1c-.75 3.8-1.44 7.67-2 11.5l1.91.29c.58-3.8 1.26-7.64 2-11.41z"
            fill="#fff"
        ></path>
        <path
            d="m943.1 422.49c.6-3.83 1.11-7.73 1.53-11.57l-1.93-.22c-.41 3.82-.92 7.69-1.51 11.5z"
            fill="#fff"
        ></path>
        <path
            d="m905 244.55 1.65-1c-2-3.29-4.18-6.57-6.36-9.77l-1.6 1.09c2.13 3.13 4.25 6.43 6.31 9.68z"
            fill="#fff"
        ></path>
        <path
            d="m861.07 191.17 1.32-1.42c-2.83-2.63-5.75-5.23-8.69-7.74l-1.25 1.48c2.91 2.51 5.81 5.07 8.62 7.68z"
            fill="#fff"
        ></path>
        <path
            d="m836.23 596.53c3.13-2.24 6.26-4.6 9.29-7l-1.2-1.52c-3 2.37-6.11 4.7-9.22 6.93z"
            fill="#fff"
        ></path>
        <path
            d="m877.26 207.64 1.44-1.3c-2.58-2.87-5.26-5.72-8-8.47l-1.39 1.36c2.69 2.77 5.39 5.56 7.95 8.41z"
            fill="#fff"
        ></path>
        <path
            d="m647.64 123.26-.26-1.92c-3.83.52-7.7 1.14-11.51 1.83l.35 1.9c3.78-.68 7.62-1.3 11.42-1.81z"
            fill="#fff"
        ></path>
        <path
            d="m613.12 130.35.54-.15c3.72-1 7.5-2 11.23-2.81l-.43-1.89c-3.76.86-7.56 1.81-11.31 2.83l-.54.15z"
            fill="#fff"
        ></path>
        <path
            d="m670.66 121.15-.08-1.94c-3.87.18-7.78.45-11.63.81l.18 1.93c3.87-.35 7.7-.62 11.53-.8z"
            fill="#fff"
        ></path>
        <path
            d="m739.7 127.16.43-1.89c-3.8-.85-7.65-1.62-11.45-2.3l-.34 1.91c3.78.67 7.59 1.44 11.36 2.28z"
            fill="#fff"
        ></path>
        <path
            d="m716.89 123.1.25-1.92c-3.83-.5-7.74-.93-11.61-1.27l-.16 1.93c3.83.33 7.71.76 11.52 1.26z"
            fill="#fff"
        ></path>
        <path
            d="m693.79 121.09.09-1.93c-3.88-.17-7.8-.25-11.66-.24v1.94c3.84-.01 7.78.07 11.57.23z"
            fill="#fff"
        ></path>
        <path
            d="m891.92 225.46 1.54-1.16c-2.31-3.09-4.73-6.17-7.17-9.15l-1.5 1.24c2.42 2.95 4.83 6 7.13 9.07z"
            fill="#fff"
        ></path>
        <path
            d="m900.79 530.14c2.16-3.2 4.29-6.49 6.31-9.79l-1.65-1c-2 3.27-4.12 6.53-6.27 9.71z"
            fill="#fff"
        ></path>
        <path
            d="m913 510.29c1.87-3.37 3.7-6.84 5.43-10.31l-1.73-.86c-1.72 3.44-3.53 6.88-5.39 10.23z"
            fill="#fff"
        ></path>
        <path
            d="m923.38 489.44c1.58-3.53 3.1-7.15 4.52-10.75l-1.81-.71c-1.4 3.57-2.91 7.17-4.47 10.67z"
            fill="#fff"
        ></path>
        <path
            d="m854.5 582.16c2.92-2.52 5.83-5.13 8.64-7.78l-1.33-1.38c-2.79 2.63-5.68 5.23-8.58 7.72z"
            fill="#fff"
        ></path>
        <path
            d="m931.92 467.75c1.26-3.66 2.45-7.4 3.55-11.11l-1.86-.55c-1.08 3.68-2.27 7.4-3.52 11z"
            fill="#fff"
        ></path>
        <path
            d="m871.43 566.22c2.69-2.77 5.35-5.63 7.93-8.53l-1.45-1.28c-2.56 2.87-5.2 5.71-7.87 8.46z"
            fill="#fff"
        ></path>
        <path
            d="m886.9 548.83c2.44-3 4.84-6.09 7.15-9.19l-1.56-1.16c-2.28 3.08-4.67 6.15-7.1 9.13z"
            fill="#fff"
        ></path>
        <path
            d="m933.27 307.69 1.86-.55c-1.11-3.72-2.31-7.45-3.57-11.09l-1.83.63c1.27 3.61 2.44 7.32 3.54 11.01z"
            fill="#fff"
        ></path>
        <path
            d="m938.52 445.38c.93-3.76 1.78-7.59 2.54-11.39l-1.9-.38c-.75 3.77-1.6 7.57-2.53 11.3z"
            fill="#fff"
        ></path>
        <path
            d="m916.25 264.73 1.74-.87c-1.74-3.45-3.58-6.91-5.47-10.29l-1.69 1c1.88 3.3 3.7 6.73 5.42 10.16z"
            fill="#fff"
        ></path>
        <path
            d="m925.71 285.84 1.8-.71c-1.42-3.59-2.94-7.21-4.52-10.74l-1.78.79c1.58 3.51 3.09 7.09 4.5 10.66z"
            fill="#fff"
        ></path>
        <path
            d="m940.8 329.74c-.77-3.77-1.65-7.59-2.59-11.36l-1.88.47c.94 3.74 1.8 7.54 2.57 11.28z"
            fill="#fff"
        ></path>
        <path
            d="m945.64 399.28c.24-3.86.41-7.78.48-11.64h-1.93c-.08 3.84-.24 7.72-.48 11.56z"
            fill="#fff"
        ></path>
        <path
            d="m946.09 376c-.1-3.86-.28-7.78-.55-11.63l-1.94.13c.27 3.83.46 7.72.55 11.55z"
            fill="#fff"
        ></path>
        <path
            d="m944.47 352.74c-.44-3.84-1-7.73-1.58-11.54l-1.92.31c.61 3.78 1.13 7.64 1.57 11.45z"
            fill="#fff"
        ></path>
        <path
            d="m943.35 278.4h-63.82v-45.59h63.82z"
            fill="#fff"
        ></path>
    </g>
    <path
        d="m591.83 148.29h58.63v34.84h-58.63z"
        fill="#fc6443"
    ></path>
    <path
        d="m591.83 186.09h44.64v3.03h-44.64z"
        fill="#161d21"
    ></path>
    <path
        d="m910 263.61a10 10 0 1 1 9.95-10 10 10 0 0 1 -9.95 10zm0-19.32a9.36 9.36 0 1 0 9.36 9.36 9.37 9.37 0 0 0 -9.36-9.36z"
        fill="#fff"
        transform="translate(-290.29 -87.26)"
    ></path>
    <path
        d="m626.55 166.39-5.25 3.03-5.25 3.03v-6.06-6.06l5.25 3.03z"
        fill="#fff"
    ></path>
    <path
        d="m892.19 274.87a1.52 1.52 0 0 1 -1.52 1.51h-5.17a1.52 1.52 0 0 1 -1.52-1.51 1.52 1.52 0 0 1 1.52-1.52h5.17a1.53 1.53 0 0 1 1.52 1.52z"
        fill="#fff"
        transform="translate(-290.29 -87.26)"
    ></path>
    <path d="m639.68 186.47h.71v2.28h-.71z" fill="#161d21"></path>
    <path
        d="m642.16 189.96-1.59-1.21v-2.28l1.59-1.22z"
        fill="#161d21"
    ></path>
    <path
        d="m644.55 185.25h5.38v4.63h-5.38z"
        fill="#161d21"
    ></path>
    <path
        d="m702.62 264.49-59.12.18v45.84l59.12-.17z"
        fill="#fff"
    ></path>
    <path
        d="m991 395.42h-55.28v-41.17l55.26-.13zm-54.18-1.08h53.09v-39.14l-53.09.13z"
        fill="#00abed"
        transform="translate(-290.29 -87.26)"
    ></path>
    <path
        d="m699.3 307.62-12.58-12.15-10.77 6.74-14.85-10.85-14.28 16.26z"
        fill="#00abed"
    ></path>
    <path
        d="m976.32 372.5a5.23 5.23 0 1 1 -5.24-5.21 5.22 5.22 0 0 1 5.24 5.21z"
        fill="#ffd13b"
        transform="translate(-290.29 -87.26)"
    ></path>
    <path
        d="m569.93 373.34h65.79v42.86h-65.79z"
        fill="#161d21"
    ></path>
    <path
        d="m569.93 379.69h65.79v30.15h-65.79z"
        fill="#c0bbbb"
    ></path>
    <path
        d="m893.17 490.64a8.62 8.62 0 1 1 8.62-8.61 8.63 8.63 0 0 1 -8.62 8.61zm0-16.72a8.11 8.11 0 1 0 8.11 8.11 8.12 8.12 0 0 0 -8.11-8.11z"
        fill="#fff"
        transform="translate(-290.29 -87.26)"
    ></path>
    <path
        d="m608.83 394.77-4.54 2.62-4.54 2.62v-5.24-5.25l4.54 2.62z"
        fill="#fff"
    ></path>
    <g fill="#fff" opacity=".4">
        <path d="m572.55 374.94h3.15v3.15h-3.15z"></path>
        <path d="m578.94 374.94h3.15v3.15h-3.15z"></path>
        <path d="m585.33 374.94h3.15v3.15h-3.15z"></path>
        <path d="m591.72 374.94h3.15v3.15h-3.15z"></path>
        <path d="m598.11 374.94h3.15v3.15h-3.15z"></path>
        <path d="m604.5 374.94h3.15v3.15h-3.15z"></path>
        <path d="m610.88 374.94h3.15v3.15h-3.15z"></path>
        <path d="m617.27 374.94h3.15v3.15h-3.15z"></path>
        <path d="m623.66 374.94h3.15v3.15h-3.15z"></path>
        <path d="m630.05 374.94h3.15v3.15h-3.15z"></path>
        <path d="m572.55 411.24h3.15v3.15h-3.15z"></path>
        <path d="m578.94 411.24h3.15v3.15h-3.15z"></path>
        <path d="m585.33 411.24h3.15v3.15h-3.15z"></path>
        <path d="m591.72 411.24h3.15v3.15h-3.15z"></path>
        <path d="m598.11 411.24h3.15v3.15h-3.15z"></path>
        <path d="m604.5 411.24h3.15v3.15h-3.15z"></path>
        <path d="m610.88 411.24h3.15v3.15h-3.15z"></path>
        <path d="m617.27 411.24h3.15v3.15h-3.15z"></path>
        <path d="m623.66 411.24h3.15v3.15h-3.15z"></path>
        <path d="m630.05 411.24h3.15v3.15h-3.15z"></path>
    </g>
    <path
        d="m815.16 276.47a14.54 14.54 0 1 1 -14.54-14.54 14.54 14.54 0 0 1 14.54 14.54z"
        fill="#fff"
        transform="translate(-290.29 -87.26)"
    ></path>
    <path
        d="m818.23 272.75a17.91 17.91 0 0 0 -3-6.82l2.14-2.25-4.75-4.54-2.15 2.26a17.67 17.67 0 0 0 -7-2.69l-.07-3.11-6.57.16.08 3.11a17.73 17.73 0 0 0 -6.83 3l-2.26-2.15-4.53 4.76 2.26 2.14a17.94 17.94 0 0 0 -2.69 7l-3.11.08.16 6.57 3.11-.08a18 18 0 0 0 3 6.83l-2.15 2.25 4.76 4.53 2.15-2.25a17.82 17.82 0 0 0 7 2.68l.08 3.12 6.57-.16-.08-3.12a17.85 17.85 0 0 0 6.83-3l2.25 2.14 4.53-4.75-2.25-2.15a18 18 0 0 0 2.69-7l3.11-.07-.16-6.57zm-6.23 3.44a11.38 11.38 0 1 1 -11.62-11.06 11.37 11.37 0 0 1 11.62 11.06z"
        fill="#161d21"
        transform="translate(-290.29 -87.26)"
    ></path>
    <path
        d="m506.43 195.97-3.9-6.76 3.9-6.75h7.8l3.9 6.75-3.9 6.76z"
        fill="#00abed"
    ></path>
    <path
        d="m600.67 384.58a21.83 21.83 0 1 0 21.83-21.82 21.83 21.83 0 0 0 -21.83 21.82z"
        fill="#fc6443"
        transform="translate(-290.29 -87.26)"
    ></path>
    <path
        d="m605.21 384.58a17.29 17.29 0 1 0 17.29-17.28 17.29 17.29 0 0 0 -17.29 17.28z"
        fill="#fff"
        transform="translate(-290.29 -87.26)"
    ></path>
    <path
        d="m609.39 384.58a13.11 13.11 0 1 0 13.11-13.1 13.11 13.11 0 0 0 -13.11 13.1z"
        fill="#fc6443"
        transform="translate(-290.29 -87.26)"
    ></path>
    <path
        d="m613.35 384.66a9.15 9.15 0 1 0 9.15-9.15 9.15 9.15 0 0 0 -9.15 9.15z"
        fill="#fff"
        transform="translate(-290.29 -87.26)"
    ></path>
    <path
        d="m618.11 384.37a4.39 4.39 0 1 0 4.39-4.37 4.39 4.39 0 0 0 -4.39 4.37z"
        fill="#fc6443"
        transform="translate(-290.29 -87.26)"
    ></path>
    <path
        d="m371 294.11h-9.87l-1.5 2.56h-27.82-.01v1.3h.01 27.81l1.53 2.56h9.84l-2.32-3.18z"
        fill="#161d21"
    ></path>
    <path
        d="m659 384.61h-36.91v.65h27.83l1.53 2.56h9.84z"
        fill="#161d21"
        opacity=".1"
        transform="translate(-290.29 -87.26)"
    ></path>
    <path
        d="m357.7 237.86-8.76-4.31 46.57-10.7z"
        fill="#fff"
    ></path>
    <path
        d="m358.68 248.97-.98-11.11 37.81-15.01z"
        fill="#d1d3d4"
    ></path>
    <path
        d="m358.68 248.97 4.79-7.05 8.92 2.9z"
        fill="#58595b"
    ></path>
    <path
        d="m369.9 254.22-6.43-12.3 32.04-19.07z"
        fill="#fff"
    ></path>
    <g mask="url(#a)">
        <path
            d="m852.44 307.69h-21.44c-8.28 3.53-7.78 28.1-3.63 39.54-1.77.7-4.87-1.19-5.76-2.38-.4.61-.36 2.51.49 4.17a8.59 8.59 0 0 1 -1.36-1.07c-1.12 2.47-.16 10.37 16.43 6.19 4-1 .72-6.34 1-12.37a16.79 16.79 0 0 1 -4.56-9.46c-2.37-1.65-3.1-4.95-3.92-8.16 11.77 1 20.71-3.35 25.12-10.76 2.24 2.79-6.94 24.52-6.53 32.78 0 5.94-1.1 8 4.13 8.74 15.47-24.37 9.23-43.69.03-47.22z"
            fill="#161d21"
            fill-rule="evenodd"
            transform="translate(-290.29 -87.26)"
        ></path>
        <path
            d="m842.71 351.67a10.8 10.8 0 0 0 9.25-5.24 4.53 4.53 0 0 1 -2.51-2.22v-10.59a11 11 0 0 1 -6.45 2.26 11.21 11.21 0 0 1 -7.18-2.83v11.57a4.5 4.5 0 0 1 -2.31 1.9 10.8 10.8 0 0 0 9.2 5.15z"
            fill="#ebb1a3"
            transform="translate(-290.29 -87.26)"
        ></path>
        <path
            d="m853.93 310.64-26 .18 2.22 16.92a15.21 15.21 0 0 0 5.37 11.26c2.07 1.76 4.57 3.42 7.18 3.42 2.3 0 4.53-1.43 6.45-2.84 3.57-2.63 4.28-7.21 4.28-11.87l1.07-7.86c-.84-2.98-.27-6.09-.57-9.21z"
            fill="#edbda9"
            transform="translate(-290.29 -87.26)"
        ></path>
        <path
            d="m828.31 329.09c0 1 2 3.41 3.05 3.41v-1c1 0 .69-2 .69-3.07v-3.14a1.88 1.88 0 0 0 -1.89-1.89c-1 0-2.27.58-2.27 1.62z"
            fill="#edbda9"
            transform="translate(-290.29 -87.26)"
        ></path>
        <path
            d="m833 316.09a11.81 11.81 0 0 0 -.88-3.28s-.19-.44-.41-.84-.46-.75-.46-.75l-1.5 14.78a10.34 10.34 0 0 0 2.07-2.75 10.7 10.7 0 0 0 1-3.34 13 13 0 0 0 .18-3.82z"
            fill="#ebb1a3"
            transform="translate(-290.29 -87.26)"
        ></path>
        <path
            d="m852.19 307.69s-3.81-3.08-13.19-3.08c-4.21 0-7.83 3.08-7.83 3.08l-.17.22c-5 .9-6.4 12.92-1.25 18.06 2.36-3.9 1.49-7.59 2.36-10.36 3.08 5 15.65-6.58 21.88 16.46 6.52-10.89 3.81-19.52-1.8-24.38z"
            fill="#161d21"
            fill-rule="evenodd"
            transform="translate(-290.29 -87.26)"
        ></path>
        <path
            d="m851.92 346a12.9 12.9 0 0 1 -17.91-.09c-9.54 1.69-16.33 6.08-16.33 11.22 0 6.61 11.21 12 25.05 12s25.06-5.35 25.06-12c0-5.03-6.58-9.35-15.87-11.13z"
            fill="#f76031"
            transform="translate(-290.29 -87.26)"
        ></path>
    </g>
    <g mask="url(#b)">
        <path
            d="m783.69 407.58c-.5.38-5.79 4.2-7.05 9.46-.55 2.31 1 13.74 1.05 16.2.06 1.29 1.35-.48 2.18.38-.15-1.49 10.78-11.35 13-11.87 1.52-.35 12.19 7.14 12.1 8.76-.07 1.14.27 2 .18 3.1l.23.12c.31-.77 1.86-.94 2-1.75a54 54 0 0 0 -.21-12c-.85-9.26-5.85-10.36-11-10.57-12.75-.51-10.79-3.09-12.48-1.83z"
            fill="#161d21"
            transform="translate(-290.29 -87.26)"
        ></path>
        <path
            d="m809.25 432c-.17-.57-.69-1.36-1.14-1.43s-1.14.55-1.54 1a10.85 10.85 0 0 0 -1 2.06c0-.56 0-.79 0-1q-.66-5.62-1.3-11.25a1.66 1.66 0 0 0 -1.62-1.7 22.42 22.42 0 0 0 -3.75-.11 17.05 17.05 0 0 0 -6 2.2c-.27.14-.54.28-.82.4a9.33 9.33 0 0 1 -8.3.31c-.76-.34-1.55-.64-2.56-1.06-.52 3.88-1 7.63-1.54 11.47a5.62 5.62 0 0 0 -.82-1.42 2.34 2.34 0 0 0 -1.46-.74c-.33 0-.82.63-.93 1.06a7.66 7.66 0 0 0 1 6.33c.24.38 2.1 1.39 2.25 1.68.63 1.25.9 2.39 1.52 3.64.43.88.85 1.75 1.27 2.63 0 .1.1.19.14.29a8.48 8.48 0 0 1 .4 1.05h20.15a8.26 8.26 0 0 1 .28-1.06 19.31 19.31 0 0 0 2.52-6.66c0-.28.86-.46 1.07-.66.51-.49 1.23-.85 1.53-1.43a7.34 7.34 0 0 0 .65-5.6z"
            fill="#edbda9"
            transform="translate(-290.29 -87.26)"
        ></path>
        <path
            d="m802.49 456.77c-.6-.93 0-5.67.53-8.5h-19.78c.79 2.9 1.53 7.67.45 9.11-.25.34-3.36 1.47-4.18 2.5l21.79 4.7c-1.5-1 2.61-5.58 1.19-7.81z"
            fill="#edbda9"
            transform="translate(-290.29 -87.26)"
        ></path>
        <path
            d="m802.71 456.63c-.55-.84-.05-6.44.49-9.24l-20.27-.56c.77 2.84 1.57 9 .56 10.39a7 7 0 0 1 -1.1.59 10.41 10.41 0 0 0 -3.08 1.91l-.25.33 23.49 5.06-1.11-.74c-.54-.36 0-1.59.56-2.9.71-1.66 1.53-3.55.71-4.84z"
            fill="#ebb1a3"
            transform="translate(-290.29 -87.26)"
        ></path>
        <path
            d="m803.74 453.29a15.34 15.34 0 0 1 -21.28-.1c-11.33 2-19.41 7.22-19.41 13.33 0 7.85 13.33 14.22 29.78 14.22s29.77-6.37 29.77-14.22c0-6.01-7.82-11.15-18.86-13.23z"
            fill="#aee3f9"
            transform="translate(-290.29 -87.26)"
        ></path>
        <path
            d="m809.49 431.93c-.18-.62-.75-1.52-1.35-1.61h-.14c-.67 0-1.43.85-1.65 1.11a4.72 4.72 0 0 0 -.65 1.15c-.13-1.16-.27-2.32-.4-3.47-.3-2.54-.61-5.18-.89-7.77a1.93 1.93 0 0 0 -1.86-1.93h-.25c-.8-.07-1.63-.13-2.45-.13-.39 0-.75 0-1.09 0a15.63 15.63 0 0 0 -5.6 2l-.48.24-.82.4a10.28 10.28 0 0 1 -4.48 1.12 8.77 8.77 0 0 1 -3.61-.81c-.51-.23-1-.44-1.62-.68l-.95-.38-.3-.13-1.47 11a2.49 2.49 0 0 0 -.5-.73 2.66 2.66 0 0 0 -1.65-.82c-.49 0-1 .77-1.17 1.26a7.9 7.9 0 0 0 1.05 6.53 5.48 5.48 0 0 0 1.27 1 7.32 7.32 0 0 1 1 .69 18.24 18.24 0 0 1 .78 1.85 18 18 0 0 0 .74 1.79l.84 1.73a15.29 15.29 0 0 0 3.41 4.65c2.84 2.15 5.32 4 8.35 4a11.84 11.84 0 0 0 7.51-3.31c3-2.71 3.24-4.61 4-6.71a19.21 19.21 0 0 0 1.23-4.14 1.83 1.83 0 0 1 .49-.26 1.81 1.81 0 0 0 .51-.29c.17-.15.36-.29.55-.45a3.36 3.36 0 0 0 1-1.05 7.54 7.54 0 0 0 .65-5.85z"
            fill="#edbda9"
            transform="translate(-290.29 -87.26)"
        ></path>
    </g>
    <g mask="url(#c)">
        <path
            d="m706 346.21c-.6 0-7.1.51-6.48 8.05.31 3.79 1.47 7.29 1.57 9.43 0 1.12 10.15-7.79 12.33-8.24 1.52-.31 10.26 6.9 10.16 8.31-.07 1 1.13 1.88 1.21 1.92.3-.68 3.74-10.46 1.57-13.88-2.46-3.28-3.59-8.85-10.14-8.13-5.61.61-6.6 2.54-10.22 2.54z"
            fill="#161d21"
            transform="translate(-290.29 -87.26)"
        ></path>
        <path
            d="m701.87 387.92 18.94 4.08c-1.3-.87 5.19-4.68 3.77-6.49-1.91-2.44-2.31-8.18-1.87-9.38a10.83 10.83 0 0 1 -18.29-.24l.12.25c.74 1.54.67 7.59-1 8.73-3.35 2.28-.97 2.13-1.67 3.05z"
            fill="#edbda9"
            transform="translate(-290.29 -87.26)"
        ></path>
        <path
            d="m727.33 362.07c-.42-.06-1 .47-1.39.88a9.26 9.26 0 0 0 -.94 1.78c0-.47 0-1.74 0-1.94-.27-2.26 1.77-7.57-1.2-9.51-2.73-1.07-5.28 1.27-9.79 1.27-3.88.67-7.93-2.94-10.8-1.27-2.08 1.21-1.19 9.79-1.44 9.55a2.19 2.19 0 0 0 -1.32-.64c-.29 0-.74.55-.84.92-.51 1.95.19 7.31 1.63 7.27s1.75-.59 1.79-.3c.44 3.2.09 2.15.41 4.4.91 6.52 10.26 7.26 10.34 7.26 3.91 0 9.71-1.68 10.47-7a14.56 14.56 0 0 1 .16-4.73c0-.25 1.56 1.16 2.38.12.53-.67 2.13-5.12 1.61-6.8-.2-.51-.67-1.2-1.07-1.26z"
            fill="#edbda9"
            transform="translate(-290.29 -87.26)"
        ></path>
        <path
            d="m724.53 368.84a9.54 9.54 0 0 1 -4.77 3.38c-2.19.57-.58-2.86-6-3.28h-.3c-3.41.42-2.81 1.6-4.27 2.59a3 3 0 0 1 -2.75.4c-1.85-.73-2.54-2.13-3.49-3.72-.24 1.1.16 5.38.48 7.63.91 6.53 10.26 8.68 10.34 8.68 3.91 0 9.71-3.1 10.47-8.43a63.21 63.21 0 0 0 .29-7.25zm-6.83 4.72c-1.18 1-6.92 1-8.11 0-.2-.17 1.48-.79 1.64-.86a4.75 4.75 0 0 1 5-.05c.17.12 1.65.75 1.47.91z"
            fill="#161d21"
            transform="translate(-290.29 -87.26)"
        ></path>
        <path
            d="m724.07 384a14.7 14.7 0 0 1 -20.41-.1c-10.88 1.93-18.62 6.92-18.62 12.79 0 7.53 12.78 13.63 28.55 13.63s28.56-6.1 28.56-13.63c0-5.69-7.49-10.69-18.08-12.69z"
            fill="url(#d)"
            transform="translate(-290.29 -87.26)"
        ></path>
    </g>
    <path
        d="m744 299.27a19 19 0 1 1 -19.05-19 19.05 19.05 0 0 1 19.05 19z"
        fill="#fc6443"
        transform="translate(-290.29 -87.26)"
    ></path>
    <path
        d="m724.92 318.52a19.26 19.26 0 1 1 19.26-19.25 19.27 19.27 0 0 1 -19.26 19.25zm0-38.09a18.84 18.84 0 1 0 18.84 18.84 18.86 18.86 0 0 0 -18.84-18.84z"
        fill="#fff"
        transform="translate(-290.29 -87.26)"
    ></path>
    <path
        d="m736.06 299.27c0 10.52-5 19.05-11.14 19.05s-11.14-8.53-11.14-19.05 5-19 11.14-19 11.14 8.48 11.14 19z"
        fill="#fc6443"
        transform="translate(-290.29 -87.26)"
    ></path>
    <path
        d="m724.92 318.52c-6.26 0-11.35-8.63-11.35-19.25s5.09-19.27 11.35-19.27 11.35 8.64 11.35 19.26-5.09 19.26-11.35 19.26zm0-38.09c-6 0-10.93 8.45-10.93 18.84s4.9 18.84 10.93 18.84 10.93-8.45 10.93-18.84-4.85-18.84-10.93-18.84z"
        fill="#fff"
        transform="translate(-290.29 -87.26)"
    ></path>
    <path d="m434.63 192.98v37.85" fill="url(#e)"></path>
    <path d="m434.42 192.98h.42v37.85h-.42z" fill="#fff"></path>
    <path d="m452.59 218.45h-35.92" fill="url(#f)"></path>
    <path d="m416.67 218.24h35.92v.42h-35.92z" fill="#fff"></path>
    <path d="m452.59 205.66h-35.92" fill="url(#g)"></path>
    <path d="m416.67 205.46h35.92v.42h-35.92z" fill="#fff"></path>
    <path
        d="m669.38 414.76a11.16 11.16 0 1 0 11.16 11.16 11.18 11.18 0 0 0 -11.16-11.16z"
        fill="#ffd13b"
        transform="translate(-290.29 -87.26)"
    ></path>
    <path
        d="m673.09 426.36a5.9 5.9 0 0 0 -3.16-1.39l-1-.22a3.36 3.36 0 0 1 -1.43-.7 1.94 1.94 0 0 1 -.54-1.52 2.11 2.11 0 0 1 2-2.3 2.83 2.83 0 0 1 .49 0 3 3 0 0 1 .51.05 2 2 0 0 1 1.84 2h1.83c-.21-2.11-1.44-3.24-3.67-3.41v-1.44h-1v1.44a4.36 4.36 0 0 0 -2.77 1.18 3.57 3.57 0 0 0 -1 2.66q0 2.94 3.8 3.71l1 .22a3.46 3.46 0 0 1 1.72.86 2.23 2.23 0 0 1 .45 1.51 2.32 2.32 0 0 1 -2.17 2.65 4.08 4.08 0 0 1 -.46 0c-.26 0-.54 0-.54 0a2.64 2.64 0 0 1 -2.27-2.7h-1.82q.27 3.7 4.09 4.13v1.42h1v-1.51a4 4 0 0 0 2.93-1.32 4.21 4.21 0 0 0 1.06-2.86 3.53 3.53 0 0 0 -.89-2.46z"
        fill="#fff"
        transform="translate(-290.29 -87.26)"
    ></path>
    <path
        d="m1014 407.62a11.16 11.16 0 1 0 11.16 11.16 11.17 11.17 0 0 0 -11.16-11.16z"
        fill="#ffd13b"
        transform="translate(-290.29 -87.26)"
    ></path>
    <path
        d="m1017.66 419.22a5.86 5.86 0 0 0 -3.16-1.4l-1-.21a3.47 3.47 0 0 1 -1.44-.71 1.93 1.93 0 0 1 -.54-1.52 2.13 2.13 0 0 1 2-2.3 4.44 4.44 0 0 1 .48 0 3 3 0 0 1 .51.05 2 2 0 0 1 1.84 2h1.83c-.21-2.1-1.44-3.24-3.67-3.4v-1.44h-1v1.44a4.35 4.35 0 0 0 -2.78 1.17 3.62 3.62 0 0 0 -1 2.67c0 2 1.27 3.19 3.81 3.71l1 .22a3.46 3.46 0 0 1 1.72.86 2.2 2.2 0 0 1 .45 1.5c0 1.6-.72 2.48-2.17 2.65a2.91 2.91 0 0 1 -.46 0 4.17 4.17 0 0 1 -.53 0 2.64 2.64 0 0 1 -2.28-2.69h-1.82c.18 2.47 1.54 3.84 4.1 4.12v1.43h1v-1.45a4 4 0 0 0 2.93-1.31 4.22 4.22 0 0 0 1.07-2.86 3.51 3.51 0 0 0 -.89-2.53z"
        fill="#fff"
        transform="translate(-290.29 -87.26)"
    ></path>
    <path
        d="m974.78 441.59a11.16 11.16 0 1 0 11.16 11.16 11.17 11.17 0 0 0 -11.16-11.16z"
        fill="#ffd13b"
        transform="translate(-290.29 -87.26)"
    ></path>
    <path
        d="m978.49 453.18a6 6 0 0 0 -3.16-1.39l-1-.21a3.47 3.47 0 0 1 -1.44-.71 1.93 1.93 0 0 1 -.54-1.52 2.11 2.11 0 0 1 2-2.3 2.67 2.67 0 0 1 .48 0 3 3 0 0 1 .51.05 1.94 1.94 0 0 1 1.83 2h1.83c-.21-2.1-1.44-3.24-3.67-3.4v-1.44h-1v1.44a4.35 4.35 0 0 0 -2.78 1.17 3.58 3.58 0 0 0 -1 2.67c0 1.95 1.27 3.19 3.81 3.7l1 .22a3.46 3.46 0 0 1 1.72.87 2.2 2.2 0 0 1 .45 1.5c0 1.6-.72 2.48-2.17 2.65a3.08 3.08 0 0 1 -.46 0 4.17 4.17 0 0 1 -.53 0 2.64 2.64 0 0 1 -2.28-2.69h-1.82c.18 2.47 1.54 3.84 4.1 4.12v1.43h1v-1.45a4 4 0 0 0 2.93-1.31 4.24 4.24 0 0 0 1.07-2.87 3.53 3.53 0 0 0 -.88-2.53z"
        fill="#fff"
        transform="translate(-290.29 -87.26)"
    ></path>
    <path
        d="m476.13 219.32 2.95 5.97 6.58.96-4.76 4.64 1.12 6.57-5.89-3.1-5.89 3.1 1.12-6.57-4.76-4.64 6.59-.96z"
        fill="#fff"
    ></path>
    <path
        d="m608.37 288.35 2.95 5.96 6.58.96-4.76 4.65 1.12 6.56-5.89-3.1-5.89 3.1 1.12-6.56-4.76-4.65 6.58-.96z"
        fill="#fff"
    ></path>
    <path
        d="m434.29 340.75 2.95 5.97 6.58.96-4.76 4.64 1.13 6.57-5.9-3.1-5.89 3.1 1.13-6.57-4.77-4.64 6.59-.96z"
        fill="#fff"
    ></path>
    <path
        d="m765.9 352.72h-3.9v22.6h3.94a1.64 1.64 0 0 0 1.63-1.64v-19.33a1.63 1.63 0 0 0 -1.67-1.63z"
        fill="#fff"
        transform="translate(-290.29 -87.26)"
    ></path>
    <path
        d="m800.05 360.84h-.93-1.16-1.87v-.61h2.1c1.26 0 2-.76 2-2.14s-.65-2.52-1.91-2.56h-5.28l-7.32-.28 2.46-7.24c.56-2.25.62-3.27-.37-4.37a2.51 2.51 0 0 0 -3.65-.21l-.87 3.19s-3.1 5.74-4.67 7.16-6.18 2-6.18 2h-.27v16.91h2.46c.54.44 5.52 2.42 6.46 2.94 1.17.64 12.13.3 12.13.3l2.59.07h.74a1.87 1.87 0 0 0 1.76-2c0-1.38-.56-1.93-1.33-2h-.4v-.61h.07 1.15.24c.78 0 1.44-1.08 1.47-2.46s-.55-2.52-1.33-2.54h-.26-1.15-.07v-.61h1.14 1.16.93c.77 0 1.43-1.07 1.47-2.45s-.53-2.47-1.31-2.49z"
        fill="#fff"
        transform="translate(-290.29 -87.26)"
    ></path>
    <path
        d="m767.71 352.72h-4.51v22.6h4.51a1.65 1.65 0 0 0 1.63-1.64v-19.33a1.64 1.64 0 0 0 -1.63-1.63z"
        fill="#161d21"
        transform="translate(-290.29 -87.26)"
    ></path>
    <path
        d="m768.2 371.43a1.81 1.81 0 1 1 -1.8-1.81 1.8 1.8 0 0 1 1.8 1.81z"
        fill="#fff"
        transform="translate(-290.29 -87.26)"
    ></path>
    <path
        d="m887.73 310.22c1 0 4.71.22 9.59.61v11.49c-4.88.39-8.61.61-9.59.61a6.36 6.36 0 0 1 0-12.71z"
        fill="#161d21"
        transform="translate(-290.29 -87.26)"
    ></path>
    <path
        d="m915.71 316.57a5.51 5.51 0 1 0 5.51-5.5 5.51 5.51 0 0 0 -5.51 5.5z"
        fill="#161d21"
        transform="translate(-290.29 -87.26)"
    ></path>
    <path
        d="m607.81 249.12h5.81l-4.82-18.11h-5.99z"
        fill="#161d21"
    ></path>
    <path d="m641.28 228.66h6.45v1.5h-6.45z" fill="#fff"></path>
    <path
        d="m647.73 236.79-5.98-3.88-.82 1.26 6.8 4.41z"
        fill="#fff"
    ></path>
    <path
        d="m647.73 220.12-6.8 4.42.82 1.26 5.98-3.89z"
        fill="#fff"
    ></path>
    <path
        d="m892.23 310v13.09a47.38 47.38 0 0 1 10.2 1.64v-17.09a81.69 81.69 0 0 1 -10.2 2.36z"
        fill="#fc6443"
        transform="translate(-290.29 -87.26)"
    ></path>
    <path
        d="m905.38 306.7c-1 .35-2 .66-3 .94v17.12c1 .25 1.94.54 3 .88a84 84 0 0 1 13.16 6.3v-30.73s-7.72 3.67-13.16 5.49z"
        fill="#fff"
        transform="translate(-290.29 -87.26)"
    ></path>
    <path
        d="m627.4 211.48h4.01v35.66h-4.01z"
        fill="#fc6443"
    ></path>
    <path
        d="m366.3 465.6-12.55-.47 1.65-18.48 49.54 5.23 3.83.52.55-.06 2.06.22c.81.58 13.94 2.3 13.94 2.3 6.19 2.17 22.36-10 27-4.82 1.5 1.67 1.05 5.08-2.35 7l-34.25 11.96h-.2s-9.38 4.3-17.26 5a34.33 34.33 0 0 1 -14.86-2z"
        fill="#e6b69d"
        transform="translate(-290.29 -87.26)"
    ></path>
    <path
        d="m366.69 293.08-12.56-.23.61 18.53 49.75-2.38 3.86-.31.54.09 2.07-.1c.84-.54 14.05-1.52 14.05-1.52 6.29-1.81 21.76 11.21 26.66 6.33 1.59-1.58 1.34-5-1.95-7.14l-33.5-13.8h-.2s-9.13-4.83-17-6a34.1 34.1 0 0 0 -14.94 1.17z"
        fill="#e6b69d"
        transform="translate(-290.29 -87.26)"
    ></path>
    <path
        d="m205.78 219.05h20.66v37.3h-20.66z"
        fill="#fff"
    ></path>
    <path
        d="m205.78 331.52h20.66v37.29h-20.66z"
        fill="#fff"
    ></path>
    <path
        d="m498.31 418.78h-61.94a36.52 36.52 0 0 1 -36.48-36.48v-2.22a36.52 36.52 0 0 1 36.48-36.48h61.94v-37.29h-61.94a73.86 73.86 0 0 0 -73.78 73.77v2.22a73.86 73.86 0 0 0 73.78 73.77h61.94z"
        fill="#fc6443"
        transform="translate(-290.29 -87.26)"
    ></path>
    <path
        d="m354.42 466-1.29-28.14c3.8-.31 8.94-2.75 12.08-3.68 5.88-1.75 12.23-3 17.55-2.73 9.79 0 18.6 4.34 18.69 4.3l25 .91c5.84-.58 9.76.56 11 2.76 2.09 3.8 1.66 7.6-1.9 10.11l-30.55 2.08s-8.34 3.52-21.38 1.08l-16.95 7.67c-4.58 2.21-8.67 4.07-12.25 5.64z"
        fill="#e6b69d"
        transform="translate(-290.29 -87.26)"
    ></path>
    <path
        d="m429.08 441a22.46 22.46 0 0 0 -.42 3.91 12.77 12.77 0 0 0 .42 3.08h5.21a5.13 5.13 0 0 0 1.13-3.59 5.59 5.59 0 0 0 -1.13-3.4z"
        fill="#fff"
        opacity=".4"
        transform="translate(-290.29 -87.26)"
    ></path>
    <rect
        fill="#fff"
        height="49.94"
        rx="3.82"
        width="18.05"
        x="47.28"
        y="343.7"
    ></rect>
    <path
        d="m290.29 485.78h49.87a3.83 3.83 0 0 0 3.84-3.78v-51.4a3.83 3.83 0 0 0 -3.82-3.82h-49.89z"
        fill="#161d21"
        transform="translate(-290.29 -87.26)"
    ></path>
    <path
        d="m348.47 435.76a2 2 0 1 1 2 1.87 1.95 1.95 0 0 1 -2-1.87z"
        fill="#161d21"
        transform="translate(-290.29 -87.26)"
    ></path>
    <path
        d="m354.42 293.93-1.29 28.15c3.8.31 8.94 2.75 12.08 3.69 5.88 1.74 12.23 3 17.55 2.72 9.79 0 18.6-4.33 18.69-4.3l25-.91c5.84.58 9.76-.55 11-2.76 2.09-3.8 1.66-7.6-1.9-10.11l-30.55-2.08s-8.34-3.52-21.38-1.08l-16.95-7.67c-4.58-2.18-8.67-4.05-12.25-5.65z"
        fill="#e6b69d"
        transform="translate(-290.29 -87.26)"
    ></path>
    <path
        d="m429.08 319a22.46 22.46 0 0 1 -.42-3.91 12.77 12.77 0 0 1 .42-3.08h5.21a5.13 5.13 0 0 1 1.13 3.59 5.59 5.59 0 0 1 -1.13 3.4z"
        fill="#fff"
        opacity=".4"
        transform="translate(-290.29 -87.26)"
    ></path>
    <rect
        fill="#fff"
        height="49.94"
        rx="3.82"
        width="18.05"
        x="47.28"
        y="191.8"
    ></rect>
    <path
        d="m290.29 333.18h49.87a3.83 3.83 0 0 0 3.82-3.82v-51.36a3.83 3.83 0 0 0 -3.82-3.82h-49.87z"
        fill="#161d21"
        transform="translate(-290.29 -87.26)"
    ></path>
    <path
        d="m348.47 324.2a2 2 0 1 0 2-1.86 1.95 1.95 0 0 0 -2 1.86z"
        fill="#161d21"
        transform="translate(-290.29 -87.26)"
    ></path>
    <path
        d="m260.49 222.4 4.9 5.57 8.33-8 3.91 4.66 20.28-17.44-19.47 10.83-5.38-6.12-8.08 8.31-3.69-4.42-20.34 17.86z"
        fill="#fff"
    ></path>
    <path
        d="m260.49 251.77 4.9-5.57 8.33 8 3.91-4.66 20.28 17.44-19.47-10.83-5.38 6.12-8.08-8.31-3.69 4.42-20.34-17.85z"
        fill="#fff"
    ></path>
    <path
        d="m260.49 334.13 4.9 5.57 8.33-8 3.91 4.67 20.28-17.45-19.47 10.83-5.38-6.12-8.08 8.31-3.69-4.42-20.34 17.86z"
        fill="#fff"
    ></path>
    <path
        d="m260.49 363.5 4.9-5.57 8.33 8 3.91-4.66 20.28 17.44-19.47-10.83-5.38 6.12-8.08-8.31-3.69 4.42-20.34-17.85z"
        fill="#fff"
    ></path>
    <path
        d="m919.67 417.3 5.08-5.09a17.94 17.94 0 0 0 -14.19-7v7.08a10.9 10.9 0 0 1 9.11 5.01z"
        fill="#ffd13b"
        transform="translate(-290.29 -87.26)"
    ></path>
    <path
        d="m899.6 423.14a10.89 10.89 0 0 1 10.81-10.89v-7.08a18 18 0 0 0 -10.85 32.24l5.08-5.09a10.87 10.87 0 0 1 -5.04-9.18z"
        fill="#fc6443"
        transform="translate(-290.29 -87.26)"
    ></path>
    <path
        d="m919.75 417.43a10.87 10.87 0 0 1 -9.19 16.6v7.08a18 18 0 0 0 14.29-28.78z"
        fill="#fff"
        transform="translate(-290.29 -87.26)"
    ></path>
    <path
        d="m904.78 432.4-5.1 5.1a17.92 17.92 0 0 0 10.73 3.61v-7.11a10.89 10.89 0 0 1 -5.63-1.6z"
        fill="#fc6443"
        transform="translate(-290.29 -87.26)"
    ></path>
    <path
        d="m1011.4 475.71c-2.56 0-4.84 2.24-6.28 4.05-1.45-1.81-3.73-4.05-6.29-4.05a7.76 7.76 0 0 0 -7.92 7.58c0 9.46 10.54 15.28 14.21 18.82 3.71-3.77 14.2-10.14 14.2-18.82a7.76 7.76 0 0 0 -7.92-7.58z"
        fill="#fc6443"
        transform="translate(-290.29 -87.26)"
    ></path>
    <path
        d="m981.55 489.08c-1.37 0-2.58 1.19-3.35 2.16-.78-1-2-2.16-3.36-2.16a4.14 4.14 0 0 0 -4.23 4c0 5.06 5.63 8.17 7.59 10.06 2-2 7.58-5.42 7.58-10.06a4.14 4.14 0 0 0 -4.23-4z"
        fill="#fc6443"
        transform="translate(-290.29 -87.26)"
    ></path>
    <path
        d="m971.18 286.46v20.69a6 6 0 0 0 6 6h33.82a6 6 0 0 0 6-6v-20.69z"
        fill="#161d21"
        transform="translate(-290.29 -87.26)"
    ></path>
    <path
        d="m679.32 196.45h48.88v5.08h-48.88z"
        fill="#f76031"
    ></path>
    <path
        d="m690.86 205.51h2.35v15.64h-2.35z"
        fill="#d1d3d4"
    ></path>
    <path
        d="m698.68 205.51h2.35v15.64h-2.35z"
        fill="#d1d3d4"
    ></path>
    <path
        d="m706.5 205.51h2.35v15.64h-2.35z"
        fill="#d1d3d4"
    ></path>
    <path
        d="m714.32 205.51h2.35v15.64h-2.35z"
        fill="#d1d3d4"
    ></path>
    <path
        d="m1001.81 285.65a.63.63 0 0 1 -.39.8l-1.66.56a.63.63 0 0 1 -.8-.4l-5.23-15.42a.62.62 0 0 1 .39-.8l1.66-.56a.62.62 0 0 1 .8.39z"
        fill="#161d21"
        transform="translate(-290.29 -87.26)"
    ></path>
    <path
        d="m986.29 285.65a.63.63 0 0 0 .4.8l1.66.56a.63.63 0 0 0 .8-.4l5.23-15.42a.62.62 0 0 0 -.39-.8l-1.66-.56a.62.62 0 0 0 -.8.39z"
        fill="#161d21"
        transform="translate(-290.29 -87.26)"
    ></path>
    <path
        d="m1034.45 346.78c-1.28 12.05-13 23.12-13 23.12s-12.33-11.56-13-23.12c-.44-7.26 5.75-13.17 13-13.17s13.77 5.93 13 13.17z"
        fill="#fc6443"
        transform="translate(-290.29 -87.26)"
    ></path>
    <circle cx="731.13" cy="258.79" fill="#fff" r="7.04"></circle>
    <path
        d="m991.07 211.92c14 0 25.36 8.3 25.36 18.53a14.63 14.63 0 0 1 -2.95 8.67l3.45 10.78-11.76-4.05a32.11 32.11 0 0 1 -14.1 3.14c-14 0-25.36-8.3-25.36-18.54s11.35-18.53 25.36-18.53z"
        fill="#fc6443"
        transform="translate(-290.29 -87.26)"
    ></path>
    <path
        d="m987.88 231.06a1.26 1.26 0 1 1 -1.26-1.26 1.25 1.25 0 0 1 1.26 1.26z"
        fill="#fff"
        transform="translate(-290.29 -87.26)"
    ></path>
    <path
        d="m992.05 231.06a1.26 1.26 0 1 1 -1.26-1.26 1.25 1.25 0 0 1 1.26 1.26z"
        fill="#fff"
        transform="translate(-290.29 -87.26)"
    ></path>
    <path
        d="m996.22 231.06a1.26 1.26 0 1 1 -1.22-1.26 1.25 1.25 0 0 1 1.22 1.26z"
        fill="#fff"
        transform="translate(-290.29 -87.26)"
    ></path>
    <path
        d="m822.75 386.68h45.53a2.11 2.11 0 0 1 2.11 2.11v22.06a2.1 2.1 0 0 1 -2.11 2.1h-2.55v5.66l-6.15-5.61h-36.83a2.1 2.1 0 0 1 -2.1-2.1v-22.11a2.11 2.11 0 0 1 2.1-2.11z"
        fill="#ffd13b"
        transform="translate(-290.29 -87.26)"
    ></path>
    <path
        d="m537.76 307.18h34.94v1.96h-34.94z"
        fill="#fff"
    ></path>
    <path
        d="m537.76 311.64h34.94v1.96h-34.94z"
        fill="#fff"
    ></path>
    <path
        d="m537.76 316.06h19.02v1.96h-19.02z"
        fill="#fff"
    ></path>
</svg>