<svg
    xmlns="http://www.w3.org/2000/svg"
    viewBox="0 0 655.29 601.81"
>
    <g
        fill="#fff"
        opacity=".5"
        transform="translate(-382.51 -82.72)"
    >
        <path
            d="m384.73 387.21a298.39 298.39 0 0 1 325-301.11l2.17-2c-5.65-.53-11.34-.93-17.06-1.15a300.89 300.89 0 0 0 -312.12 289.17c-.22 5.72-.26 11.42-.16 17.1z"></path>
        <path
            d="m941.35 232.73 1.61-1.49a304 304 0 0 0 -110.76-109.24l-1.68 1.56a299.09 299.09 0 0 1 110.83 109.17z"></path>
        <path
            d="m979.78 346.39c11.46 92.27-20 188.59-93.31 256.46-120.88 112-310.32 104.73-422.3-16.15a298 298 0 0 1 -51.37-76.25l-1.68 1.55a302 302 0 0 0 51.53 76.09 300.9 300.9 0 0 0 521.42-193 305 305 0 0 0 -2.27-50.6z"></path>
    </g>
    <g
        fill="#fff"
        opacity=".5"
        transform="translate(-382.51 -82.72)"
    >
        <path
            d="m466.19 264.56a247.1 247.1 0 0 1 33.62-47.2c89.8-99.16 242.19-108.63 343.56-22.82l1.33-1.46a249.63 249.63 0 0 0 -346.36 22.92 251.66 251.66 0 0 0 -34.48 48.53z"></path>
        <path
            d="m436.24 369.34h-2.11a254.23 254.23 0 0 0 -.13 26.66 247.87 247.87 0 0 0 75.68 167l1.33-1.46a247.38 247.38 0 0 1 -74.77-192.2z"></path>
        <path d="m903 264.56q-3.76-6.93-8-13.63l-1.45 1.6q3.69 5.93 7 12z"></path>
        <path
            d="m932.64 369.34h-2.11a246.81 246.81 0 0 1 -63.53 180.54c-75.91 83.82-196.55 103.54-293.27 55.8l-1.45 1.61a249.74 249.74 0 0 0 360.49-236c-.05-.66-.09-1.29-.13-1.95z"></path>
    </g>
    <g
        fill="#fff"
        opacity=".5"
        transform="translate(-382.51 -82.72)"
    >
        <path
            d="m784.47 631.75c3.64-1.53 7.3-3.15 10.86-4.83l-.84-1.79c-3.54 1.67-7.17 3.28-10.78 4.79z"></path>
        <path
            d="m466.66 543-1.58 1.18c2.35 3.16 4.81 6.31 7.3 9.36l1.53-1.25c-2.47-3.01-4.91-6.13-7.25-9.29z"></path>
        <path
            d="m453.44 523.54-1.69 1c2.06 3.35 4.23 6.7 6.44 10l1.64-1.11c-2.2-3.24-4.35-6.57-6.39-9.89z"></path>
        <path
            d="m424.77 459.05-1.9.56c1.11 3.79 2.32 7.6 3.59 11.33l1.87-.64c-1.26-3.7-2.46-7.48-3.56-11.25z"></path>
        <path
            d="m498 578.15-1.36 1.44c2.88 2.7 5.85 5.37 8.85 7.94l1.28-1.5c-2.94-2.55-5.89-5.2-8.77-7.88z"></path>
        <path
            d="m442 502.94-1.77.88c1.77 3.53 3.63 7.07 5.55 10.52l1.73-1c-1.93-3.34-3.78-6.9-5.51-10.4z"></path>
        <path
            d="m432.4 481.38-1.84.72c1.44 3.68 3 7.37 4.58 11l1.81-.8c-1.59-3.61-3.12-7.3-4.55-10.92z"></path>
        <path
            d="m762.15 639.92c3.76-1.19 7.54-2.48 11.25-3.84l-.68-1.85c-3.68 1.34-7.44 2.63-11.17 3.81z"></path>
        <path
            d="m715.53 648.25.25 2c3.92-.52 7.87-1.13 11.75-1.81l-.34-1.95c-3.86.64-7.78 1.25-11.66 1.76z"></path>
        <path
            d="m738.77 644.15.42 1.93c3.86-.85 7.74-1.8 11.55-2.82l-.51-1.91c-3.78 1.01-7.64 1.95-11.46 2.8z"></path>
        <path
            d="m515.92 593.52-1.22 1.56c3.1 2.44 6.3 4.84 9.51 7.14l1.15-1.61c-3.18-2.28-6.36-4.61-9.44-7.09z"></path>
        <path
            d="m535.1 607.27-1.1 1.66c3.31 2.16 6.71 4.27 10.1 6.28l1-1.71c-3.34-1.99-6.72-4.08-10-6.23z"></path>
        <path d="m584.13 632.46c-2.48-1-5-2-7.39-3l-.77 1.82c2.78 1.18 5.62 2.31 8.45 3.4z"></path>
        <path
            d="m555.43 619.29-.94 1.74c3.49 1.86 7.06 3.66 10.63 5.37l.85-1.79c-3.54-1.69-7.09-3.48-10.54-5.32z"></path>
        <path
            d="m481.56 561.27-1.47 1.32c2.63 2.94 5.35 5.86 8.1 8.68l1.42-1.38c-2.73-2.8-5.44-5.7-8.05-8.62z"></path>
        <path
            d="m474.57 214.45-1.57-1.25c-2.51 3.05-5 6.2-7.34 9.35l1.58 1.19c2.39-3.13 4.84-6.25 7.33-9.29z"></path>
        <path d="m506.26 179.3c-3 2.56-6 5.22-8.85 7.92l1.35 1.44c2.86-2.68 5.82-5.32 8.78-7.86z"></path>
        <path
            d="m488.91 195.51c-2.76 2.82-5.49 5.73-8.13 8.67l1.47 1.32c2.62-2.92 5.33-5.81 8.07-8.6z"></path>
        <path
            d="m523.28 165.92c-2.64 1.91-5.27 3.87-7.83 5.87l1.22 1.55c2.26-1.76 4.57-3.49 6.9-5.19z"></path>
        <path d="m634 121.11-.35-2c-3.5.62-7 1.33-10.52 2.09l.26 2c3.5-.76 7.06-1.47 10.61-2.09z"></path>
        <path d="m692.13 650.3.25 2c3.85-.17 7.75-.43 11.59-.76l-.17-2c-3.87.33-7.8.59-11.67.76z"></path>
        <path d="m458.78 232.22c-2.23 3.26-4.41 6.61-6.49 10l1.68 1c2.06-3.33 4.23-6.66 6.44-9.9z"></path>
        <path d="m446.24 252.43c-1.93 3.43-3.81 7-5.59 10.5l1.76.89c1.77-3.51 3.64-7 5.55-10.43z"></path>
        <path d="m419.93 318.61c-1 3.83-1.85 7.75-2.64 11.62l1.94.4c.78-3.85 1.66-7.73 2.61-11.54z"></path>
        <path d="m435.52 273.67c-1.62 3.6-3.18 7.29-4.64 11l1.84.73c1.45-3.64 3-7.3 4.61-10.88z"></path>
        <path
            d="m426.73 295.79c-1.3 3.73-2.53 7.54-3.66 11.33l1.9.57c1.12-3.76 2.34-7.55 3.63-11.26z"></path>
        <path d="m938.31 460.67c1.13-3.8 2.19-7.66 3.16-11.49l-1.92-.48c-1 3.8-2 7.64-3.14 11.4z"></path>
        <path
            d="m924.63 275.51 1.81-.8c-1.6-3.61-3.3-7.22-5.06-10.76l-1.77.88c1.74 3.51 3.39 7.1 5.02 10.68z"></path>
        <path
            d="m887.74 215.43 1.53-1.25c-2.49-3.06-5.09-6.1-7.7-9l-1.48 1.31c2.6 2.88 5.17 5.9 7.65 8.94z"></path>
        <path d="m806 621.62c3.48-1.83 7-3.77 10.36-5.76l-1-1.71c-3.37 2-6.84 3.9-10.29 5.72z"></path>
        <path
            d="m901.79 234.33 1.64-1.11c-2.21-3.26-4.52-6.52-6.87-9.68l-1.56 1.18c2.31 3.14 4.6 6.37 6.79 9.61z"></path>
        <path d="m681.53 117v-2c-3.94 0-7.94.07-11.88.24l.08 2c3.92-.24 7.89-.24 11.8-.24z"></path>
        <path
            d="m645.65 119.3.57-.08c3.9-.5 7.85-.93 11.74-1.27l-.17-2c-3.92.34-7.9.77-11.83 1.29l-.57.07z"></path>
        <path d="m705.1 118 .17-2c-3.92-.35-7.92-.63-11.86-.81l-.09 2c3.92.23 7.88.5 11.78.81z"></path>
        <path
            d="m774 133.77.69-1.85c-3.71-1.39-7.49-2.71-11.24-3.93l-.61 1.89c3.74 1.2 7.5 2.51 11.16 3.89z"></path>
        <path
            d="m751.53 126.48.53-1.91c-3.8-1-7.69-2-11.56-2.91l-.43 1.93c3.83.88 7.69 1.85 11.46 2.89z"></path>
        <path
            d="m728.47 121.22.36-2c-3.89-.7-7.84-1.33-11.74-1.86l-.27 2c3.88.54 7.8 1.16 11.65 1.86z"></path>
        <path
            d="m914.12 254.39 1.72-1c-1.91-3.45-3.92-6.89-6-10.24l-1.68 1c2.06 3.4 4.06 6.85 5.96 10.24z"></path>
        <path d="m880.49 563.54c2.64-2.93 5.24-6 7.75-9l-1.53-1.25c-2.48 3-5.07 6-7.69 8.94z"></path>
        <path
            d="m895.59 545.19c2.36-3.15 4.7-6.4 6.93-9.66l-1.63-1.12c-2.22 3.24-4.53 6.47-6.88 9.59z"></path>
        <path d="m909 525.57c2.09-3.35 4.12-6.79 6.06-10.23l-1.72-1c-1.93 3.41-4 6.83-6 10.16z"></path>
        <path
            d="m826.44 609.65c3.3-2.14 6.61-4.37 9.82-6.66l-1.14-1.61c-3.2 2.27-6.48 4.49-9.75 6.61z"></path>
        <path
            d="m920.68 504.84c1.79-3.52 3.51-7.13 5.14-10.73l-1.8-.82c-1.62 3.58-3.33 7.16-5.1 10.66z"></path>
        <path d="m845.78 595.9c3.1-2.41 6.2-4.94 9.2-7.5l-1.28-1.51c-3 2.55-6.06 5.05-9.14 7.45z"></path>
        <path
            d="m863.85 580.49c2.88-2.69 5.74-5.48 8.5-8.29l-1.41-1.38c-2.74 2.79-5.58 5.56-8.44 8.23z"></path>
        <path
            d="m944.41 343.28 2-.3c-.6-3.92-1.29-7.86-2.06-11.71l-1.94.38c.72 3.83 1.41 7.74 2 11.63z"></path>
        <path
            d="m930.47 483.15c1.47-3.66 2.87-7.42 4.17-11.15l-1.87-.65c-1.29 3.71-2.68 7.43-4.13 11.07z"></path>
        <path
            d="m933.22 297.48 1.87-.64c-1.27-3.73-2.65-7.49-4.08-11.16l-1.84.72c1.43 3.6 2.83 7.37 4.05 11.08z"></path>
        <path
            d="m939.83 320.13 1.92-.47c-.94-3.82-2-7.69-3.08-11.48l-1.9.55c1.1 3.77 2.13 7.6 3.06 11.4z"></path>
        <path d="m948.94 366.61c-.25-3.92-.6-7.91-1-11.85l-2 .22c.42 3.91.76 7.87 1 11.75z"></path>
        <path d="m944.11 437.56c.79-3.86 1.5-7.8 2.12-11.7l-2-.31c-.61 3.87-1.32 7.78-2.11 11.62z"></path>
        <path d="m947.82 414.08c.45-3.91.81-7.9 1.07-11.84l-2-.13c-.27 3.91-.62 7.86-1.06 11.75z"></path>
        <path d="m949.43 390.37c.1-3.95.1-7.95 0-11.89h-2c.08 3.91.08 7.88 0 11.8z"></path>
    </g>
    <circle
        cx="683.4"
        cy="383.62"
        fill="#fff"
        opacity=".5"
        r="236.42"
        transform="matrix(.70710678 -.70710678 .70710678 .70710678 -453.6 512.88)"
    ></circle>
    <rect
        fill="#161d21"
        height="209.79"
        rx="4.16"
        width="341.32"
        x="214.57"
        y="53.93"
    ></rect>
    <path
        d="m934.24 348.43h-333a6.17 6.17 0 0 1 -6.16-6.15v-201.47a6.17 6.17 0 0 1 6.16-6.15h333a6.16 6.16 0 0 1 6.15 6.15v201.47a6.16 6.16 0 0 1 -6.15 6.15zm-333-209.79a2.17 2.17 0 0 0 -2.17 2.17v201.47a2.17 2.17 0 0 0 2.17 2.17h333a2.18 2.18 0 0 0 2.17-2.17v-201.47a2.18 2.18 0 0 0 -2.17-2.17z"
        fill="#fff"
        transform="translate(-382.51 -82.72)"
    ></path>
    <path
        d="m223.26 62.45h155.95v193.83h-155.95z"
        fill="#b0b0b0"
    ></path>
    <path
        d="m614 154.13h-11.19a2.49 2.49 0 0 0 -2.5 2.49v38.47a2.5 2.5 0 0 0 2.5 2.5h11.19z"
        fill="#199fa5"
        transform="translate(-382.51 -82.72)"
    ></path>
    <path
        d="m614 154h-11.19a2.65 2.65 0 0 0 -2.65 2.65v38.47a2.65 2.65 0 0 0 2.65 2.65h11.19z"
        fill="#199fa5"
        transform="translate(-382.51 -82.72)"
    ></path>
    <path
        d="m225.91 62.45h155.95v193.83h-155.95z"
        fill="#fff"
    ></path>
    <path
        d="m390.97 62.45h155.95v193.83h-155.95z"
        fill="#b0b0b0"
    ></path>
    <path
        d="m931.32 287.75h-9.86v43.47h9.86a2.5 2.5 0 0 0 2.5-2.5v-38.47a2.5 2.5 0 0 0 -2.5-2.5z"
        fill="#ff641d"
        transform="translate(-382.51 -82.72)"
    ></path>
    <path
        d="m931.32 242.09h-9.86v43.46h9.86a2.5 2.5 0 0 0 2.5-2.5v-38.47a2.49 2.49 0 0 0 -2.5-2.49z"
        fill="#47a0e2"
        transform="translate(-382.51 -82.72)"
    ></path>
    <path
        d="m931.32 196.76h-9.86v43.46h9.86a2.5 2.5 0 0 0 2.5-2.5v-38.47a2.5 2.5 0 0 0 -2.5-2.49z"
        fill="#ffd11d"
        transform="translate(-382.51 -82.72)"
    ></path>
    <path
        d="m386.85 62.45h155.95v193.83h-155.95z"
        fill="#fff"
    ></path>
    <g transform="translate(-382.51 -82.72)">
        <path
            d="m778.81 186.14a2.85 2.85 0 1 1 -2.81-2.84 2.84 2.84 0 0 1 2.81 2.84z"
            fill="#161d21"
        ></path>
        <path
            d="m760.29 186.14a2.85 2.85 0 1 1 -2.84-2.84 2.84 2.84 0 0 1 2.84 2.84z"
            fill="#161d21"
        ></path>
        <path
            d="m777.33 185.16a.7.7 0 0 1 -.7.7h-19.63a.7.7 0 0 1 -.7-.7.7.7 0 0 1 .7-.71h19.67a.7.7 0 0 1 .7.71z"
            fill="#161d21"
        ></path>
        <path
            d="m777.33 187.13a.7.7 0 0 1 -.7.7h-19.63a.7.7 0 0 1 -.7-.7.7.7 0 0 1 .7-.7h19.67a.7.7 0 0 1 .7.7z"
            fill="#161d21"
        ></path>
        <path
            d="m778.81 172.64a2.85 2.85 0 1 1 -2.84-2.85 2.84 2.84 0 0 1 2.84 2.85z"
            fill="#161d21"
        ></path>
        <path
            d="m760.29 172.64a2.85 2.85 0 1 1 -2.84-2.85 2.84 2.84 0 0 1 2.84 2.85z"
            fill="#161d21"
        ></path>
        <path
            d="m777.33 171.65a.7.7 0 0 1 -.7.7h-19.63a.7.7 0 0 1 -.7-.7.7.7 0 0 1 .7-.7h19.67a.7.7 0 0 1 .7.7z"
            fill="#161d21"
        ></path>
        <path
            d="m777.33 173.63a.7.7 0 0 1 -.7.7h-19.63a.7.7 0 0 1 -.7-.7.7.7 0 0 1 .7-.7h19.67a.7.7 0 0 1 .7.7z"
            fill="#161d21"
        ></path>
        <path
            d="m778.81 158.64a2.85 2.85 0 1 1 -2.81-2.84 2.84 2.84 0 0 1 2.81 2.84z"
            fill="#161d21"
        ></path>
        <path
            d="m760.29 158.64a2.85 2.85 0 1 1 -2.84-2.84 2.84 2.84 0 0 1 2.84 2.84z"
            fill="#161d21"
        ></path>
        <path
            d="m777.33 157.65a.7.7 0 0 1 -.7.7h-19.63a.7.7 0 0 1 -.7-.7.7.7 0 0 1 .7-.7h19.67a.7.7 0 0 1 .7.7z"
            fill="#161d21"
        ></path>
        <path
            d="m777.33 159.63a.7.7 0 0 1 -.7.7h-19.63a.7.7 0 0 1 -.7-.7.7.7 0 0 1 .7-.7h19.67a.7.7 0 0 1 .7.7z"
            fill="#161d21"
        ></path>
        <path
            d="m778.81 214.14a2.85 2.85 0 1 1 -2.84-2.85 2.84 2.84 0 0 1 2.84 2.85z"
            fill="#161d21"
        ></path>
        <path
            d="m760.29 214.14a2.85 2.85 0 1 1 -2.84-2.85 2.84 2.84 0 0 1 2.84 2.85z"
            fill="#161d21"
        ></path>
        <path
            d="m777.33 213.15a.7.7 0 0 1 -.7.7h-19.63a.7.7 0 0 1 -.7-.7.7.7 0 0 1 .7-.7h19.67a.7.7 0 0 1 .7.7z"
            fill="#161d21"
        ></path>
        <path
            d="m777.33 215.13a.7.7 0 0 1 -.7.7h-19.63a.7.7 0 0 1 -.7-.7.7.7 0 0 1 .7-.7h19.67a.7.7 0 0 1 .7.7z"
            fill="#161d21"
        ></path>
        <path
            d="m778.81 228.14a2.85 2.85 0 1 1 -2.84-2.85 2.84 2.84 0 0 1 2.84 2.85z"
            fill="#161d21"
        ></path>
        <path
            d="m760.29 228.14a2.85 2.85 0 1 1 -2.84-2.85 2.84 2.84 0 0 1 2.84 2.85z"
            fill="#161d21"
        ></path>
        <path
            d="m777.33 227.15a.7.7 0 0 1 -.7.7h-19.63a.7.7 0 0 1 -.7-.7.7.7 0 0 1 .7-.7h19.67a.7.7 0 0 1 .7.7z"
            fill="#161d21"
        ></path>
        <path
            d="m777.33 229.13a.69.69 0 0 1 -.7.69h-19.63a.69.69 0 0 1 -.7-.69.7.7 0 0 1 .7-.7h19.67a.7.7 0 0 1 .7.7z"
            fill="#161d21"
        ></path>
        <path
            d="m778.81 242.14a2.85 2.85 0 1 1 -2.84-2.85 2.84 2.84 0 0 1 2.84 2.85z"
            fill="#161d21"
        ></path>
        <path
            d="m760.29 242.14a2.85 2.85 0 1 1 -2.84-2.85 2.84 2.84 0 0 1 2.84 2.85z"
            fill="#161d21"
        ></path>
        <path
            d="m777.33 241.15a.7.7 0 0 1 -.7.7h-19.63a.7.7 0 0 1 -.7-.7.7.7 0 0 1 .7-.7h19.67a.7.7 0 0 1 .7.7z"
            fill="#161d21"
        ></path>
        <path
            d="m777.33 243.13a.69.69 0 0 1 -.7.69h-19.63a.69.69 0 0 1 -.7-.69.7.7 0 0 1 .7-.71h19.67a.7.7 0 0 1 .7.71z"
            fill="#161d21"
        ></path>
        <path
            d="m778.81 256.13a2.85 2.85 0 1 1 -2.84-2.84 2.84 2.84 0 0 1 2.84 2.84z"
            fill="#161d21"
        ></path>
        <path
            d="m760.29 256.13a2.85 2.85 0 1 1 -2.84-2.84 2.84 2.84 0 0 1 2.84 2.84z"
            fill="#161d21"
        ></path>
        <path
            d="m777.33 255.15a.7.7 0 0 1 -.7.7h-19.63a.7.7 0 0 1 -.7-.7.7.7 0 0 1 .7-.7h19.67a.7.7 0 0 1 .7.7z"
            fill="#161d21"
        ></path>
        <path
            d="m777.33 257.12a.7.7 0 0 1 -.7.7h-19.63a.7.7 0 0 1 -.7-.7.7.7 0 0 1 .7-.7h19.67a.7.7 0 0 1 .7.7z"
            fill="#161d21"
        ></path>
        <path
            d="m778.81 270.13a2.85 2.85 0 1 1 -2.84-2.84 2.84 2.84 0 0 1 2.84 2.84z"
            fill="#161d21"
        ></path>
        <path
            d="m760.29 270.13a2.85 2.85 0 1 1 -2.84-2.84 2.84 2.84 0 0 1 2.84 2.84z"
            fill="#161d21"
        ></path>
        <path
            d="m777.33 269.15a.69.69 0 0 1 -.7.69h-19.63a.69.69 0 0 1 -.7-.69.7.7 0 0 1 .7-.7h19.67a.7.7 0 0 1 .7.7z"
            fill="#161d21"
        ></path>
        <path
            d="m777.33 271.12a.7.7 0 0 1 -.7.7h-19.63a.7.7 0 0 1 -.7-.7.7.7 0 0 1 .7-.7h19.67a.7.7 0 0 1 .7.7z"
            fill="#161d21"
        ></path>
        <path
            d="m778.81 284.13a2.85 2.85 0 1 1 -2.84-2.85 2.84 2.84 0 0 1 2.84 2.85z"
            fill="#161d21"
        ></path>
        <path
            d="m760.29 284.13a2.85 2.85 0 1 1 -2.84-2.85 2.84 2.84 0 0 1 2.84 2.85z"
            fill="#161d21"
        ></path>
        <path
            d="m777.33 283.14a.7.7 0 0 1 -.7.7h-19.63a.7.7 0 0 1 -.7-.7.7.7 0 0 1 .7-.7h19.67a.7.7 0 0 1 .7.7z"
            fill="#161d21"
        ></path>
        <path
            d="m777.33 285.12a.7.7 0 0 1 -.7.7h-19.63a.7.7 0 0 1 -.7-.7.7.7 0 0 1 .7-.7h19.67a.7.7 0 0 1 .7.7z"
            fill="#161d21"
        ></path>
        <path
            d="m778.81 298.13a2.85 2.85 0 1 1 -2.84-2.85 2.84 2.84 0 0 1 2.84 2.85z"
            fill="#161d21"
        ></path>
        <path
            d="m760.29 298.13a2.85 2.85 0 1 1 -2.84-2.85 2.84 2.84 0 0 1 2.84 2.85z"
            fill="#161d21"
        ></path>
        <path
            d="m777.33 297.14a.7.7 0 0 1 -.7.7h-19.63a.7.7 0 0 1 -.7-.7.7.7 0 0 1 .7-.7h19.67a.7.7 0 0 1 .7.7z"
            fill="#161d21"
        ></path>
        <path
            d="m777.33 299.12a.7.7 0 0 1 -.7.7h-19.63a.7.7 0 0 1 -.7-.7.7.7 0 0 1 .7-.7h19.67a.7.7 0 0 1 .7.7z"
            fill="#161d21"
        ></path>
        <path
            d="m778.81 312.12a2.85 2.85 0 1 1 -2.84-2.84 2.85 2.85 0 0 1 2.84 2.84z"
            fill="#161d21"
        ></path>
        <path
            d="m760.29 312.12a2.85 2.85 0 1 1 -2.84-2.84 2.85 2.85 0 0 1 2.84 2.84z"
            fill="#161d21"
        ></path>
        <path
            d="m777.33 311.14a.7.7 0 0 1 -.7.7h-19.63a.7.7 0 0 1 -.7-.7.7.7 0 0 1 .7-.7h19.67a.7.7 0 0 1 .7.7z"
            fill="#161d21"
        ></path>
        <path
            d="m777.33 313.12a.69.69 0 0 1 -.7.69h-19.63a.69.69 0 0 1 -.7-.69.7.7 0 0 1 .7-.7h19.67a.7.7 0 0 1 .7.7z"
            fill="#161d21"
        ></path>
        <path
            d="m778.81 326.12a2.85 2.85 0 1 1 -2.84-2.84 2.85 2.85 0 0 1 2.84 2.84z"
            fill="#161d21"
        ></path>
        <path
            d="m760.29 326.12a2.85 2.85 0 1 1 -2.84-2.84 2.85 2.85 0 0 1 2.84 2.84z"
            fill="#161d21"
        ></path>
        <path
            d="m777.33 325.14a.7.7 0 0 1 -.7.7h-19.63a.7.7 0 0 1 -.7-.7.7.7 0 0 1 .7-.7h19.67a.7.7 0 0 1 .7.7z"
            fill="#161d21"
        ></path>
        <path
            d="m777.33 327.11a.7.7 0 0 1 -.7.7h-19.63a.7.7 0 0 1 -.7-.7.7.7 0 0 1 .7-.7h19.67a.7.7 0 0 1 .7.7z"
            fill="#161d21"
        ></path>
        <path
            d="m778.81 200.14a2.85 2.85 0 1 1 -2.81-2.84 2.84 2.84 0 0 1 2.81 2.84z"
            fill="#161d21"
        ></path>
        <path
            d="m760.29 200.14a2.85 2.85 0 1 1 -2.84-2.84 2.84 2.84 0 0 1 2.84 2.84z"
            fill="#161d21"
        ></path>
        <path
            d="m777.33 199.15a.7.7 0 0 1 -.7.7h-19.63a.7.7 0 0 1 -.7-.7.7.7 0 0 1 .7-.7h19.67a.7.7 0 0 1 .7.7z"
            fill="#161d21"
        ></path>
        <path
            d="m777.33 201.13a.7.7 0 0 1 -.7.7h-19.63a.7.7 0 0 1 -.7-.7.7.7 0 0 1 .7-.7h19.67a.7.7 0 0 1 .7.7z"
            fill="#161d21"
        ></path>
    </g>
    <path
        d="m246.23 196.35h47.52v4.74h-47.52z"
        fill="#b0b0b0"
    ></path>
    <path d="m246.23 207.94h105v4.74h-105z" fill="#b0b0b0"></path>
    <path d="m246.23 218.72h105v4.74h-105z" fill="#b0b0b0"></path>
    <path
        d="m246.23 172.42h49.96v16.18h-49.96z"
        fill="#b0b0b0"
    ></path>
    <path
        d="m300.03 172.42h49.96v16.18h-49.96z"
        fill="#b0b0b0"
    ></path>
    <path
        d="m414.84 116.12h47.52v4.74h-47.52z"
        fill="#b0b0b0"
    ></path>
    <path d="m414.84 127.71h105v4.74h-105z" fill="#b0b0b0"></path>
    <path d="m414.84 138.49h105v4.74h-105z" fill="#b0b0b0"></path>
    <path
        d="m414.84 92.19h49.96v16.18h-49.96z"
        fill="#b0b0b0"
    ></path>
    <path
        d="m468.63 92.19h49.96v16.18h-49.96z"
        fill="#b0b0b0"
    ></path>
    <path
        d="m254.06 127.21h-1.15-4.88v31.07h4.88 1.15 2.85v-31.07z"
        fill="#ffd11d"
    ></path>
    <path
        d="m275.01 143.75h-1.14-2.85v14.53h2.85 1.14 4.89v-14.53z"
        fill="#ffd11d"
    ></path>
    <path
        d="m297.67 124.35h-1.14-2.85v33.93h2.85 1.14 4.89v-33.93z"
        fill="#f76031"
    ></path>
    <path
        d="m320.76 90.42h-1.14-2.85v67.86h2.85 1.14 4.89v-67.86z"
        fill="#f76031"
    ></path>
    <path
        d="m344.56 97h-1.15-2.85v61.28h2.85 1.15 4.88v-61.28z"
        fill="#f76031"
    ></path>
    <path
        d="m569.63 496.57-5.81-2.22 74.92-195.83 5.85 2.24z"
        fill="#161d21"
    ></path>
    <path
        d="m554.38 490.74 74.96-195.81 5.76 2.2-74.91 195.83z"
        fill="#161d21"
    ></path>
    <path
        d="m563.82 494.35-.01.03-3.63-1.39.01-.03z"
        fill="#fffdfa"
    ></path>
    <path
        d="m919.76 334.05v-6.7l-105-42.15 1.44-3.61 103.56 41.57v-6.7l-101.24-40.64-6.08 15.18zm0-10.89 105 42.15-1.45 3.61-103.55-41.57v6.7l101.24 40.64 6.08-15.15-107.32-43.08z"
        fill="#161d21"
        fill-rule="evenodd"
        transform="translate(-382.51 -82.72)"
    ></path>
    <path
        d="m783.28 319.16a18.94 18.94 0 1 1 25.38-7.64 18.79 18.79 0 0 1 -25.38 7.64z"
        fill="#ffd11d"
        fill-rule="evenodd"
        transform="translate(-382.51 -82.72)"
    ></path>
    <path
        d="m838.39 229.71a63.84 63.84 0 0 0 -16.13-6.94l-21.26 26.1c-21.27-.79-44.32 12.08-58.61 34.75 15.47 7.81 31.44 16.62 47.57 26.36s31.36 19.76 45.47 29.82c13.41-23.2 14.06-49.6 3.46-68.05l13.18-31a64.38 64.38 0 0 0 -13.68-11.04z"
        fill="#161d21"
        fill-rule="evenodd"
        transform="translate(-382.51 -82.72)"
    ></path>
    <path
        d="m947.39 550.89a47.92 47.92 0 0 0 -47.92 47.92h95.84a47.91 47.91 0 0 0 -47.92-47.92z"
        fill="#161d21"
        fill-rule="evenodd"
        transform="translate(-382.51 -82.72)"
    ></path>
    <path
        d="m1035 378.28a17.18 17.18 0 1 0 -23.77 5.06 17.18 17.18 0 0 0 23.77-5.06z"
        fill="#161d21"
        fill-rule="evenodd"
        transform="translate(-382.51 -82.72)"
    ></path>
    <rect
        fill="#161d21"
        height="97.34"
        rx="3.32"
        width="135.76"
        x="54.26"
        y="118.63"
    ></rect>
    <path
        d="m569.2 300.54h-129.11a5.18 5.18 0 0 1 -5.17-5.17v-90.7a5.17 5.17 0 0 1 5.17-5.16h129.11a5.17 5.17 0 0 1 5.17 5.16v90.7a5.18 5.18 0 0 1 -5.17 5.17zm-129.11-97.34a1.47 1.47 0 0 0 -1.48 1.47v90.7a1.48 1.48 0 0 0 1.48 1.48h129.11a1.47 1.47 0 0 0 1.47-1.48v-90.7a1.47 1.47 0 0 0 -1.47-1.47z"
        fill="#fff"
        transform="translate(-382.51 -82.72)"
    ></path>
    <path
        d="m59.76 123.99h123.89v29.1h-123.89z"
        fill="#ff641d"
    ></path>
    <path
        d="m183.28 153.09.37-1.96h-123.89v1.96z"
        fill="#fff"
    ></path>
    <path
        d="m455.23 212a3.54 3.54 0 1 1 -3.53-3.54 3.53 3.53 0 0 1 3.53 3.54z"
        fill="#161d21"
        transform="translate(-382.51 -82.72)"
    ></path>
    <path
        d="m488 212a3.54 3.54 0 1 1 -3.54-3.54 3.53 3.53 0 0 1 3.54 3.54z"
        fill="#161d21"
        transform="translate(-382.51 -82.72)"
    ></path>
    <path
        d="m520.81 212a3.54 3.54 0 1 1 -3.54-3.54 3.53 3.53 0 0 1 3.54 3.54z"
        fill="#161d21"
        transform="translate(-382.51 -82.72)"
    ></path>
    <path
        d="m553.63 212a3.54 3.54 0 1 1 -3.54-3.54 3.53 3.53 0 0 1 3.54 3.54z"
        fill="#161d21"
        transform="translate(-382.51 -82.72)"
    ></path>
    <path
        d="m451.66 195.79a2.32 2.32 0 0 1 2.32 2.32v12.89a2.32 2.32 0 0 1 -2.32 2.32 2.31 2.31 0 0 1 -2.31-2.32v-12.89a2.31 2.31 0 0 1 2.31-2.32z"
        fill="#fff"
        transform="translate(-382.51 -82.72)"
    ></path>
    <path
        d="m484.45 195.79a2.32 2.32 0 0 1 2.32 2.32v12.89a2.32 2.32 0 0 1 -2.32 2.32 2.31 2.31 0 0 1 -2.31-2.32v-12.89a2.31 2.31 0 0 1 2.31-2.32z"
        fill="#fff"
        transform="translate(-382.51 -82.72)"
    ></path>
    <path
        d="m517.27 195.79a2.32 2.32 0 0 1 2.32 2.32v12.89a2.32 2.32 0 0 1 -2.32 2.32 2.31 2.31 0 0 1 -2.27-2.32v-12.89a2.31 2.31 0 0 1 2.31-2.32z"
        fill="#fff"
        transform="translate(-382.51 -82.72)"
    ></path>
    <path
        d="m550.09 195.79a2.32 2.32 0 0 1 2.32 2.32v12.89a2.32 2.32 0 0 1 -2.32 2.32 2.31 2.31 0 0 1 -2.31-2.32v-12.89a2.31 2.31 0 0 1 2.31-2.32z"
        fill="#fff"
        transform="translate(-382.51 -82.72)"
    ></path>
    <path
        d="m172.29 211.01h-27.13v-42.97h38.49v31.62z"
        fill="#161d21"
    ></path>
    <path
        d="m172.29 211.01h-112.53v-59.88h123.89v48.53h-11.36z"
        fill="#fff"
    ></path>
    <path
        d="m506.47 262.55c0 9.38-3.53 14.57-9.6 14.57-5.39 0-9.08-5.06-9.17-14.19 0-9.3 4-14.35 9.64-14.35 5.78 0 9.13 5.18 9.13 13.97zm-15 .42c0 7.18 2.2 11.26 5.6 11.26 3.78 0 5.61-4.46 5.61-11.51 0-6.8-1.7-11.25-5.61-11.25-3.21 0-5.59 3.99-5.59 11.53z"
        fill="#ff641d"
        transform="translate(-382.51 -82.72)"
    ></path>
    <path
        d="m518 252.52h-.09l-4.8 2.6-.72-2.85 6-3.23h3.18v27.61h-3.57z"
        fill="#ff641d"
        transform="translate(-382.51 -82.72)"
    ></path>
    <path
        d="m260.75 409.64h150.26v81.35h-150.26z"
        fill="#199fa5"
    ></path>
    <path
        d="m789.08 569.69h-141.39v-73.31h141.39z"
        fill="#fff"
        transform="translate(-382.51 -82.72)"
    ></path>
    <path
        d="m785.1 519.15a19.83 19.83 0 0 1 -19.64-19.6h-94.86a19.82 19.82 0 0 1 -19.11 19.23v28a19.82 19.82 0 0 1 19.51 19.62s0 .08 0 .12h94.52c0-.16 0-.31 0-.47a19.82 19.82 0 0 1 19.64-19.64h.18v-27.26z"
        fill="#199fa5"
        transform="translate(-382.51 -82.72)"
    ></path>
    <path
        d="m694.49 533a23.9 23.9 0 1 0 23.9-23.9 23.92 23.92 0 0 0 -23.9 23.9z"
        fill="#fff"
        transform="translate(-382.51 -82.72)"
    ></path>
    <path
        d="m740.15 532.84a21.62 21.62 0 1 1 -21.62-21.62 21.62 21.62 0 0 1 21.62 21.62z"
        fill="#199fa5"
        transform="translate(-382.51 -82.72)"
    ></path>
    <path
        d="m721.05 529.79c-1.48-.54-3.19-1.25-3.19-1.88 0-.82 1.17-.95 1.86-.95a8.85 8.85 0 0 1 4.1 1l.89.43.28-.94 1.11-4.17-.62-.29a11.69 11.69 0 0 0 -4.07-1v-2.81h-4.69v3.15c-3.25.84-5.25 3.14-5.25 6.16 0 3.9 3.29 5.51 6.15 6.47 2.44.82 2.77 1.42 2.77 1.93 0 .77-1.1 1.11-2.2 1.11a10.09 10.09 0 0 1 -4.76-1.27l-.93-.5-1.35 5.27.55.31a13 13 0 0 0 4.87 1.33v3.06h4.68v-3.38c3.43-.83 5.54-3.21 5.54-6.36s-1.72-5.26-5.74-6.67z"
        fill="#fff"
        transform="translate(-382.51 -82.72)"
    ></path>
    <path
        d="m270.15 417.35h150.26v81.35h-150.26z"
        fill="#199fa5"
    ></path>
    <path
        d="m798.48 577.39h-141.39v-73.3h141.39z"
        fill="#fff"
        transform="translate(-382.51 -82.72)"
    ></path>
    <path
        d="m794.5 526.86a19.83 19.83 0 0 1 -19.64-19.6h-94.86a19.81 19.81 0 0 1 -19.1 19.22v28a19.82 19.82 0 0 1 19.47 19.63s0 .08 0 .12h94.53c0-.15 0-.31 0-.46a19.82 19.82 0 0 1 19.64-19.64h.18v-27.28z"
        fill="#199fa5"
        transform="translate(-382.51 -82.72)"
    ></path>
    <path
        d="m703.89 540.74a23.9 23.9 0 1 0 23.9-23.9 23.93 23.93 0 0 0 -23.9 23.9z"
        fill="#fff"
        transform="translate(-382.51 -82.72)"
    ></path>
    <path
        d="m749.55 540.54a21.62 21.62 0 1 1 -21.62-21.61 21.61 21.61 0 0 1 21.62 21.61z"
        fill="#199fa5"
        transform="translate(-382.51 -82.72)"
    ></path>
    <path
        d="m730.45 537.49c-1.48-.54-3.19-1.24-3.19-1.87 0-.83 1.17-1 1.86-1a8.82 8.82 0 0 1 4.1 1l.89.42.28-.94 1.11-4.1-.62-.29a11.69 11.69 0 0 0 -4.07-1v-2.8h-4.68v3.09c-3.26.84-5.26 3.15-5.26 6.17 0 3.89 3.29 5.5 6.15 6.47 2.44.82 2.78 1.41 2.78 1.92 0 .77-1.11 1.11-2.2 1.11a10.24 10.24 0 0 1 -4.77-1.26l-.93-.51-1.35 5.27.55.31a13.19 13.19 0 0 0 4.9 1.32v3.05h4.68v-3.38c3.43-.83 5.54-3.2 5.54-6.36s-1.75-5.21-5.77-6.62z"
        fill="#fff"
        transform="translate(-382.51 -82.72)"
    ></path>
    <path
        d="m458.81 318.44h99.07v143.87h-99.07z"
        fill="#161d21"
    ></path>
    <path
        d="m465.24 361.92h14.03v14.02h-14.03z"
        fill="#47a0e2"
    ></path>
    <path
        d="m465.24 386.96h14.03v14.03h-14.03z"
        fill="#fff"
    ></path>
    <path
        d="m465.24 411.99h14.03v14.03h-14.03z"
        fill="#fff"
    ></path>
    <path
        d="m465.24 437.03h14.03v14.03h-14.03z"
        fill="#fff"
    ></path>
    <path
        d="m489.31 361.92h14.03v14.02h-14.03z"
        fill="#47a0e2"
    ></path>
    <path
        d="m489.31 386.96h14.03v14.03h-14.03z"
        fill="#fff"
    ></path>
    <path
        d="m489.31 411.99h14.03v14.03h-14.03z"
        fill="#fff"
    ></path>
    <path
        d="m489.31 437.03h14.03v14.03h-14.03z"
        fill="#fff"
    ></path>
    <path
        d="m513.37 361.92h14.03v14.02h-14.03z"
        fill="#47a0e2"
    ></path>
    <path d="m465.24 355.7h14.03v1.92h-14.03z" fill="#fff"></path>
    <path d="m489.31 355.7h14.03v1.92h-14.03z" fill="#fff"></path>
    <path d="m513.37 355.7h14.03v1.92h-14.03z" fill="#fff"></path>
    <path
        d="m513.37 386.96h14.03v14.03h-14.03z"
        fill="#fff"
    ></path>
    <path
        d="m513.37 411.99h14.03v14.03h-14.03z"
        fill="#fff"
    ></path>
    <path
        d="m513.37 437.03h14.03v14.03h-14.03z"
        fill="#fff"
    ></path>
    <path
        d="m537.43 361.92h14.03v14.02h-14.03z"
        fill="#47a0e2"
    ></path>
    <path
        d="m537.43 386.96h14.03v14.03h-14.03z"
        fill="#47a0e2"
    ></path>
    <path
        d="m537.43 411.99h14.03v39.06h-14.03z"
        fill="#47a0e2"
    ></path>
    <path
        d="m464.04 324.08h88.62v26.01h-88.62z"
        fill="#fff"
    ></path>
    <path
        d="m929.07 439.38a2.38 2.38 0 1 1 -2.38-2.38 2.37 2.37 0 0 1 2.38 2.38z"
        fill="#fff"
        transform="translate(-382.51 -82.72)"
    ></path>
    <path
        d="m651.63 383.29a.77.77 0 0 1 -.84.65h-13.23a.77.77 0 0 1 -.85-.65v-18.79a.78.78 0 0 1 .85-.66h13.23a.77.77 0 0 1 .84.66z"
        fill="#ff641d"
        transform="translate(-382.51 -82.72)"
    ></path>
    <path
        d="m648.31 363.84h-4.77v20.1h4.77a.77.77 0 0 0 .84-.65v-18.79a.77.77 0 0 0 -.84-.66z"
        fill="#fff"
        transform="translate(-382.51 -82.72)"
    ></path>
    <path
        d="m473.18 281.12h-10.55-138.75-22.89-36.19v20.11h36.19 22.89 138.75 10.55 45.94v-20.11z"
        fill="#ffd11d"
    ></path>
    <path
        d="m473.18 288.48h-10.55-138.75-22.89-36.19v5.39h36.19 22.89 138.75 10.55 45.94v-5.39z"
        fill="#161d21"
    ></path>
    <path
        d="m518.99 301.29-7.12-10.11 7.12-10.12 32.59 10.12z"
        fill="#fff"
    ></path>
    <path
        d="m537.99 286.96v8.43l13.59-4.21z"
        fill="#161d21"
    ></path>
    <path
        d="m174.72 245.45h-122.31v209.49h170.34v-156.36z"
        fill="#b0b0b0"
    ></path>
    <path
        d="m174.72 245.45h-122.31v209.49h170.34v-156.36h-48.03z"
        fill="#fff"
    ></path>
    <path
        d="m52.41 245.45h122.27v11h-122.27z"
        fill="#ffd11d"
    ></path>
    <path
        d="m71.78 404.15h59.55v5.95h-59.55z"
        fill="#b0b0b0"
    ></path>
    <path
        d="m71.78 418.68h131.59v5.94h-131.59z"
        fill="#b0b0b0"
    ></path>
    <path
        d="m71.78 432.19h131.59v5.95h-131.59z"
        fill="#b0b0b0"
    ></path>
    <path
        d="m80.59 335.93h-1.67-7.14v27.44h7.14 1.67 4.15v-27.44z"
        fill="#f76031"
    ></path>
    <path
        d="m94.62 303.44h-1.67-4.15v59.93h4.15 1.67 7.13v-59.93z"
        fill="#f76031"
    ></path>
    <path
        d="m111.16 350.54h-1.67-4.15v12.83h4.15 1.67 7.13v-12.83z"
        fill="#f76031"
    ></path>
    <path
        d="m128.17 322.39h-1.67-4.15v40.98h4.15 1.67 7.14v-40.98z"
        fill="#f76031"
    ></path>
    <path
        d="m144.24 333.4h-1.67-4.16v29.97h4.16 1.67 7.13v-29.97z"
        fill="#ffd11d"
    ></path>
    <path
        d="m160.78 315.35h-1.67-4.16v48.02h4.16 1.67 7.13v-48.02z"
        fill="#ffd11d"
    ></path>
    <path
        d="m177.94 303.44h-1.67-4.16v59.93h4.16 1.67 7.13v-59.93z"
        fill="#ffd11d"
    ></path>
    <path
        d="m194.68 309.25h-1.68-4.15v54.12h4.15 1.68 7.13v-54.12z"
        fill="#ffd11d"
    ></path>
    <path
        d="m71.78 374.17h62.61v20.28h-62.61z"
        fill="#b0b0b0"
    ></path>
    <path
        d="m139.2 374.17h62.61v20.28h-62.61z"
        fill="#b0b0b0"
    ></path>
    <path
        d="m770.39 412.69a6.31 6.31 0 0 0 -6.3-6.31h-91.4a6.31 6.31 0 0 0 -6.31 6.31v53.39a6.3 6.3 0 0 0 6.31 6.3h91.4a6.3 6.3 0 0 0 6.3-6.3z"
        fill="#fff"
        transform="translate(-382.51 -82.72)"
    ></path>
    <path
        d="m283.88 373.6h104.01v9.09h-104.01z"
        fill="#161d21"
    ></path>
    <path
        d="m289.82 348.26h73.83v9.74h-73.83z"
        fill="#f76031"
    ></path>
    <path
        d="m289.82 361.44h73.83v2.38h-73.83z"
        fill="#f76031"
    ></path>
    <path
        d="m289.82 342.32h36.91v2.9h-36.91z"
        fill="#f76031"
    ></path>
    <path
        d="m289.82 337.66h36.91v2.9h-36.91z"
        fill="#f76031"
    ></path>
</svg>