<svg
    xmlns="http://www.w3.org/2000/svg"
    viewBox="0 0 220.4 220.4"
>
    <g transform="translate(-567.63 -267.92)">
        <path
            d="m629.3 360c-.1.2-.3.4-.3.6-9.4 26.7 4.6 56.1 31.4 65.5 11 3.9 22.9 3.9 33.9.1 16.7 19 33.6 38.1 48.2 54.2 9.8 10.9 27.2 10.4 37.6 0s11-27.9 0-37.6l-54.3-47.9c9.5-26.7-4.5-56.1-31.2-65.6-11.1-3.9-23.1-3.9-34.2 0-.2.1-.4.2-.5.3-.7.7-.7 1.8-.1 2.5l29.8 29.8c2 2 2 5.2 0 7.2l-20.5 20.5c-2 2-5.2 2-7.2.1 0 0 0 0-.1-.1l-29.8-29.8c-.9-.5-2-.5-2.7.2zm114.9 95.6 11.1-11.1c.6-.6 1.5-.8 2.3-.6l15.2 4c.8.2 1.5.9 1.7 1.7l4 15.1c.2.8 0 1.7-.6 2.3l-11.1 11.1c-.5.5-1.1.7-1.7.7-.2 0-.4 0-.6-.1l-15.1-4c-.4-.1-.7-.3-1-.5l-.1-.1-.1-.1c-.3-.3-.5-.6-.6-1l-4-15.1c-.3-.8 0-1.7.6-2.3z"
            fill="#37484a"
        ></path>
        <path
            d="m753.6 298.1c-9.9-9.8-13-11.6-18.5-6-2.7 2.8-5.5 5.5-8.2 8.3-1.6 1.6-4.2 1.5-6.1.5-3-1.6-6-3.1-9.1-4.3-3.2-1.3-6.4-2.5-9.7-3.5-2.1-.6-4-2.3-4-4.6v-11.7c0-8.3-3.8-8.8-20.2-8.8-1 0-2 0-3 0-14 .1-17.3 1-17.3 8.8v11.6c0 2.3-1.9 4-4 4.6-3.3 1-6.5 2.1-9.7 3.5-3.1 1.3-6.2 2.7-9.1 4.3-1.9 1-4.4 1.1-6-.5l-8.2-8.2c-5.9-5.9-8.9-3.5-20.6 8.1s-14 14.7-8.1 20.6l8.2 8.2c1.6 1.6 1.5 4.1.5 6-1.6 3-3 6-4.3 9.1-1.3 3.2-2.5 6.4-3.5 9.7-.6 2.1-2.3 4-4.6 4h-11.6c-8.4 0-8.8 3.8-8.8 20.3s.5 20.3 8.8 20.3h11.6c2.3 0 4 1.9 4.6 4 1 3.2 2.1 6.4 3.4 9.5 1.3 3.2 2.7 6.3 4.4 9.3 1 1.9 1.2 4.5-.5 6.1-2.7 2.7-5.5 5.5-8.2 8.2-5.9 5.9-3.6 8.9 8.1 20.6s14.7 14 20.6 8.1l8.2-8.2c1.7-1.4 4.1-1.6 6-.5 3 1.6 6.1 3.1 9.3 4.4 3.1 1.3 6.3 2.4 9.5 3.4 2.1.6 4 2.3 4 4.6v11.6c0 8.4 3.8 8.8 20.3 8.8s20.3-.5 20.3-8.8v-11.6c0-2.3 1.9-4 4-4.6 3.2-1 6.4-2.1 9.5-3.4 1-.4 2.1-.9 3.1-1.3-4.5-5.1-8.9-10.2-13.4-15.3-35.9 12.9-75.4-5.7-88.3-41.5s5.7-75.4 41.5-88.3c35.9-12.9 75.4 5.7 88.3 41.5 5.5 15.2 5.4 31.8-.1 47 5 4.5 10.2 9 15.3 13.5.5-1.1 1-2.3 1.5-3.4 1.3-3.1 2.4-6.3 3.4-9.5.6-2.1 2.3-4 4.6-4h11.7c8.3 0 8.8-3.8 8.8-20.3s-.5-20.3-8.8-20.3h-11.6c-2.3 0-4-1.9-4.6-4-1-3.3-2.2-6.5-3.5-9.7-1.3-3.1-2.7-6.2-4.3-9.1-1-1.9-1.2-4.4.5-6l8.2-8.3c5.9-5.9 3.5-8.9-8.1-20.6-.8-.8-1.5-1.5-2.2-2.2z"
            fill="#fff"
        ></path>
    </g>
</svg>