<svg width="109" height="109" viewBox="0 0 109 109" fill="none" xmlns="http://www.w3.org/2000/svg">
<path d="M81.6045 51.4722V95.6214C81.6045 99.6025 78.6141 103.092 74.6424 103.366C72.3635 103.523 70.2901 102.668 68.8162 101.194C67.4589 99.8367 66.6259 97.9701 66.6259 95.8876V47.4652H77.5975C79.8105 47.4652 81.6045 49.2592 81.6045 51.4722Z" fill="#E8AC00"/>
<path d="M71.8563 8.20602V82.573C71.8563 84.277 70.475 85.6583 68.7711 85.6583H12.6758C10.9719 85.6583 9.59061 84.277 9.59061 82.573V8.20602C9.59061 6.5021 10.9719 5.12081 12.6758 5.12081H68.7711C70.475 5.12081 71.8563 6.5021 71.8563 8.20602Z" fill="#F2F2F7"/>
<path d="M15.8403 85.6508H12.6672C10.968 85.6508 9.59642 84.2792 9.59642 82.58V8.20632C9.59642 6.50713 10.968 5.11507 12.6672 5.11507H15.8403C14.1411 5.11507 12.749 6.50713 12.749 8.20632V82.58C12.749 84.2792 14.1411 85.6508 15.8403 85.6508Z" fill="#8FA1B0"/>
<path d="M42.4047 53.0174V53.0173C42.4047 52.3095 41.8309 51.7357 41.1231 51.7357H22.3673C21.6595 51.7357 21.0857 52.3095 21.0857 53.0173V53.0174C21.0857 53.7252 21.6595 54.299 22.3673 54.299H41.1231C41.8309 54.299 42.4047 53.7252 42.4047 53.0174Z" fill="#46CC6B"/>
<path d="M36.9202 54.3048H22.3733C21.6636 54.3048 21.093 53.7186 21.093 53.0244C21.093 52.3149 21.6636 51.7287 22.3733 51.7287H36.9202C36.2104 51.7287 35.6397 52.3149 35.6397 53.0244C35.6397 53.7186 36.2104 54.3048 36.9202 54.3048Z" fill="#179C5F"/>
<path d="M74.1088 103.385H12.5741C8.46153 103.385 5.09253 100.066 5.09253 95.8877V53.6357C5.09253 51.9318 6.47382 50.5505 8.17774 50.5505H30.1536C31.0934 50.5505 31.9819 50.9788 32.5672 51.714L36.5608 56.7298C37.1462 57.465 38.0347 57.8933 38.9745 57.8933H63.5418C65.2457 57.8933 66.627 59.2746 66.627 60.9785V95.8877C66.627 97.9701 67.4601 99.8367 68.8174 101.194C70.1751 102.552 72.0416 103.385 74.1088 103.385Z" fill="#EFB100"/>
<path d="M20.0123 103.385H12.5794C8.45568 103.385 5.09634 100.064 5.09634 95.892V53.6385C5.09634 51.9356 6.47875 50.5531 8.18173 50.5531H15.6146C13.9117 50.5531 12.5292 51.9356 12.5292 53.6385V95.892C12.5292 97.9656 13.3607 99.8388 14.7131 101.191C16.0755 102.554 17.9387 103.385 20.0123 103.385Z" fill="#E8AC00"/>
<path d="M60.3605 40.0894V40.0892C60.3605 39.3814 59.7867 38.8076 59.0789 38.8076H22.3673C21.6595 38.8076 21.0857 39.3814 21.0857 40.0892V40.0894C21.0857 40.7972 21.6595 41.371 22.3673 41.371H59.0789C59.7867 41.371 60.3605 40.7972 60.3605 40.0894Z" fill="#3570D4"/>
<path d="M29.9321 41.3778H22.3733C21.6636 41.3778 21.093 40.7916 21.093 40.082C21.093 39.3879 21.6636 38.8017 22.3733 38.8017H29.9321C29.2226 38.8017 28.6516 39.3879 28.6516 40.082C28.6516 40.7916 29.2226 41.3778 29.9321 41.3778Z" fill="#2C5BC0"/>
<path d="M42.4047 45.9608V45.9606C42.4047 45.2528 41.8309 44.679 41.1231 44.679H22.3673C21.6595 44.679 21.0857 45.2528 21.0857 45.9606V45.9608C21.0857 46.6686 21.6595 47.2424 22.3673 47.2424H41.1231C41.8309 47.2424 42.4047 46.6686 42.4047 45.9608Z" fill="#65B9FF"/>
<path d="M30.7652 47.2396H22.3733C21.6636 47.2396 21.093 46.6689 21.093 45.9593C21.093 45.2497 21.6636 44.679 22.3733 44.679H30.7652C30.0709 44.679 29.4847 45.2497 29.4847 45.9593C29.4847 46.6689 30.0709 47.2396 30.7652 47.2396Z" fill="#3E7FFF"/>
<path d="M53.9239 53.0175V53.0173C53.9239 52.3095 53.3501 51.7357 52.6423 51.7357H46.2273C45.5195 51.7357 44.9457 52.3095 44.9457 53.0173V53.0175C44.9457 53.7253 45.5195 54.299 46.2273 54.299H52.6423C53.3501 54.299 53.9239 53.7253 53.9239 53.0175Z" fill="#3570D4"/>
<path d="M49.7922 54.2996H46.226C45.5248 54.2996 44.9438 53.7286 44.9438 53.0174C44.9438 52.3061 45.5248 51.7351 46.226 51.7351H49.7922C49.0909 51.7351 48.51 52.3061 48.51 53.0174C48.51 53.7286 49.0909 54.2996 49.7922 54.2996Z" fill="#2C5BC0"/>
<path d="M65.9381 53.0174V53.0173C65.9381 52.3095 65.3643 51.7357 64.6565 51.7357H58.2415C57.5337 51.7357 56.9599 52.3095 56.9599 53.0173V53.0174C56.9599 53.7252 57.5337 54.299 58.2415 54.299H64.6565C65.3643 54.299 65.9381 53.7252 65.9381 53.0174Z" fill="#65B9FF"/>
<path d="M61.8145 54.2996H58.2383C57.5371 54.2996 56.9561 53.7286 56.9561 53.0174C56.9561 52.3061 57.5371 51.7351 58.2383 51.7351H61.8145C61.1033 51.7351 60.5323 52.3061 60.5323 53.0174C60.5323 53.7286 61.1033 54.2996 61.8145 54.2996Z" fill="#3E7FFF"/>
<path d="M27.7639 10.0617V32.7934C27.7639 33.2132 27.4235 33.5536 27.0037 33.5536H21.3716C20.9518 33.5536 20.6114 33.2132 20.6114 32.7934V10.0617C20.6114 9.64182 20.9518 9.30148 21.3716 9.30148H27.0037C27.4235 9.30148 27.7639 9.64182 27.7639 10.0617Z" fill="#46CC6B"/>
<path d="M23.0615 33.5536H21.3725C20.9487 33.5536 20.6096 33.2145 20.6096 32.7906V10.0647C20.6096 9.64086 20.9487 9.3018 21.3725 9.3018H23.0615C22.6441 9.3018 22.3051 9.64086 22.3051 10.0647V32.7906C22.3051 33.2145 22.6441 33.5536 23.0615 33.5536Z" fill="#179C5F"/>
<path d="M38.7847 20.3574V32.7934C38.7847 33.2132 38.4444 33.5536 38.0245 33.5536H32.3919C31.9721 33.5536 31.6318 33.2132 31.6318 32.7934V20.3574C31.6318 19.9376 31.9721 19.5973 32.3919 19.5973H38.0245C38.4444 19.5973 38.7847 19.9376 38.7847 20.3574Z" fill="#3570D4"/>
<path d="M34.0863 33.5535H32.3973C31.9735 33.5535 31.6344 33.2144 31.6344 32.7905V20.3576C31.6344 19.9403 31.9735 19.5947 32.3973 19.5947H34.0863C33.6689 19.5947 33.3233 19.9403 33.3233 20.3576V32.7905C33.3233 33.2144 33.6689 33.5535 34.0863 33.5535Z" fill="#2C5BC0"/>
<path d="M49.8123 16.491V32.7934C49.8123 33.2132 49.472 33.5536 49.0521 33.5536H43.4202C43.0004 33.5536 42.66 33.2132 42.66 32.7934V16.491C42.66 16.0711 43.0004 15.7308 43.4202 15.7308H49.0521C49.472 15.7308 49.8123 16.0711 49.8123 16.491Z" fill="#65B9FF"/>
<path d="M45.1127 33.5536H43.4173C42.9999 33.5536 42.6608 33.2145 42.6608 32.7906V16.4884C42.6608 16.071 42.9999 15.7319 43.4173 15.7319H45.1127C44.6889 15.7319 44.3498 16.071 44.3498 16.4884V32.7906C44.3498 33.2145 44.6889 33.5536 45.1127 33.5536Z" fill="#3E7FFF"/>
<path d="M60.8359 24.1936V32.7934C60.8359 33.2132 60.4955 33.5536 60.0757 33.5536H54.4436C54.0238 33.5536 53.6835 33.2132 53.6835 32.7934V24.1936C53.6835 23.7737 54.0238 23.4334 54.4436 23.4334H60.0757C60.4955 23.4334 60.8359 23.7737 60.8359 24.1936Z" fill="#EFB100"/>
<path d="M56.1334 33.5536H54.4444C54.0206 33.5536 53.6815 33.2144 53.6815 32.7906V24.1966C53.6815 23.7728 54.0206 23.4337 54.4444 23.4337H56.1334C55.716 23.4337 55.3769 23.7728 55.3769 24.1966V32.7906C55.3769 33.2144 55.716 33.5536 56.1334 33.5536Z" fill="#D8A104"/>
<path d="M103.409 47.387V98.4978C103.409 101.197 101.221 103.385 98.5219 103.385H61.3256C58.6266 103.385 56.4386 101.197 56.4386 98.4978V47.387C56.4386 44.6879 58.6266 42.4999 61.3256 42.4999H98.5219C101.221 42.4999 103.409 44.6879 103.409 47.387Z" fill="#8FA1B0"/>
<path d="M68.3196 103.382H61.3256C58.6269 103.382 56.4386 101.199 56.4386 98.4951V47.387C56.4386 44.6882 58.6269 42.4999 61.3256 42.4999H68.3196C65.6154 42.4999 63.4325 44.6882 63.4325 47.387V98.4951C63.4325 101.199 65.6154 103.382 68.3196 103.382Z" fill="#798792"/>
<path d="M98.1604 49.7518V60.9486C98.1604 61.6549 97.5879 62.2274 96.8816 62.2274H62.9652C62.2589 62.2274 61.6864 61.6549 61.6864 60.9486V49.7518C61.6864 49.0455 62.2589 48.473 62.9652 48.473H96.8816C97.5879 48.473 98.1604 49.0455 98.1604 49.7518Z" fill="white"/>
<path d="M65.0001 62.2274H62.7474C62.1616 62.2274 61.6886 61.6573 61.6886 60.9513V49.749C61.6886 49.0431 62.1616 48.473 62.7474 48.473H65.0001C64.4143 48.473 63.9413 49.0431 63.9413 49.749V60.9513C63.9413 61.6573 64.4143 62.2274 65.0001 62.2274Z" fill="#798792"/>
<path d="M66.1865 74.8548C68.6728 74.8548 70.6883 72.8393 70.6883 70.3531C70.6883 67.8668 68.6728 65.8513 66.1865 65.8513C63.7003 65.8513 61.6848 67.8668 61.6848 70.3531C61.6848 72.8393 63.7003 74.8548 66.1865 74.8548Z" fill="#E0E4E8"/>
<path d="M79.9247 74.8547C82.411 74.8547 84.4265 72.8392 84.4265 70.353C84.4265 67.8667 82.411 65.8512 79.9247 65.8512C77.4385 65.8512 75.423 67.8667 75.423 70.353C75.423 72.8392 77.4385 74.8547 79.9247 74.8547Z" fill="#E0E4E8"/>
<path d="M93.659 74.8547C96.1453 74.8547 98.1608 72.8392 98.1608 70.353C98.1608 67.8667 96.1453 65.8512 93.659 65.8512C91.1728 65.8512 89.1573 67.8667 89.1573 70.353C89.1573 72.8392 91.1728 74.8547 93.659 74.8547Z" fill="#E0E4E8"/>
<path d="M93.659 87.4837C96.1453 87.4837 98.1608 85.4682 98.1608 82.982C98.1608 80.4958 96.1453 78.4803 93.659 78.4803C91.1728 78.4803 89.1573 80.4958 89.1573 82.982C89.1573 85.4682 91.1728 87.4837 93.659 87.4837Z" fill="#E0E4E8"/>
<path d="M79.9247 87.4837C82.411 87.4837 84.4265 85.4682 84.4265 82.982C84.4265 80.4958 82.411 78.4803 79.9247 78.4803C77.4385 78.4803 75.423 80.4958 75.423 82.982C75.423 85.4682 77.4385 87.4837 79.9247 87.4837Z" fill="#E0E4E8"/>
<path d="M66.1865 87.4837C68.6728 87.4837 70.6883 85.4682 70.6883 82.982C70.6883 80.4958 68.6728 78.4803 66.1865 78.4803C63.7003 78.4803 61.6848 80.4958 61.6848 82.982C61.6848 85.4682 63.7003 87.4837 66.1865 87.4837Z" fill="#E0E4E8"/>
<path d="M93.659 100.111C96.1453 100.111 98.1608 98.0951 98.1608 95.6089C98.1608 93.1227 96.1453 91.1072 93.659 91.1072C91.1728 91.1072 89.1573 93.1227 89.1573 95.6089C89.1573 98.0951 91.1728 100.111 93.659 100.111Z" fill="#E0E4E8"/>
<path d="M97.7947 97.3765C97.1051 98.9838 95.5086 100.108 93.657 100.108C91.17 100.108 89.1554 98.0878 89.1554 95.6063C89.1554 93.7438 90.2849 92.1473 91.8976 91.4631C90.3157 95.142 94.0293 98.9579 97.7947 97.3765Z" fill="#D0D3D7"/>
<path d="M97.7947 84.7515C97.1051 86.3588 95.5086 87.4829 93.657 87.4829C91.17 87.4829 89.1554 85.4629 89.1554 82.9813C89.1554 81.1188 90.2849 79.5223 91.8976 78.8381C90.3191 82.5092 94.019 86.3373 97.7947 84.7515Z" fill="#D0D3D7"/>
<path d="M84.0607 84.7515C83.3711 86.3588 81.7746 87.4828 79.9229 87.4828C77.436 87.4828 75.4214 85.4628 75.4214 82.9813C75.4214 81.1188 76.5509 79.5223 78.1636 78.8381C76.5851 82.5092 80.285 86.3372 84.0607 84.7515Z" fill="#D0D3D7"/>
<path d="M70.3283 84.7515C69.6387 86.3588 68.0422 87.4828 66.1905 87.4828C63.7036 87.4828 61.689 85.4628 61.689 82.9813C61.689 81.1188 62.8185 79.5223 64.4312 78.8381C62.8526 82.5092 66.5526 86.3372 70.3283 84.7515Z" fill="#D0D3D7"/>
<path d="M97.7947 72.1238C97.1051 73.7311 95.5086 74.8551 93.657 74.8551C91.17 74.8551 89.1554 72.8351 89.1554 70.3536C89.1554 68.491 90.2849 66.8946 91.8976 66.2104C90.3191 69.8815 94.019 73.7095 97.7947 72.1238Z" fill="#D0D3D7"/>
<path d="M84.0607 72.1238C83.3711 73.7311 81.7746 74.8552 79.9229 74.8552C77.436 74.8552 75.4214 72.8352 75.4214 70.3536C75.4214 68.4911 76.5509 66.8946 78.1636 66.2104C76.5851 69.8815 80.285 73.7096 84.0607 72.1238Z" fill="#D0D3D7"/>
<path d="M70.3283 72.1238C69.6387 73.7311 68.0422 74.8551 66.1905 74.8551C63.7036 74.8551 61.689 72.8351 61.689 70.3536C61.689 68.491 62.8185 66.8946 64.4312 66.2104C62.8526 69.8815 66.5526 73.7095 70.3283 72.1238Z" fill="#D0D3D7"/>
<path d="M84.4248 95.6063C84.4248 98.0335 82.4917 100.021 80.0807 100.102V100.108H66.1906C63.6981 100.108 61.689 98.0878 61.689 95.6063C61.689 93.1193 63.6981 91.1047 66.1906 91.1047H80.0807V91.1102C82.4917 91.1916 84.4248 93.1736 84.4248 95.6063Z" fill="#3570D4"/>
<path d="M69.4052 100.108H66.1906C63.6981 100.108 61.689 98.0878 61.689 95.6063C61.689 93.1193 63.6981 91.1047 66.1906 91.1047H69.4052C66.9127 91.1047 64.9036 93.1193 64.9036 95.6063C64.9036 98.0878 66.9127 100.108 69.4052 100.108Z" fill="#2C5BC0"/>
</svg>
