<svg width="89" height="89" viewBox="0 0 89 89" fill="none" xmlns="http://www.w3.org/2000/svg">
<g clip-path="url(#clip0_4965_29934)">
<path d="M82.516 35.3219C81.5774 31.3586 80.0131 27.6041 77.875 24.1098L80.8471 18.165L70.835 8.15236L64.89 11.1248C61.3961 8.98691 57.6416 7.42246 53.6781 6.48362L51.5922 0H37.4078L35.3219 6.48362C31.3586 7.42263 27.6041 8.98691 24.1101 11.1248L18.1652 8.15236L8.15271 18.165L11.1248 24.1098C8.98691 27.6039 7.42246 31.3584 6.48396 35.3219L0 37.4078V51.5922L6.48396 53.6781C7.42263 57.6411 8.98691 61.3959 11.125 64.8899L8.15289 70.8348L18.1652 80.8471L24.1101 77.8746C27.6039 80.0129 31.3586 81.5774 35.3219 82.5159L37.4078 89H51.5922L53.6783 82.516C57.6416 81.5774 61.3961 80.0131 64.89 77.8748L70.835 80.8473L80.8473 70.835L77.8752 64.89C80.0131 61.3963 81.5775 57.6414 82.5162 53.6783L89 51.5922V37.4078L82.516 35.3219ZM44.5 70.5742C30.107 70.5742 18.4258 58.893 18.4258 44.5C18.4258 30.107 30.107 18.4258 44.5 18.4258C58.893 18.4258 70.5742 30.107 70.5742 44.5C70.5742 58.893 58.893 70.5742 44.5 70.5742Z" fill="#8FA1B0"/>
<path d="M89 37.4078V51.5922L82.516 53.6781C81.5774 57.6411 80.0131 61.3959 77.875 64.8899L80.8471 70.8348L70.835 80.8473L64.89 77.8748C61.3961 80.0131 57.6416 81.5775 53.6781 82.516L51.5922 89H44.5V70.5742C58.893 70.5742 70.5742 58.893 70.5742 44.5C70.5742 30.107 58.893 18.4258 44.5 18.4258V0H51.5922L53.6781 6.48362C57.6414 7.42263 61.3959 8.98691 64.8899 11.1248L70.8348 8.15236L80.8471 18.165L77.875 24.1098C80.0129 27.6039 81.5774 31.3584 82.516 35.3219L89 37.4078Z" fill="#8FA1B0"/>
<path d="M44.5 15.8184C28.6988 15.8184 15.8184 28.6988 15.8184 44.5C15.8184 60.3008 28.6988 73.1816 44.5 73.1816C60.3012 73.1816 73.1816 60.3008 73.1816 44.5C73.1816 28.6988 60.3012 15.8184 44.5 15.8184ZM44.5 67.9668C31.5674 67.9668 21.0332 57.4326 21.0332 44.5C21.0332 31.567 31.5674 21.0332 44.5 21.0332C57.4326 21.0332 67.9668 31.567 67.9668 44.5C67.9668 57.4326 57.4326 67.9668 44.5 67.9668Z" fill="#E0E4E8"/>
<path d="M73.1816 44.5C73.1816 60.3008 60.3012 73.1816 44.5 73.1816V67.9668C57.4326 67.9668 67.9668 57.4326 67.9668 44.5C67.9668 31.567 57.4326 21.0332 44.5 21.0332V15.8184C60.3012 15.8184 73.1816 28.6988 73.1816 44.5Z" fill="#E0E4E8"/>
<path d="M44.5 26.248C34.4354 26.248 26.248 34.4354 26.248 44.5C26.248 54.5646 34.4354 62.752 44.5 62.752C54.5646 62.752 62.752 54.5646 62.752 44.5C62.752 34.4354 54.5646 26.248 44.5 26.248Z" fill="#3570D4"/>
<path d="M62.752 44.5C62.752 54.5646 54.5646 62.752 44.5 62.752V26.248C54.5646 26.248 62.752 34.4354 62.752 44.5Z" fill="#3570D4"/>
<path d="M54.1473 41.1102L44.5 50.8098L41.8926 53.4172L34.8527 46.325L38.5027 42.6746L41.8926 46.0121L44.5 43.4047L50.4972 37.4598L54.1473 41.1102Z" fill="#E4F8DD"/>
<path d="M54.1473 41.1102L44.5 50.8098V43.4047L50.4972 37.4598L54.1473 41.1102Z" fill="#F2F2F7"/>
</g>
<defs>
<clipPath id="clip0_4965_29934">
<rect width="89" height="89" fill="white"/>
</clipPath>
</defs>
</svg>
