<svg width="77" height="77" viewBox="0 0 77 77" fill="none" xmlns="http://www.w3.org/2000/svg">
<path d="M9.05882 4.52941H0V72.4706L14.1419 73.9804L27.1765 72.4706L28.6863 70.0801L27.1765 67.9412L9.05882 4.52941Z" fill="#DEDEE8"/>
<path d="M27.1765 67.9412V72.4706L41.8971 73.9804L56.6177 72.4706V67.9412L41.8971 66.4314L27.1765 67.9412Z" fill="#D4D4DD"/>
<path d="M9.05884 0V67.9412H27.1765L29.4412 36.2353L27.1765 0H9.05884Z" fill="#F2F2F7"/>
<path d="M61.1471 14.9149L50.7612 6.79412L46.2322 0H27.1765V67.9412H61.1471V14.9149Z" fill="#F2F2F7"/>
<path d="M45.2941 43.0294C45.2941 51.7707 52.4057 58.8824 61.147 58.8824L62.6568 44.2373L61.147 27.1765C52.4057 27.1765 45.2941 34.2879 45.2941 43.0294Z" fill="#34A853"/>
<path d="M61.1471 27.1765V58.8824C69.8884 58.8824 77 51.7707 77 43.0294C77 34.2881 69.8884 27.1765 61.1471 27.1765Z" fill="#34A853"/>
<path d="M18.1176 13.5882V18.1176H27.1764L29.4411 15.8529L27.1764 13.5882H18.1176Z" fill="#1B3692"/>
<path d="M27.1765 13.5882H36.2353V18.1176H27.1765V13.5882Z" fill="#1B3692"/>
<path d="M18.1176 22.6471V27.1765H27.1764L28.6862 24.6492L27.1764 22.6471H18.1176Z" fill="#8FA1B0"/>
<path d="M38.5 22.6471H27.1765V27.1765H38.5V22.6471Z" fill="#8FA1B0"/>
<path d="M18.1176 36.2353H27.1764L28.6862 33.9706L27.1764 31.7059H18.1176V36.2353Z" fill="#8FA1B0"/>
<path d="M27.1765 31.7059H36.2353V36.2353H27.1765V31.7059Z" fill="#8FA1B0"/>
<path d="M18.1176 45.2941H27.1764L28.6862 43.0294L27.1764 40.7647H18.1176V45.2941Z" fill="#8FA1B0"/>
<path d="M18.1176 54.3529H27.1764L28.6862 52.0882L27.1764 49.8235H18.1176V54.3529Z" fill="#8FA1B0"/>
<path d="M27.1765 49.8235H36.2353V54.3529H27.1765V49.8235Z" fill="#8FA1B0"/>
<path d="M59.5458 43.6928L56.6177 40.7647L53.4149 43.9675L59.5458 50.0982L61.1471 48.4969L62.6569 44.4889L61.1471 42.0914L59.5458 43.6928Z" fill="white"/>
<path d="M67.0032 36.2353L61.1471 42.0914V48.4969L70.2059 39.438L67.0032 36.2353Z" fill="white"/>
<path d="M0 77H27.1765L28.6863 74.4836L27.1765 72.4706H0V77Z" fill="#3570D4"/>
<path d="M27.1765 72.4706H56.6177V77H27.1765V72.4706Z" fill="#3570D4"/>
<path d="M61.147 14.9149L46.2321 0L46.2 14.9149H61.147Z" fill="#3570D4"/>
<path d="M27.1765 40.7647H36.2353V45.2941H27.1765V40.7647Z" fill="#8FA1B0"/>
</svg>
