<svg width="96" height="96" viewBox="0 0 96 96" fill="none" xmlns="http://www.w3.org/2000/svg">
<path d="M84.6335 92.6137H79.4984C78.7102 92.6137 78.0713 91.9747 78.0713 91.1866C78.0713 90.3984 78.7102 89.7594 79.4984 89.7594H84.6335C85.4217 89.7594 86.0607 90.3984 86.0607 91.1866C86.0607 91.9747 85.4217 92.6137 84.6335 92.6137Z" fill="#B6C4CF"/>
<path d="M74.9949 92.6137H58.6422L56.2579 62.8957L58.6422 28.8975H77.4863C78.598 28.8975 79.499 29.7987 79.499 30.9101V89.7592L74.9949 92.6137Z" fill="#F2F2F7"/>
<path d="M77.4862 28.8975H72.9821C74.0938 28.8975 74.9948 29.7987 74.9948 30.9101V92.6135H79.4989V30.9101C79.4989 29.7987 78.5977 28.8975 77.4862 28.8975Z" fill="#DBDBDC"/>
<path d="M58.6419 69.7952H70.9568C71.626 69.7952 72.1685 69.2527 72.1685 68.5834V65.2077C72.1685 64.5385 71.626 63.996 70.9568 63.996H58.6419L57.1685 66.8956L58.6419 69.7952Z" fill="#8FA1B0"/>
<path d="M58.6416 44.1142H70.9565C71.6257 44.1142 72.1682 43.5717 72.1682 42.9024V39.5267C72.1682 38.8575 71.6257 38.315 70.9565 38.315H58.6416L57.7779 41.2146L58.6416 44.1142Z" fill="#8FA1B0"/>
<path d="M70.9565 38.315H66.4524C67.1217 38.315 67.6642 38.8575 67.6642 39.5267V42.9024C67.6642 43.5717 67.1217 44.1142 66.4524 44.1142H70.9565C71.6258 44.1142 72.1683 43.5717 72.1683 42.9024V39.5267C72.1683 38.8575 71.6258 38.315 70.9565 38.315Z" fill="#8FA1B0"/>
<path d="M58.6419 56.9546H70.9568C71.626 56.9546 72.1685 56.4121 72.1685 55.7428V52.3671C72.1685 51.6979 71.626 51.1554 70.9568 51.1554H58.6419L57.1685 54.055L58.6419 56.9546Z" fill="#8FA1B0"/>
<path d="M70.9565 51.1556H66.4524C67.1217 51.1556 67.6642 51.6981 67.6642 52.3673V55.743C67.6642 56.4123 67.1217 56.9548 66.4524 56.9548H70.9565C71.6258 56.9548 72.1683 56.4123 72.1683 55.743V52.3673C72.1683 51.6981 71.6258 51.1556 70.9565 51.1556Z" fill="#8FA1B0"/>
<path d="M70.9565 63.9962H66.4524C67.1217 63.9962 67.6642 64.5387 67.6642 65.2079V68.5836C67.6642 69.2529 67.1217 69.7954 66.4524 69.7954H70.9565C71.6258 69.7954 72.1683 69.2529 72.1683 68.5836V65.2079C72.1683 64.5387 71.6258 63.9962 70.9565 63.9962Z" fill="#8FA1B0"/>
<path d="M58.6419 82.6358H70.9568C71.626 82.6358 72.1685 82.0933 72.1685 81.424V78.0483C72.1685 77.3791 71.626 76.8366 70.9568 76.8366H58.6419L57.1685 79.7362L58.6419 82.6358Z" fill="#8FA1B0"/>
<path d="M70.9565 76.8366H66.4524C67.1217 76.8366 67.6642 77.3791 67.6642 78.0483V81.424C67.6642 82.0933 67.1217 82.6358 66.4524 82.6358H70.9565C71.6258 82.6358 72.1683 82.0933 72.1683 81.424V78.0483C72.1683 77.3791 71.6258 76.8366 70.9565 76.8366Z" fill="#8FA1B0"/>
<path d="M25.0588 83.3535L14.6291 92.6129H10.125V83.3535H25.0588Z" fill="#9FACBA"/>
<path d="M58.6425 17.7881V92.6129H35.4864L25.0586 83.3528V5.26527C25.0586 3.92565 26.4211 3.01607 27.658 3.53175L43.9237 10.3117L46.778 11.501L57.4037 15.929C58.1534 16.243 58.6425 16.9756 58.6425 17.7881Z" fill="#3570D4"/>
<path d="M57.4035 15.9298L27.658 3.53236C26.4211 3.01688 25.0579 3.9255 25.0579 5.2655V5.36388C25.5199 5.13382 26.0786 5.0893 26.614 5.31231L52.8994 15.9296C53.6493 16.2422 54.1378 16.975 54.1378 17.7874V92.6133H58.6419V17.7876C58.6419 16.9752 58.1534 16.2424 57.4035 15.9298Z" fill="#2C5BC0"/>
<path d="M35.4863 92.6137H14.6295V44.7587C14.6295 43.4168 15.7174 42.3289 17.0593 42.3289H33.0567C34.3987 42.3289 35.4865 43.4168 35.4865 44.7587V92.6137H35.4863Z" fill="#EFB100"/>
<path d="M33.0566 42.3289H28.5525C29.8944 42.3289 30.9823 43.4168 30.9823 44.7587V92.6137H35.4864V44.7587C35.4864 43.4168 34.3985 42.3289 33.0566 42.3289Z" fill="#E8AC00"/>
<path d="M46.7781 11.501V92.6129H43.9238V10.3117L46.7781 11.501Z" fill="#2C5BC0"/>
<path d="M21.7514 53.1536C20.9632 53.1536 20.3242 52.5146 20.3242 51.7265V48.6748C20.3242 47.8867 20.9632 47.2477 21.7514 47.2477C22.5396 47.2477 23.1786 47.8867 23.1786 48.6748V51.7265C23.1786 52.5146 22.5396 53.1536 21.7514 53.1536Z" fill="#FFF3DE"/>
<path d="M28.3106 53.1536C27.5224 53.1536 26.8834 52.5146 26.8834 51.7265V48.6748C26.8834 47.8867 27.5224 47.2477 28.3106 47.2477C29.0987 47.2477 29.7377 47.8867 29.7377 48.6748V51.7265C29.7377 52.5146 29.0987 53.1536 28.3106 53.1536Z" fill="#FFF3DE"/>
<path d="M21.7514 63.816C20.9632 63.816 20.3242 63.177 20.3242 62.3888V59.3372C20.3242 58.549 20.9632 57.91 21.7514 57.91C22.5396 57.91 23.1786 58.549 23.1786 59.3372V62.3888C23.1786 63.177 22.5396 63.816 21.7514 63.816Z" fill="#FFF3DE"/>
<path d="M28.3106 63.816C27.5224 63.816 26.8834 63.177 26.8834 62.3888V59.3372C26.8834 58.549 27.5224 57.91 28.3106 57.91C29.0987 57.91 29.7377 58.549 29.7377 59.3372V62.3888C29.7377 63.177 29.0987 63.816 28.3106 63.816Z" fill="#FFF3DE"/>
<path d="M21.7514 74.4783C20.9632 74.4783 20.3242 73.8394 20.3242 73.0512V69.9995C20.3242 69.2114 20.9632 68.5724 21.7514 68.5724C22.5396 68.5724 23.1786 69.2114 23.1786 69.9995V73.0512C23.1786 73.8394 22.5396 74.4783 21.7514 74.4783Z" fill="#FFF3DE"/>
<path d="M28.3106 74.4783C27.5224 74.4783 26.8834 73.8394 26.8834 73.0512V69.9995C26.8834 69.2114 27.5224 68.5724 28.3106 68.5724C29.0987 68.5724 29.7377 69.2114 29.7377 69.9995V73.0512C29.7377 73.8394 29.0987 74.4783 28.3106 74.4783Z" fill="#FFF3DE"/>
<path d="M21.7514 85.1407C20.9632 85.1407 20.3242 84.5017 20.3242 83.7135V80.6619C20.3242 79.8737 20.9632 79.2347 21.7514 79.2347C22.5396 79.2347 23.1786 79.8737 23.1786 80.6619V83.7135C23.1786 84.5017 22.5396 85.1407 21.7514 85.1407Z" fill="#FFF3DE"/>
<path d="M28.3106 85.1407C27.5224 85.1407 26.8834 84.5017 26.8834 83.7136V80.6619C26.8834 79.8737 27.5224 79.2348 28.3106 79.2348C29.0987 79.2348 29.7377 79.8737 29.7377 80.6619V83.7136C29.7377 84.5017 29.0987 85.1407 28.3106 85.1407Z" fill="#FFF3DE"/>
</svg>
