<svg width="90" height="90" viewBox="0 0 90 90" fill="none" xmlns="http://www.w3.org/2000/svg">
<path d="M1.74805 74.9999V87.752H68.1738V74.9999C68.1738 68.485 63.6744 62.8335 57.3255 61.3722L50.0169 59.6906L45.6765 58.6907L42.8271 58.0352H27.0947L24.2454 58.6907L19.905 59.6906L12.5964 61.3722C6.24752 62.8335 1.74805 68.485 1.74805 74.9999Z" fill="#3570D4"/>
<path d="M55.5879 80.7598H59.084V87.752H55.5879V80.7598Z" fill="#2C5BC0"/>
<path d="M10.8379 80.7598H14.334V87.752H10.8379V80.7598Z" fill="#2C5BC0"/>
<path d="M27.0938 58.0352H42.8263L45.6756 58.6907L34.96 87.752L24.2445 58.6907L27.0938 58.0352Z" fill="#EDEFF1"/>
<path d="M27.0938 58.0352H42.8263L45.6756 58.6907L40.1575 73.6562L34.96 67.6494L29.7626 73.6562L24.2445 58.6907L27.0938 58.0352Z" fill="#D3D3D3"/>
<path d="M27.0947 58.0352V49.6445H42.8271V58.0352C42.8271 62.3796 39.3054 65.9014 34.9609 65.9014C30.6165 65.9014 27.0947 62.3796 27.0947 58.0352Z" fill="#FFD3B3"/>
<path d="M34.9609 55.2156C32.1702 55.2156 29.5133 54.6391 27.0947 53.6081V49.6445H42.8271V53.6081C40.4086 54.6391 37.7517 55.2156 34.9609 55.2156Z" fill="#FCB98B"/>
<path d="M33.2126 72.4302H36.7087L38.2063 78.9497L34.9607 87.752L31.7151 78.9497L33.2126 72.4302Z" fill="#4E3D7C"/>
<path d="M33.2128 71.5561H36.7089V72.4302H33.2128V71.5561Z" fill="#332558"/>
<path d="M34.9599 65.9014L37.6596 69.0215L36.708 71.5561H33.2119L32.2602 69.0215L34.9599 65.9014Z" fill="#4E3D7C"/>
<path d="M42.8261 58.0352L34.9598 65.9014L40.6088 72.4301L45.6754 58.6907L42.8261 58.0352Z" fill="#EDEFF1"/>
<path d="M24.2445 58.6907L29.3111 72.4301L34.96 65.9014L27.0938 58.0352L24.2445 58.6907Z" fill="#EDEFF1"/>
<path d="M16.6064 25.5215H18.7041V34.6113H16.6064C15.2549 34.6113 14.1592 33.5157 14.1592 32.1641V27.9688C14.1592 26.6172 15.2549 25.5215 16.6064 25.5215Z" fill="#FFD3B3"/>
<path d="M53.3154 25.5215H51.2178V34.6113H53.3154C54.667 34.6113 55.7627 33.5157 55.7627 32.1641V27.9688C55.7627 26.6172 54.667 25.5215 53.3154 25.5215Z" fill="#FFD3B3"/>
<path d="M18.7041 18.3545V36.0972C18.7041 45.0909 25.983 51.7422 34.9609 51.7422C43.9389 51.7422 51.2178 45.0909 51.2178 36.0972V18.3545H18.7041Z" fill="#FFD3B3"/>
<path d="M34.9609 1.74805C45.0559 1.74805 53.3154 10.0076 53.3154 20.1025V25.5215H51.2178V34.6113L48.5957 25.3467C38.6514 25.0614 30.2716 23.5161 26.0459 18.5293C26.0459 18.5293 24.5225 23.31 21.1514 25.3467L18.7041 34.6113V25.5215H16.6064V20.1025C16.6064 10.0076 24.866 1.74805 34.9609 1.74805Z" fill="#344A5E"/>
<path d="M71.6699 44.75C77.4624 44.75 82.1582 40.0542 82.1582 34.2617C82.1582 28.4692 77.4624 23.7734 71.6699 23.7734C65.8774 23.7734 61.1816 28.4692 61.1816 34.2617C61.1816 40.0542 65.8774 44.75 71.6699 44.75Z" fill="#EFB100"/>
<path d="M71.6699 43.7012C76.8832 43.7012 81.1094 39.475 81.1094 34.2617C81.1094 29.0485 76.8832 24.8223 71.6699 24.8223C66.4567 24.8223 62.2305 29.0485 62.2305 34.2617C62.2305 39.475 66.4567 43.7012 71.6699 43.7012Z" fill="#E8AC00"/>
<path d="M71.6699 42.6523C76.3039 42.6523 80.0605 38.8957 80.0605 34.2617C80.0605 29.6277 76.3039 25.8711 71.6699 25.8711C67.0359 25.8711 63.2793 29.6277 63.2793 34.2617C63.2793 38.8957 67.0359 42.6523 71.6699 42.6523Z" fill="#EFB100"/>
<path d="M71.6699 33.2129C70.8989 33.2129 70.2715 32.5855 70.2715 31.8145C70.2715 31.0434 70.8989 30.416 71.6699 30.416C72.441 30.416 73.0684 31.0434 73.0684 31.8145H75.166C75.166 30.2521 74.1355 28.9262 72.7188 28.4795V27.1297H70.6211V28.4795C69.2043 28.9262 68.1738 30.2521 68.1738 31.8145C68.1738 33.7422 69.7422 35.3106 71.6699 35.3106C72.441 35.3106 73.0684 35.9379 73.0684 36.709C73.0684 37.4801 72.441 38.1074 71.6699 38.1074C70.8989 38.1074 70.2715 37.4801 70.2715 36.709H68.1738C68.1738 38.2714 69.2043 39.5973 70.6211 40.0439V41.3938H72.7188V40.0439C74.1355 39.5973 75.166 38.2714 75.166 36.709C75.166 34.7812 73.5977 33.2129 71.6699 33.2129Z" fill="white"/>
<path d="M86.4409 87.752H56.8989C56.1749 87.752 55.5879 87.165 55.5879 86.4409V46.061C55.5879 45.337 56.1749 44.75 56.8989 44.75H86.4409C87.165 44.75 87.752 45.337 87.752 46.061V86.4409C87.752 87.165 87.165 87.752 86.4409 87.752Z" fill="#8FA1B0"/>
<path d="M55.5879 55.1509H87.752V56.0249H55.5879V55.1509Z" fill="#798792"/>
<path d="M84.7803 47.3721V52.9658H58.5596V47.3721H84.7803Z" fill="white"/>
<path d="M84.7803 52.0918V52.9658H58.5596V52.0918H84.7803Z" fill="#46BEE8"/>
<path d="M70.2715 70.7959H59.084C58.7943 70.7959 58.5596 70.5611 58.5596 70.2715V59.084C58.5596 58.7943 58.7943 58.5596 59.084 58.5596H70.2715C70.5611 58.5596 70.7959 58.7943 70.7959 59.084V70.2715C70.7959 70.5611 70.5611 70.7959 70.2715 70.7959Z" fill="#EDEFF1"/>
<path d="M84.2559 70.7959H73.0684C72.7787 70.7959 72.5439 70.5611 72.5439 70.2715V59.084C72.5439 58.7943 72.7787 58.5596 73.0684 58.5596H84.2559C84.5455 58.5596 84.7803 58.7943 84.7803 59.084V70.2715C84.7803 70.5611 84.5455 70.7959 84.2559 70.7959Z" fill="#EDEFF1"/>
<path d="M70.2715 84.7803H59.084C58.7943 84.7803 58.5596 84.5455 58.5596 84.2559V73.0684C58.5596 72.7787 58.7943 72.5439 59.084 72.5439H70.2715C70.5611 72.5439 70.7959 72.7787 70.7959 73.0684V84.2559C70.7959 84.5455 70.5611 84.7803 70.2715 84.7803Z" fill="#EDEFF1"/>
<path d="M84.2559 84.7803H73.0684C72.7787 84.7803 72.5439 84.5455 72.5439 84.2559V73.0684C72.5439 72.7787 72.7787 72.5439 73.0684 72.5439H84.2559C84.5455 72.5439 84.7803 72.7787 84.7803 73.0684V84.2559C84.7803 84.5455 84.5455 84.7803 84.2559 84.7803Z" fill="#EDEFF1"/>
<path d="M68.4365 63.8037H65.5523V60.9194H63.8042V63.8037H60.9199V65.5518H63.8042V68.436H65.5523V65.5518H68.4365V63.8037Z" fill="#798792"/>
<path d="M68.0488 76.527L66.8129 75.2908L64.6777 77.4261L62.5424 75.2908L61.3066 76.527L63.4416 78.6621L61.3066 80.7972L62.5424 82.0334L64.6777 79.8982L66.8129 82.0334L68.0488 80.7972L65.9137 78.6621L68.0488 76.527Z" fill="#798792"/>
<path d="M74.9043 63.8037H82.4209V65.5518H74.9043V63.8037Z" fill="#798792"/>
<path d="M78.663 76.7488C79.2292 76.7488 79.6881 76.2899 79.6881 75.7238C79.6881 75.1577 79.2292 74.6987 78.663 74.6987C78.0969 74.6987 77.638 75.1577 77.638 75.7238C77.638 76.2899 78.0969 76.7488 78.663 76.7488Z" fill="#798792"/>
<path d="M78.663 82.6254C79.2292 82.6254 79.6881 82.1665 79.6881 81.6004C79.6881 81.0343 79.2292 80.5753 78.663 80.5753C78.0969 80.5753 77.638 81.0343 77.638 81.6004C77.638 82.1665 78.0969 82.6254 78.663 82.6254Z" fill="#798792"/>
<path d="M74.9048 77.7881H82.4214V79.5361H74.9048V77.7881Z" fill="#798792"/>
</svg>
