<svg width="112" height="112" viewBox="0 0 112 112" fill="none" xmlns="http://www.w3.org/2000/svg">
<path d="M0.00268668 101.818C0.00268668 101.818 -0.495155 109.284 12.1981 109.284H104.939C108.839 109.284 112 106.123 112 102.223V23.7607C112 19.8607 108.839 16.6996 104.939 16.6996H0L0.00268668 101.818Z" fill="#F2F2F7"/>
<path d="M0 16.6993L0.00268668 101.817C0.00268668 101.817 -0.495155 109.284 12.1981 109.284H30.348L67.5029 16.6996L0 16.6993Z" fill="#DBDBDC"/>
<path d="M92.0119 87.4354V91.604H82.1856V87.4354H79.3968V91.604H69.5705V87.4354H66.782V91.604H56.9558V87.4354H54.1672V91.604H44.3407V87.4354H41.5525V91.604H32.1201V82.3804H36.3551V79.5921H32.1201V69.7653H36.3551V66.9768H32.1201V57.1505H36.3551V54.362H32.1201V44.5358H36.3551V41.747H32.1201V31.9207H36.3551V29.1322H32.1201H29.4285V91.604H23.8719V94.2961H29.4285V100.061H32.1201V94.2961H94.8006V91.6701V91.604V87.4354H92.0119Z" fill="#CBCBCB"/>
<path d="M0.00256348 101.818C0.00256348 101.818 0.466285 93.6194 11.0139 92.0824C13.0652 91.7836 14.6219 90.091 14.6219 88.0182V5.23402C14.6219 3.84312 13.4945 2.71579 12.1036 2.71579C5.42026 2.71579 0.00256348 8.13375 0.00256348 14.8169C0.00256348 14.8169 0.00256348 101.818 0.00256348 101.818Z" fill="#8FA1B0"/>
<path d="M91.3832 51.8091H88.0495C87.4539 51.8091 86.9472 51.4066 86.7766 50.8357C86.3765 49.4986 85.8438 48.2205 85.1925 47.0139C84.9091 46.4892 84.9835 45.8466 85.405 45.4247L87.7626 43.0672C88.2809 42.5489 88.2809 41.7085 87.7626 41.1903L82.7232 36.1511C82.2049 35.6329 81.3643 35.6329 80.846 36.1511L78.4887 38.5087C78.0672 38.9302 77.4243 39.0044 76.8995 38.7212C75.6932 38.07 74.4149 37.5372 73.0777 37.1371C72.5068 36.9663 72.1043 36.4636 72.1043 35.8677V32.8637C72.1043 31.7928 71.5103 31.2031 70.7774 31.2031H63.651C62.9178 31.2031 62.3235 31.7974 62.3235 32.5303V35.8639C62.3235 36.4598 61.921 36.9663 61.3501 37.1371C60.0129 37.5372 58.7351 38.07 57.5283 38.7212C57.0036 39.0047 56.3609 38.9305 55.9394 38.509L53.5818 36.1514C53.0633 35.6329 52.2229 35.6329 51.7049 36.1514L46.6655 41.1905C46.1472 41.7088 46.1472 42.5492 46.6655 43.0675L49.0231 45.425C49.4446 45.8466 49.5188 46.4895 49.2353 47.0142C48.5841 48.2208 48.0516 49.4988 47.6512 50.836C47.4804 51.4069 46.9739 51.8094 46.378 51.8094H43.0444C42.3112 51.8094 41.7172 52.4037 41.7172 53.1366V60.263C41.7172 60.9962 42.3115 61.5902 43.0444 61.5902H46.378C46.9739 61.5902 47.4806 61.9927 47.6512 62.5636C48.0513 63.9008 48.5841 65.1788 49.2353 66.3854C49.5188 66.9101 49.4446 67.5531 49.0231 67.9746L46.6655 70.3319C46.1472 70.8504 46.1472 71.6911 46.6655 72.2091L51.5459 77.0895C52.152 77.6956 53.1348 77.6956 53.7409 77.0895L55.9397 74.8907C56.3612 74.4689 57.0039 74.3947 57.5286 74.6782C58.7349 75.3294 60.0132 75.8622 61.3504 76.2622C61.9213 76.4331 62.3237 76.9358 62.3237 77.5317V80.5359C62.3237 81.6068 62.9183 82.1968 63.6512 82.1968H70.7777C71.5109 82.1968 72.1046 81.6023 72.1046 80.8693V77.5357C72.1046 76.9401 72.5071 76.4334 73.078 76.2628C74.4152 75.8627 75.6932 75.3299 76.8998 74.6787C77.4245 74.3952 78.0674 74.4694 78.489 74.8912L80.8463 77.2488C81.3648 77.767 82.2055 77.767 82.7235 77.2488L87.7629 72.2094C88.2811 71.6911 88.2811 70.8504 87.7629 70.3322L85.4053 67.9749C84.9838 67.5533 84.9093 66.9104 85.1928 66.3857C85.8443 65.1794 86.3768 63.9011 86.7769 62.5639C86.9477 61.993 87.4542 61.5905 88.0498 61.5905H91.3834C92.1166 61.5905 92.7107 60.9962 92.7107 60.2633V53.1371C92.7107 52.4034 92.1164 51.8091 91.3832 51.8091ZM67.2135 67.3054C61.3563 67.3054 56.6081 62.5569 56.6081 56.6997C56.6081 50.8424 61.3563 46.0943 67.2135 46.0943C73.0707 46.0943 77.8192 50.8424 77.8192 56.6997C77.8192 62.5569 73.0707 67.3054 67.2135 67.3054Z" fill="#3570D4"/>
<path d="M32.1201 82.3804H36.3548V79.5921H32.1201V69.7653H36.3548V66.9768H32.1201V57.1505H36.3548V54.362H32.1201V44.5358H36.3548V41.747H32.1201V31.9207H36.3548V29.1322H32.1201H29.4285V91.604H23.8719V94.2961H29.4285V100.061H32.1201V94.2961H36.3618L37.4424 91.604H32.1201V82.3804Z" fill="#8FA1B0"/>
<path d="M57.5283 38.5644C57.0036 38.8476 56.3609 38.7737 55.9394 38.3519L53.5818 35.9943C53.0636 35.4758 52.2229 35.4758 51.7049 35.9943L46.6655 41.0334C46.1472 41.5517 46.1472 42.3924 46.6655 42.9106L49.0231 45.2682C49.4446 45.6897 49.5188 46.3327 49.2353 46.8574C48.5841 48.0637 48.0516 49.342 47.6512 50.6792C47.4804 51.2501 46.9739 51.6526 46.378 51.6526H43.0444C42.3112 51.6526 41.7172 52.2469 41.7172 52.9798V60.1062C41.7172 60.8394 42.3115 61.4337 43.0444 61.4337H46.378C46.9739 61.4337 47.4806 61.8362 47.6512 62.4071C47.8543 63.0855 48.0929 63.7483 48.3621 64.3947L59.0116 37.8581C58.5089 38.0789 58.0089 38.3046 57.5283 38.5644Z" fill="#2C5BC0"/>
</svg>
