<svg width="103" height="107" viewBox="0 0 103 107" fill="none" xmlns="http://www.w3.org/2000/svg">
<g clip-path="url(#clip0_574_5330)">
<path d="M37.5417 73.5225H25.16V63.748C25.16 62.8773 24.4541 62.1714 23.5834 62.1714C22.7127 62.1714 22.0068 62.8773 22.0068 63.748V73.5225H9.62529C8.75462 73.5225 8.04871 74.2284 8.04871 75.0991V83.5073C8.04871 84.378 8.75462 85.0839 9.62529 85.0839C10.496 85.0839 11.2019 84.378 11.2019 83.5073V76.6757H35.9653V83.5073C35.9653 84.378 36.6712 85.0839 37.5419 85.0839C38.4126 85.0839 39.1185 84.378 39.1185 83.5073V75.0991C39.1181 74.2282 38.4124 73.5225 37.5417 73.5225Z" fill="#8FA1B0"/>
<path d="M93.3748 73.523H80.9931V63.7485C80.9931 62.8778 80.2872 62.1719 79.4165 62.1719C78.5458 62.1719 77.8399 62.8778 77.8399 63.7485V73.523H65.4582C64.5875 73.523 63.8816 74.2289 63.8816 75.0996V83.5078C63.8816 84.3784 64.5875 85.0843 65.4582 85.0843C66.3288 85.0843 67.0348 84.3784 67.0348 83.5078V76.6762H91.798V83.5078C91.798 84.3784 92.5039 85.0843 93.3746 85.0843C94.2453 85.0843 94.9512 84.3784 94.9512 83.5078V75.0996C94.9514 74.2287 94.2455 73.523 93.3748 73.523Z" fill="#8FA1B0"/>
<path d="M77.8401 39.4412C77.8401 40.3118 78.546 41.0177 79.4167 41.0177C80.2873 41.0177 80.9932 40.3118 80.9932 39.4412V31.033C80.9932 30.1623 80.2873 29.4564 79.4167 29.4564H53.0766V19.6821C53.0766 18.8114 52.3707 18.1055 51.5 18.1055C50.6294 18.1055 49.9235 18.8114 49.9235 19.6821V29.4566H23.5834C22.7127 29.4566 22.0068 30.1625 22.0068 31.0332V39.4414C22.0068 40.312 22.7127 41.0179 23.5834 41.0179C24.4541 41.0179 25.16 40.312 25.16 39.4414V32.6096H77.8401V39.4412Z" fill="#8FA1B0"/>
<path d="M46.5536 16.6293L55.5317 16.6076C55.8968 16.6067 56.2336 16.4111 56.4154 16.0945L60.8856 8.30832C61.0674 7.99168 61.0664 7.60222 60.8831 7.28646L56.3752 -0.477882C56.1919 -0.793641 55.8541 -0.987558 55.489 -0.986676L46.5109 -0.964969C46.1458 -0.964086 45.809 -0.768538 45.6272 -0.451896L41.157 7.33426C40.9752 7.65091 40.9762 8.04037 41.1595 8.35613L45.6673 16.1206C45.8507 16.4362 46.1885 16.6301 46.5536 16.6293Z" fill="#FA6874"/>
<path d="M19.5536 60.6293L28.5317 60.6076C28.8968 60.6067 29.2336 60.4111 29.4154 60.0945L33.8856 52.3083C34.0674 51.9917 34.0664 51.6022 33.8831 51.2865L29.3752 43.5221C29.1919 43.2064 28.8541 43.0124 28.489 43.0133L19.5109 43.035C19.1458 43.0359 18.809 43.2315 18.6272 43.5481L14.157 51.3343C13.9752 51.6509 13.9762 52.0404 14.1595 52.3561L18.6673 60.1206C18.8507 60.4362 19.1885 60.6301 19.5536 60.6293Z" fill="#EFB100"/>
<path d="M5.55356 104.629L14.5317 104.608C14.8968 104.607 15.2336 104.411 15.4154 104.094L19.8856 96.3083C20.0674 95.9917 20.0664 95.6022 19.8831 95.2865L15.3752 87.5221C15.1919 87.2064 14.8541 87.0124 14.489 87.0133L5.51091 87.035C5.14583 87.0359 4.80898 87.2315 4.62721 87.5481L0.156998 95.3343C-0.0247779 95.6509 -0.0238363 96.0404 0.159469 96.3561L4.66728 104.121C4.85069 104.436 5.18848 104.63 5.55356 104.629Z" fill="#3570D4"/>
<path d="M33.5536 104.629L42.5317 104.608C42.8968 104.607 43.2336 104.411 43.4154 104.094L47.8856 96.3083C48.0674 95.9917 48.0664 95.6022 47.8831 95.2865L43.3752 87.5221C43.1919 87.2064 42.8541 87.0124 42.489 87.0133L33.5109 87.035C33.1458 87.0359 32.809 87.2315 32.6272 87.5481L28.157 95.3343C27.9752 95.6509 27.9762 96.0404 28.1595 96.3561L32.6673 104.121C32.8507 104.436 33.1885 104.63 33.5536 104.629Z" fill="#3570D4"/>
<path d="M61.5536 104.629L70.5317 104.608C70.8968 104.607 71.2336 104.411 71.4154 104.094L75.8856 96.3083C76.0674 95.9917 76.0664 95.6022 75.8831 95.2865L71.3752 87.5221C71.1919 87.2064 70.8541 87.0124 70.489 87.0133L61.5109 87.035C61.1458 87.0359 60.809 87.2315 60.6272 87.5481L56.157 95.3343C55.9752 95.6509 55.9762 96.0404 56.1595 96.3561L60.6673 104.121C60.8507 104.436 61.1885 104.63 61.5536 104.629Z" fill="#3570D4"/>
<path d="M88.5536 104.629L97.5317 104.608C97.8968 104.607 98.2336 104.411 98.4154 104.094L102.886 96.3083C103.067 95.9917 103.066 95.6022 102.883 95.2865L98.3752 87.5221C98.1919 87.2064 97.8541 87.0124 97.489 87.0133L88.5109 87.035C88.1458 87.0359 87.809 87.2315 87.6272 87.5481L83.157 95.3343C82.9752 95.6509 82.9762 96.0404 83.1595 96.3561L87.6673 104.121C87.8507 104.436 88.1885 104.63 88.5536 104.629Z" fill="#3570D4"/>
<path d="M74.5536 60.6293L83.5317 60.6076C83.8968 60.6067 84.2336 60.4111 84.4154 60.0945L88.8856 52.3083C89.0674 51.9917 89.0664 51.6022 88.8831 51.2865L84.3752 43.5221C84.1919 43.2064 83.8541 43.0124 83.489 43.0133L74.5109 43.035C74.1458 43.0359 73.809 43.2315 73.6272 43.5481L69.157 51.3343C68.9752 51.6509 68.9762 52.0404 69.1595 52.3561L73.6673 60.1206C73.8507 60.4362 74.1885 60.6301 74.5536 60.6293Z" fill="#EFB100"/>
</g>
<defs>
<clipPath id="clip0_574_5330">
<rect width="103" height="107" fill="white"/>
</clipPath>
</defs>
</svg>
