<svg width="97" height="97" viewBox="0 0 97 97" fill="none" xmlns="http://www.w3.org/2000/svg">
<path d="M15.018 47.0894V90.3313C15.018 91.9301 16.3262 93.2383 17.9251 93.2383H62.9838V47.0894H15.018Z" fill="#FCB73E"/>
<path d="M38.9863 79.4009H21.3116V86.9301H38.9863V79.4009Z" fill="#FEFDFF"/>
<path d="M82.0246 47.0894V90.3313C82.0246 91.9301 80.7164 93.2383 79.1176 93.2383H62.9691V47.0894H82.0246Z" fill="#FCB73E"/>
<path d="M66.3895 18.1525C65.1438 16.9068 63.4489 16.2023 61.6926 16.2023H56.5261C55.9747 16.2023 55.5152 16.6005 55.4437 17.1417C54.9741 20.552 52.0538 23.1761 48.521 23.1761C44.9881 23.1761 42.0679 20.552 41.6084 17.1417C41.5369 16.6005 41.0672 16.2023 40.5261 16.2023H35.3493C33.5828 16.2023 31.8981 16.9068 30.6524 18.1525L20.3193 28.4754L27.4054 37.7773L32.6026 32.9477V47.0894H64.4393V32.9477L69.6365 37.7773L76.7226 28.4754L66.3895 18.1525Z" fill="#4FC123"/>
<path d="M65.9708 29.8641C65.9708 29.4454 65.6237 29.0983 65.2051 29.0983C64.7864 29.0983 64.4393 29.4454 64.4393 29.8641V34.418C64.4393 34.4282 64.4393 34.4282 64.4393 34.4384V32.9987L65.9708 34.418V29.8641ZM32.5924 29.8641C32.5924 29.4454 32.2452 29.0983 31.8266 29.0983C31.408 29.0983 31.0608 29.4454 31.0608 29.8641V34.418V34.4282L32.5924 33.0089V29.8641Z" fill="#4FC123"/>
<path d="M60.0489 36.7154L56.5262 39.1966L52.9933 36.7154V30.6707H60.0489V36.7154Z" fill="#F4EFFC"/>
<path opacity="0.1" d="M82.0248 47.0894V63.8483H72.6061L62.9693 51.7551L53.3325 63.8483H15.018V47.0894H82.0248Z" fill="black"/>
<path d="M15.018 47.0894L3.97131 60.9413H51.9371L62.9693 47.0894H15.018Z" fill="#F2F2F7"/>
<path d="M82.0246 47.0894L93.0713 60.9413H74.0158L62.9691 47.0894H82.0246Z" fill="#F2F2F7"/>
</svg>
