<svg width="105" height="105" viewBox="0 0 105 105" fill="none" xmlns="http://www.w3.org/2000/svg">
<path d="M92.909 32.6574V92.4498H63.6521V50.7063C63.6521 48.397 61.7764 46.525 59.4626 46.525H32.0909C29.7772 46.525 27.9014 48.397 27.9014 50.7063V55.4172C27.9014 57.7264 26.0257 59.5984 23.7119 59.5984H9.8167C7.50295 59.5984 5.6272 57.7264 5.6272 55.4172V32.6574C5.6272 29.5785 8.12815 27.0825 11.2132 27.0825H87.3229C90.4081 27.0825 92.909 29.5785 92.909 32.6574Z" fill="#3570D4"/>
<path d="M92.9116 32.6515V92.4415H63.6466V83.9965H84.4666V27.0865H87.3166C90.4066 27.0865 92.9116 29.5765 92.9116 32.6515Z" fill="#2C5BC0"/>
<path d="M87.324 52.5853H69.2385V74.4223H87.324V52.5853Z" fill="#E5E5E5"/>
<path d="M87.3166 52.5893H69.2416V54.8093H87.3166V52.5893Z" fill="#FBFBFB"/>
<path d="M84.4456 81.8891H14.0861C9.4131 81.8891 5.625 85.6774 5.625 90.3502V99.9401H92.9068V90.3502C92.9067 85.6774 89.1186 81.8891 84.4456 81.8891Z" fill="#DBDBDC"/>
<path d="M92.9115 90.3602V99.9452H5.62646V94.1402H77.5215C82.8151 94.1402 87.1065 89.8489 87.1065 84.5552C87.1065 83.7452 87.0015 82.9652 86.7765 82.2302C90.3165 83.2352 92.9115 86.4902 92.9115 90.3602Z" fill="#8FA1B0"/>
<path d="M78.2807 62.1918C79.8199 62.1918 81.0677 60.944 81.0677 59.4048C81.0677 57.8656 79.8199 56.6178 78.2807 56.6178C76.7414 56.6178 75.4937 57.8656 75.4937 59.4048C75.4937 60.944 76.7414 62.1918 78.2807 62.1918Z" fill="#2C5BC0"/>
<path d="M99.375 40.548V52.0185C99.375 53.5516 98.1181 54.8059 96.582 54.8059H92.9091V37.7604H96.582C98.118 37.7604 99.375 39.0148 99.375 40.548ZM19.6203 23.2377V27.0844H13.9086V23.2377C13.9086 22.471 14.5371 21.8439 15.3051 21.8439H18.2238C18.9918 21.8439 19.6203 22.471 19.6203 23.2377Z" fill="#4E3D7C"/>
<path d="M65.6174 26.3551H59.6174C58.789 26.3551 58.1174 25.6835 58.1174 24.8551V12.9356C58.1174 12.1072 58.789 11.4356 59.6174 11.4356H65.6174C66.4459 11.4356 67.1174 12.1072 67.1174 12.9356V24.8552C67.1174 25.6835 66.4459 26.3551 65.6174 26.3551Z" fill="#EFB100"/>
<path d="M79.2777 26.3551H73.2777C72.4493 26.3551 71.7777 25.6835 71.7777 24.8551V12.9356C71.7777 12.1072 72.4493 11.4356 73.2777 11.4356H79.2777C80.1062 11.4356 80.7777 12.1072 80.7777 12.9356V24.8552C80.7777 25.6835 80.1062 26.3551 79.2777 26.3551Z" fill="#65B9FF"/>
<path d="M67.1115 12.9356V24.8606C67.1115 25.6856 66.4515 26.3606 65.6115 26.3606H62.6263C63.4513 26.3606 64.1263 25.6856 64.1263 24.8606V12.9356C64.1263 12.1106 63.4513 11.4356 62.6263 11.4356H65.6115C66.4515 11.4356 67.1115 12.1106 67.1115 12.9356Z" fill="#E3A538"/>
<path d="M80.7765 12.9356V24.8606C80.7765 25.6856 80.1015 26.3606 79.2765 26.3606H76.2915C77.1165 26.3606 77.7915 25.6856 77.7915 24.8606V12.9356C77.7915 12.1106 77.1165 11.4356 76.2915 11.4356H79.2765C80.1015 11.4356 80.7765 12.1106 80.7765 12.9356Z" fill="#3E7FFF"/>
<path d="M21.4186 49.0946H12.1102C11.4891 49.0946 10.9852 49.5984 10.9852 50.2196C10.9852 50.8407 11.4891 51.3446 12.1102 51.3446H21.4186C22.0398 51.3446 22.5436 50.8407 22.5436 50.2196C22.5436 49.5984 22.0396 49.0946 21.4186 49.0946ZM21.4186 42.3138H12.1102C11.4891 42.3138 10.9852 42.8177 10.9852 43.4388C10.9852 44.06 11.4891 44.5638 12.1102 44.5638H21.4186C22.0398 44.5638 22.5436 44.06 22.5436 43.4388C22.5436 42.8177 22.0396 42.3138 21.4186 42.3138Z" fill="#F2F2F7"/>
<rect x="70.6365" y="65.5479" width="3.81818" height="1.90909" rx="0.636364" fill="#566165"/>
<rect x="70.6365" y="69.3651" width="3.81818" height="1.90909" rx="0.636364" fill="#566165"/>
<rect x="76.3636" y="65.5479" width="3.81818" height="1.90909" rx="0.636364" fill="#566165"/>
<rect x="76.3636" y="69.3651" width="3.81818" height="1.90909" rx="0.636364" fill="#566165"/>
<rect x="82.0909" y="65.5479" width="3.81818" height="1.90909" rx="0.636364" fill="#566165"/>
<rect x="82.0909" y="69.3651" width="3.81818" height="1.90909" rx="0.636364" fill="#566165"/>
</svg>
