<svg width="108" height="108" viewBox="0 0 108 108" fill="none" xmlns="http://www.w3.org/2000/svg">
<g clip-path="url(#clip0_134_2650)">
<path d="M104.725 18.6758H85.5155V21.0916C85.5155 21.5742 85.1228 21.967 84.6399 21.967H23.3605C22.8777 21.967 22.4849 21.5742 22.4849 21.0916V18.6758H2.16886V98.258C2.16886 98.8582 2.65528 99.3446 3.2554 99.3446H10.9521V35.8364C10.9521 34.6361 11.9249 33.6633 13.1252 33.6633H94.8755C96.0757 33.6633 97.0485 34.6361 97.0485 35.8364V99.3446H104.745C105.345 99.3446 105.832 98.8582 105.832 98.258V18.6158C105.488 18.654 105.116 18.6758 104.725 18.6758Z" fill="#F2F2F7"/>
<path d="M2.16886 18.6758V98.2581C2.16886 98.8582 2.65528 99.3446 3.2554 99.3446H9.37006V35.8364C9.37006 35.323 9.47426 34.8334 9.66157 34.3872V18.6758H2.16886Z" fill="#F1F1F1"/>
<path d="M22.4847 13.465H1.08654C0.486422 13.465 0 13.9514 0 14.5515V17.8002C0 18.4003 0.486422 18.8867 1.08654 18.8867H22.4847V13.465Z" fill="#3570D4"/>
<path d="M106.913 13.465H85.5153V18.8867H106.913C107.514 18.8867 108 18.4003 108 17.8002V14.5515C108 13.9514 107.514 13.465 106.913 13.465Z" fill="#3570D4"/>
<path d="M10.322 17.8002V14.5515C10.322 13.9514 10.8084 13.465 11.4086 13.465H1.08654C0.486422 13.465 0 13.9514 0 14.5515V17.8002C0 18.4003 0.486422 18.8867 1.08654 18.8867H11.4086C10.8084 18.8867 10.322 18.4003 10.322 17.8002Z" fill="#2C5BC0"/>
<path d="M97.0481 99.3446H10.9519V35.8364C10.9519 34.6361 11.9247 33.6633 13.125 33.6633H94.8753C96.0755 33.6633 97.0483 34.6361 97.0483 35.8364V99.3446H97.0481Z" fill="white"/>
<path d="M59.8238 62.1955H52.751C52.391 62.1955 52.099 62.4875 52.099 62.8475V69.2012H60.4756V62.8475C60.4756 62.4875 60.1836 62.1955 59.8238 62.1955Z" fill="#EFB100"/>
<path d="M52.099 62.8475V69.2012H55.7381V62.8475C55.7381 62.4875 56.0301 62.1955 56.3901 62.1955H52.7508C52.3908 62.1955 52.099 62.4875 52.099 62.8475Z" fill="#D9A100"/>
<path d="M72.7525 62.1955H65.6797C65.3197 62.1955 65.0277 62.4875 65.0277 62.8475V69.2012H73.4043V62.8475C73.4045 62.4875 73.1125 62.1955 72.7525 62.1955Z" fill="#4FC123"/>
<path d="M65.0281 62.8475V69.2012H68.6672V62.8475C68.6672 62.4875 68.9592 62.1955 69.3192 62.1955H65.6802C65.3199 62.1955 65.0281 62.4875 65.0281 62.8475Z" fill="#47A920"/>
<path d="M85.6817 62.1955H78.6089C78.2489 62.1955 77.9569 62.4875 77.9569 62.8475V69.2012H86.3335V62.8475C86.3337 62.4875 86.0417 62.1955 85.6817 62.1955Z" fill="#EFB100"/>
<path d="M77.9569 62.8475V69.2012H81.596V62.8475C81.596 62.4875 81.888 62.1955 82.248 62.1955H78.6089C78.2489 62.1955 77.9569 62.4875 77.9569 62.8475Z" fill="#D9A100"/>
<path d="M60.4762 50.7513V44.3977C60.4762 44.0376 60.1843 43.7457 59.8242 43.7457H52.7515C52.3914 43.7457 52.0995 44.0376 52.0995 44.3977V50.7513H60.4762Z" fill="#0593FC"/>
<path d="M55.7385 50.7513V44.3977C55.7385 44.0376 56.0305 43.7457 56.3906 43.7457H52.7515C52.3914 43.7457 52.0995 44.0376 52.0995 44.3977V50.7513H55.7385Z" fill="#0182FC"/>
<path d="M73.4053 50.7513V44.3977C73.4053 44.0376 73.1133 43.7457 72.7532 43.7457H65.6805C65.3204 43.7457 65.0285 44.0376 65.0285 44.3977V50.7513H73.4053Z" fill="#3570D4"/>
<path d="M68.6676 50.7513V44.3977C68.6676 44.0376 68.9595 43.7457 69.3196 43.7457H65.6805C65.3204 43.7457 65.0285 44.0376 65.0285 44.3977V50.7513H68.6676Z" fill="#FD4755"/>
<path d="M86.3345 50.7513V44.3977C86.3345 44.0376 86.0425 43.7457 85.6824 43.7457H78.6097C78.2496 43.7457 77.9577 44.0376 77.9577 44.3977V50.7513H86.3345Z" fill="#0593FC"/>
<path d="M81.5968 50.7513V44.3977C81.5968 44.0376 81.8887 43.7457 82.2488 43.7457H78.6097C78.2496 43.7457 77.9577 44.0376 77.9577 44.3977V50.7513H81.5968Z" fill="#0182FC"/>
<path d="M18.318 79.0727V35.8364C18.318 34.6361 19.2909 33.6633 20.4911 33.6633H13.125C11.9247 33.6633 10.9519 34.6361 10.9519 35.8364V79.0727H18.318Z" fill="#D3D8DD"/>
<path d="M41.5967 79.2834V62.0839H21.4332C21.0731 62.0839 20.7811 62.3759 20.7811 62.7359V79.2834H41.5967Z" fill="#F6A96C"/>
<path d="M26.2995 79.2834V62.7359C26.2995 62.3759 26.5914 62.0839 26.9515 62.0839H21.4332C21.0731 62.0839 20.7811 62.3759 20.7811 62.7359V79.2834H26.2995Z" fill="#EA9B58"/>
<path d="M34.1174 69.0793H29.2783C28.9182 69.0793 28.6263 68.7873 28.6263 68.4272V62.0839H34.7692V68.4272C34.7694 68.7875 34.4775 69.0793 34.1174 69.0793Z" fill="#3570D4"/>
<path d="M12.3234 98.258L12.5343 99.3446H41.5969V79.0726H12.3234V98.258Z" fill="#FFBD86"/>
<path d="M12.5343 79.0726H16.4069V99.3446H12.5343V79.0726Z" fill="#F6A96C"/>
<path d="M29.5547 86.9244H24.0125C23.6524 86.9244 23.3605 86.6324 23.3605 86.2723V79.0724H30.2065V86.2723C30.2065 86.6324 29.9147 86.9244 29.5547 86.9244Z" fill="#3570D4"/>
<path d="M47.0857 50.5403H91.3479V53.7044H47.0857V50.5403Z" fill="#D3D8DD"/>
<path d="M47.0857 68.99H91.348V72.1541H47.0857V68.99Z" fill="#D3D8DD"/>
<path d="M59.8236 80.6456H52.7508C52.3908 80.6456 52.0988 80.9375 52.0988 81.2976V87.6513H60.4754V81.2974C60.4754 80.9373 60.1834 80.6456 59.8236 80.6456Z" fill="#3570D4"/>
<path d="M52.0988 81.2974V87.651H55.7379V81.2974C55.7379 80.9373 56.0298 80.6454 56.3899 80.6454H52.7506C52.3905 80.6456 52.0988 80.9373 52.0988 81.2974Z" fill="#FD4755"/>
<path d="M72.7523 80.6456H65.6796C65.3195 80.6456 65.0276 80.9375 65.0276 81.2976V87.6512H73.4041V81.2973C73.4043 80.9373 73.1124 80.6456 72.7523 80.6456Z" fill="#FE7701"/>
<path d="M65.028 81.2974V87.651H68.6671V81.2974C68.6671 80.9373 68.959 80.6454 69.3191 80.6454H65.68C65.3197 80.6456 65.028 80.9373 65.028 81.2974Z" fill="#F46700"/>
<path d="M85.6815 80.6456H78.6088C78.2487 80.6456 77.9568 80.9375 77.9568 81.2976V87.6512H86.3333V81.2973C86.3335 80.9373 86.0416 80.6456 85.6815 80.6456Z" fill="#0593FC"/>
<path d="M77.9568 81.2974V87.651H81.5959V81.2974C81.5959 80.9373 81.8878 80.6454 82.2479 80.6454H78.6088C78.2487 80.6456 77.9568 80.9373 77.9568 81.2974Z" fill="#0182FC"/>
<path d="M47.0857 90.3932H91.348V99.3443H47.0857V90.3932Z" fill="#D3D8DD"/>
<path d="M47.0857 90.3932H52.3585V99.3443H47.0857V90.3932Z" fill="#8FA1B0"/>
<path d="M47.0857 87.4401H91.348V90.6041H47.0857V87.4401Z" fill="#8FA1B0"/>
<path d="M47.2956 99.3445H41.3845V43.2695C41.3845 42.9095 41.6764 42.6175 42.0365 42.6175H46.6438C47.0038 42.6175 47.2958 42.9095 47.2958 43.2695V99.3445H47.2956Z" fill="#D3D8DD"/>
<path d="M44.9483 42.6178H42.0369C41.6768 42.6178 41.3849 42.9097 41.3849 43.2698V99.3446H44.2963V43.2696C44.2963 42.9097 44.5882 42.6178 44.9483 42.6178Z" fill="#8FA1B0"/>
<path d="M95.6766 42.6178H91.7886C91.4285 42.6178 91.1366 42.9097 91.1366 43.2698V99.3445H95.4656L95.6766 98.258V42.6178Z" fill="#D3D8DD"/>
<path d="M93.8859 42.6178H91.7886C91.4285 42.6178 91.1366 42.9097 91.1366 43.2698V99.3445H93.2339V43.2696C93.2339 42.9097 93.5259 42.6178 93.8859 42.6178Z" fill="#8FA1B0"/>
<path d="M84.6397 22.1782H23.3599C22.7597 22.1782 22.2733 21.6918 22.2733 21.0916V9.74193C22.2733 9.14182 22.7597 8.6554 23.3599 8.6554H84.6395C85.2396 8.6554 85.7261 9.14182 85.7261 9.74193V21.0916C85.7261 21.6918 85.2396 22.1782 84.6397 22.1782Z" fill="#3570D4"/>
<path d="M29.2271 21.0916V9.74193C29.2271 9.14182 29.7135 8.6554 30.3136 8.6554H23.3599C22.7597 8.6554 22.2733 9.14182 22.2733 9.74193V21.0916C22.2733 21.6918 22.7597 22.1782 23.3599 22.1782H30.3136C29.7137 22.1782 29.2271 21.6918 29.2271 21.0916Z" fill="#2C5BC0"/>
<path d="M75.2776 16.9988H32.7218C31.8481 16.9988 31.1397 16.2907 31.1397 15.4168C31.1397 14.5429 31.8481 13.8347 32.7218 13.8347H75.2776C76.1513 13.8347 76.8596 14.5429 76.8596 15.4168C76.8596 16.2907 76.1513 16.9988 75.2776 16.9988Z" fill="white"/>
<path d="M94.875 32.0813H13.125C11.0544 32.0813 9.36984 33.7656 9.36984 35.8364V99.3446H12.5339V35.8364C12.5339 35.5105 12.7991 35.2453 13.125 35.2453H94.8753C95.2011 35.2453 95.4663 35.5105 95.4663 35.8364V99.3446H98.6304V35.8364C98.6301 33.7656 96.9456 32.0813 94.875 32.0813Z" fill="#8FA1B0"/>
</g>
<defs>
<clipPath id="clip0_134_2650">
<rect width="108" height="108" fill="white"/>
</clipPath>
</defs>
</svg>
